<svg width="17" height="20" viewBox="0 0 17 20" fill="none" xmlns="http://www.w3.org/2000/svg">
<g clip-path="url(#clip0_12_12)">
<path d="M1.09992 9.70829C5.39487 7.83705 8.25885 6.60341 9.69182 6.00738C13.7834 4.30558 14.6335 4.00996 15.1876 4.00009C15.3095 3.99805 15.582 4.02826 15.7586 4.17149C15.9076 4.29243 15.9486 4.45581 15.9683 4.57048C15.9879 4.68514 16.0124 4.94636 15.9929 5.15046C15.7712 7.4801 14.8118 13.1335 14.3237 15.7428C14.1172 16.8468 13.7106 17.217 13.3169 17.2532C12.4612 17.3319 11.8116 16.6877 10.9829 16.1445C9.68622 15.2946 8.95369 14.7654 7.69503 13.936C6.24043 12.9774 7.18339 12.4506 8.01235 11.5896C8.22931 11.3643 11.9989 7.93546 12.0719 7.62442C12.0811 7.58551 12.0895 7.44051 12.0034 7.36394C11.9172 7.28737 11.7901 7.31356 11.6983 7.33437C11.5683 7.36389 9.4968 8.73307 5.48389 11.4419C4.89591 11.8457 4.36333 12.0424 3.88616 12.0321C3.36012 12.0207 2.34822 11.7346 1.59598 11.4901C0.673328 11.1902 -0.0599784 11.0316 0.00387615 10.5223C0.0371356 10.257 0.402483 9.98564 1.09992 9.70829Z" fill="#1D2826"/>
</g>
<defs>
<clipPath id="clip0_12_12">
<rect width="16" height="13.3333" fill="white" transform="translate(0 4)"/>
</clipPath>
</defs>
</svg>
