<svg width="17" height="20" viewBox="0 0 17 20" fill="none" xmlns="http://www.w3.org/2000/svg">
<g clip-path="url(#clip0_12_16)">
<path d="M16.7692 4.57212C16.1404 4.88654 15.5115 4.99135 14.7779 5.09615C15.5115 4.67692 16.0356 4.04808 16.2452 3.20962C15.6163 3.62885 14.8827 3.83846 14.0442 4.04808C13.4154 3.41923 12.4721 3 11.5288 3C9.32788 3 7.65096 5.09615 8.175 7.19231C5.34519 7.0875 2.82981 5.725 1.04808 3.62885C0.104808 5.20096 0.628846 7.19231 2.09615 8.24038C1.57212 8.24038 1.04808 8.03077 0.524038 7.82115C0.524038 9.39327 1.67692 10.8606 3.24904 11.2798C2.725 11.3846 2.20096 11.4894 1.67692 11.3846C2.09615 12.7471 3.35385 13.7952 4.92596 13.7952C3.66827 14.7385 1.78173 15.2625 0 15.0529C1.57212 15.9962 3.35385 16.625 5.24038 16.625C11.6337 16.625 15.1971 11.2798 14.9875 6.35385C15.7212 5.93462 16.35 5.30577 16.7692 4.57212Z" fill="#1D2826"/>
</g>
<defs>
<clipPath id="clip0_12_16">
<rect width="17" height="19.5492" fill="white"/>
</clipPath>
</defs>
</svg>
