<svg width="17" height="20" viewBox="0 0 17 20" fill="none" xmlns="http://www.w3.org/2000/svg">
<path fill-rule="evenodd" clip-rule="evenodd" d="M5.95003 1.05191C4.85403 1.62284 3.95735 2.10596 3.95754 2.12561C3.95803 2.17633 6.58797 3.50823 6.68132 3.50498C6.72378 3.50356 7.03181 3.36177 7.3658 3.18993L7.97314 2.87755L8.63644 3.21849L9.29969 3.5595L10.3859 3.07141C12.0226 2.33594 12.1926 2.25535 12.166 2.22827C12.1306 2.19235 11.5436 1.87697 9.95084 1.03846C9.1811 0.633196 8.434 0.235848 8.29057 0.155445C8.14716 0.0750416 8.01025 0.0103626 7.98634 0.0116146C7.96242 0.0128665 7.04605 0.481005 5.95003 1.05191V1.05191ZM1.14298 3.54116L0.00205836 4.13049V6.71693C0.00205836 8.13949 0.0170398 9.30335 0.0354165 9.30335C0.0537295 9.30335 0.615066 9.06002 1.2828 8.76262L2.49687 8.22189V5.49561L3.09014 5.81883C3.54731 6.06768 4.00476 6.31602 4.46247 6.56385L5.24151 6.98564L5.58816 6.82889C5.80557 6.73042 6.02254 6.631 6.23907 6.53062C6.40639 6.4527 6.81713 6.2677 7.15179 6.11944C7.48645 5.97111 7.79625 5.82195 7.84017 5.78796C7.89853 5.7428 7.18697 5.34959 5.20834 4.33353C3.71688 3.56763 2.44874 2.94341 2.39026 2.94641C2.33178 2.9494 1.7705 3.21701 1.14298 3.54116V3.54116ZM12.3716 3.70666C11.5945 4.05745 10.9582 4.35848 10.9575 4.37565C10.9568 4.39279 11.3804 4.64461 11.8987 4.93516C12.417 5.22577 12.8411 5.47907 12.8411 5.49815C12.8411 5.51719 12.3825 5.73943 11.8219 5.99211C11.2613 6.24474 9.84435 6.88466 8.67302 7.41416L4.74827 9.18821C3.761 9.63451 2.87109 10.0368 2.7707 10.0823C0.754143 10.9951 0.199873 11.2484 0.123756 11.2919C0.0472149 11.3357 0.029878 11.59 0.0162546 12.8665L0 14.3889L1.02027 14.9087L2.04051 15.4286L3.45524 14.7901C4.23336 14.439 4.86996 14.1333 4.86996 14.1108C4.86996 14.0883 4.72618 13.9946 4.55052 13.9025C4.37477 13.8103 4.01199 13.6064 3.74426 13.4491C3.47654 13.2919 3.20959 13.1476 3.15098 13.1285C3.09239 13.1094 3.04531 13.076 3.04626 13.0542C3.04724 13.0325 3.67022 12.7366 4.43058 12.3966C5.90744 11.7363 7.03765 11.2274 9.46405 10.1301C10.549 9.63953 11.6342 9.14928 12.7195 8.65932C13.6733 8.2288 14.7822 7.72599 15.1838 7.54197L15.914 7.20739L15.9303 5.66764L15.9466 4.12794L14.9118 3.5968C14.3426 3.30471 13.8561 3.06643 13.8306 3.0673C13.8051 3.0681 13.1486 3.35579 12.3716 3.70666V3.70666ZM15.6368 9.26151C15.4843 9.33599 15.1831 9.47545 14.9675 9.57138C14.7518 9.66732 14.3426 9.85196 14.0581 9.98176L13.5409 10.2177L13.5291 11.5694C13.5226 12.3129 13.4952 12.9179 13.4683 12.9139C13.407 12.9048 12.4377 12.4077 11.4632 11.8855C10.7599 11.5087 10.7158 11.4938 10.5505 11.5756C10.455 11.6229 9.88391 11.8791 9.28151 12.1448C8.67909 12.4106 8.16658 12.6454 8.14247 12.6666C8.11843 12.6878 9.33085 13.345 10.8368 14.127L13.5748 15.5488L14.7444 14.9437C15.3877 14.611 15.9346 14.3075 15.9598 14.2693C16.0165 14.1835 16.0117 9.1143 15.9549 9.12116C15.9325 9.12385 15.7893 9.18702 15.6368 9.26151V9.26151ZM9.15981 15.2114C8.95693 15.2987 8.7541 15.386 8.55132 15.4735C7.93899 15.7384 8.05899 15.7472 7.33051 15.3845C6.84531 15.143 6.63616 15.0685 6.54538 15.1047C6.47729 15.1318 5.89125 15.3954 5.24297 15.6906C4.59474 15.9857 4.04187 16.2271 4.01437 16.2271C3.74239 16.2271 4.19455 16.4973 5.93933 17.3774L7.98555 18.4095L8.8465 17.9844C9.32002 17.7507 10.2751 17.2825 10.969 16.9441C11.6628 16.6057 12.2218 16.32 12.2114 16.3092C12.2008 16.2985 11.6195 15.9999 10.9194 15.6458L9.6466 15.002L9.15981 15.2114Z" fill="#1D2826"/>
</svg>
