<svg width="18" height="20" viewBox="0 0 18 20" fill="none" xmlns="http://www.w3.org/2000/svg">
<path d="M5.23056 2.06711C4.96291 2.03083 4.95152 2.02707 5.07823 2.01081C5.32025 1.97828 5.88972 2.02207 6.28265 2.10339C7.19949 2.29357 8.03376 2.78151 8.92497 3.64855L9.1613 3.87876L9.50013 3.83121C10.9266 3.63103 12.3759 3.78992 13.5903 4.27912C13.9249 4.41424 14.4516 4.68199 14.5157 4.7508C14.5385 4.77332 14.5769 4.91345 14.6011 5.06483C14.6922 5.58781 14.6481 5.98692 14.4645 6.28594C14.3648 6.44859 14.3591 6.49989 14.426 6.64001C14.458 6.69773 14.5078 6.74638 14.5697 6.78045C14.6316 6.81451 14.7032 6.83261 14.7762 6.83269C15.0781 6.83269 15.4026 6.4073 15.5521 5.81426L15.6119 5.5778L15.7301 5.69541C16.3807 6.33849 16.8904 7.21429 16.9772 7.83735L17 8L16.8918 7.85237C16.7345 7.62625 16.5232 7.43287 16.2725 7.2856C15.8369 7.03412 15.3756 6.94779 14.1569 6.89149C13.055 6.84145 12.4315 6.75887 11.8136 6.58246C10.7615 6.28219 10.2319 5.88433 8.98192 4.45303C8.42669 3.8162 8.08501 3.46463 7.74333 3.18187C6.96743 2.53754 6.20577 2.19973 5.23056 2.06836V2.06711Z" fill="#1D2826"/>
<path d="M14.5471 4.11976C14.5733 3.70503 14.6369 3.43058 14.7669 3.18053C14.7953 3.11733 14.831 3.05685 14.8733 3C14.8802 3 14.8581 3.07319 14.8235 3.16223C14.7295 3.40619 14.7129 3.73797 14.7793 4.12464C14.8622 4.61499 14.9079 4.68574 15.4982 5.21513C15.776 5.46396 16.0981 5.77623 16.2156 5.91162L16.4285 6.15558L16.2156 5.98115C15.9557 5.76769 15.3585 5.35052 15.2258 5.29075C15.1373 5.25172 15.1235 5.25172 15.0696 5.29929C15.0185 5.3432 15.0088 5.40907 15.0005 5.72133C14.9908 6.20803 14.9148 6.52029 14.7323 6.83134C14.6342 7.00211 14.6189 6.96551 14.7074 6.77401C14.7738 6.63251 14.7807 6.56908 14.7807 6.09825C14.7807 5.15292 14.6507 4.92482 13.9001 4.53693C13.6737 4.42153 13.4412 4.3157 13.2034 4.21978C13.0862 4.17822 12.9725 4.12931 12.8633 4.07341C12.884 4.05511 13.6167 4.24296 13.9112 4.34176C14.3508 4.49057 14.4226 4.50887 14.4766 4.49179C14.5111 4.4796 14.5291 4.38811 14.5457 4.11976H14.5471ZM5.79229 5.73841C5.2656 5.10169 4.93797 4.12464 5.00985 3.39399L5.03059 3.16833L5.15086 3.18663C5.37757 3.22322 5.76603 3.35008 5.9485 3.44766C6.44755 3.71357 6.66459 4.06365 6.88439 4.96385C6.94937 5.22732 7.03369 5.52495 7.0724 5.62741C7.13461 5.78964 7.37238 6.16899 7.56453 6.41539C7.70278 6.59348 7.61154 6.67764 7.30464 6.65325C6.83601 6.61666 6.20148 6.23242 5.79229 5.73841V5.73841ZM13.9056 10.4797C11.4394 9.61 10.5713 8.85374 10.5713 7.57906C10.5713 7.39122 10.5782 7.23752 10.5879 7.23752C10.5961 7.23752 10.6915 7.29851 10.7994 7.37536C11.2998 7.72666 11.8597 7.87669 13.4107 8.07552C14.3231 8.19261 14.8346 8.28654 15.3088 8.42437C16.8156 8.86228 17.7459 9.75028 17.9685 10.9615C18.0321 11.3128 17.9962 11.9715 17.8897 12.3191C17.8068 12.5936 17.5552 13.0876 17.4888 13.1071C17.4695 13.1132 17.4515 13.051 17.4473 12.9656C17.4225 12.5119 17.1598 12.0691 16.7202 11.7373C16.2198 11.3604 15.5479 11.0603 13.9056 10.4809V10.4797ZM12.1749 10.842C12.1459 10.6875 12.1062 10.5347 12.056 10.3846L11.9924 10.2199L12.1099 10.3358C12.2716 10.4943 12.4002 10.698 12.508 10.9701C12.591 11.1774 12.5993 11.2384 12.5993 11.5751C12.5993 11.9056 12.5882 11.9752 12.5108 12.1606C12.4045 12.4355 12.2265 12.6846 11.991 12.8876C11.5403 13.2901 10.9611 13.5121 10.1247 13.6048C9.9796 13.6206 9.55658 13.6475 9.18471 13.6646C8.24606 13.7073 7.62813 13.7963 7.07378 13.9671C7.02352 13.9865 6.96964 13.9977 6.9148 14C6.89269 13.9805 7.27147 13.7829 7.58251 13.6511C8.02211 13.4645 8.46033 13.3633 9.44184 13.2206C9.92568 13.1498 10.4275 13.0632 10.5547 13.0291C11.7546 12.707 12.3725 11.8739 12.1749 10.842V10.842Z" fill="#1D2826"/>
<path d="M13.2045 12.804C12.8883 12.2113 12.815 11.6384 12.9884 11.1043C13.0071 11.0457 13.0364 11 13.0551 11C13.0725 11 13.1485 11.0351 13.2205 11.0785C13.3673 11.164 13.6582 11.3081 14.4373 11.6783C15.4086 12.141 15.9636 12.4983 16.3399 12.9083C16.6694 13.2656 16.8735 13.6744 16.9723 14.1711C17.0283 14.4522 16.995 15.1317 16.9122 15.4152C16.6507 16.3102 16.045 17.013 15.1778 17.423C15.051 17.4828 14.9376 17.532 14.9243 17.532C14.9123 17.532 14.959 17.4301 15.027 17.3047C15.3192 16.7729 15.3526 16.2563 15.1324 15.6811C14.9963 15.3285 14.7215 14.8986 14.1665 14.1711C13.5207 13.3277 13.3633 13.1016 13.2045 12.804V12.804ZM4.26283 16.0056C5.1474 15.3543 6.24543 14.8927 7.2474 14.7498C7.76348 14.6917 8.28698 14.7095 8.79639 14.8025C9.4368 14.9454 10.0105 15.2664 10.308 15.6471C10.5989 16.0208 10.7243 16.3453 10.855 17.0693C10.9057 17.3539 10.9618 17.6409 10.9778 17.7053C11.0752 18.0802 11.266 18.3801 11.5008 18.53C11.8744 18.769 12.5201 18.7842 13.1538 18.5687C13.2197 18.5421 13.2892 18.5232 13.3606 18.5125C13.3833 18.5324 13.0644 18.7186 12.8403 18.817C12.5744 18.9412 12.2769 19.0041 11.9758 18.9998C11.3954 18.9998 10.9137 18.7421 10.5108 18.2173C10.363 17.9951 10.2312 17.765 10.1159 17.5285C9.69163 16.6838 9.48216 16.4273 8.98985 16.145C8.56024 15.899 8.00655 15.8556 7.59029 16.0337C7.04327 16.268 6.89118 16.8771 7.28343 17.2637C7.46666 17.4298 7.70639 17.5392 7.96653 17.5753C8.06985 17.5878 8.17501 17.5805 8.27486 17.5541C8.37472 17.5277 8.46695 17.4828 8.54528 17.4224C8.62362 17.3619 8.68623 17.2874 8.72886 17.2038C8.7715 17.1203 8.79316 17.0296 8.79239 16.9381C8.79239 16.6838 8.68032 16.5398 8.3988 16.4273C8.01323 16.2762 7.60096 16.4531 7.6023 16.7682C7.6023 16.9029 7.67034 16.9873 7.82511 17.0493C7.92384 17.088 7.9265 17.0903 7.84512 17.0763C7.49289 17.0119 7.41017 16.6405 7.69302 16.3945C8.03457 16.0993 8.73902 16.2293 8.98051 16.6335C9.08191 16.8033 9.09391 17.1407 9.00586 17.3445C8.80573 17.8014 8.22936 18.0416 7.64232 17.9104C7.24207 17.8213 7.08063 17.7253 6.59899 17.293C5.76246 16.5409 5.43825 16.3945 4.23215 16.2305L4 16.1989L4.26283 16.0056V16.0056Z" fill="#1D2826"/>
<path fill-rule="evenodd" clip-rule="evenodd" d="M0.366292 1.50148C2.85554 4.80031 4.57091 6.16111 4.76111 6.44842C4.91802 6.6861 4.85858 6.90028 4.58993 7.06744C4.39887 7.17289 4.19091 7.23633 3.97772 7.25419C3.80297 7.25419 3.74235 7.18106 3.74235 7.18106C3.6413 7.07658 3.58424 7.09486 3.06476 6.08798C2.6231 5.33283 2.17611 4.58145 1.72385 3.83391C1.68581 3.79473 1.687 3.79473 2.99224 6.34525C3.20265 6.87677 3.03385 7.07136 3.03385 7.1471C3.03385 7.3012 2.99462 7.38217 2.82106 7.59504C2.53101 7.94765 2.40144 8.34466 2.30752 9.1661C2.20291 10.0868 1.9081 10.7372 1.09024 11.8511C0.612364 12.5028 0.533906 12.6216 0.412653 12.8854C0.260493 13.2158 0.218887 13.4013 0.202244 13.8179C0.184413 14.2606 0.218887 14.5453 0.342517 14.9671C0.449505 15.338 0.563625 15.5809 0.852491 16.0693C1.10213 16.4912 1.24478 16.8046 1.24478 16.9274C1.24478 17.024 1.26142 17.024 1.64896 16.9287C2.57143 16.7014 3.32153 16.3018 3.74354 15.8095C4.00506 15.5052 4.06569 15.338 4.06806 14.9214C4.06925 14.6498 4.06093 14.5923 3.99317 14.4356C3.88381 14.1809 3.6841 13.9681 3.24426 13.639C2.66653 13.208 2.41927 12.8619 2.3527 12.3853C2.29564 11.9935 2.36102 11.7179 2.6796 10.9879C3.01008 10.2304 3.0921 9.90788 3.14797 9.14651C3.18363 8.65417 3.23237 8.45958 3.36195 8.30287C3.49746 8.14093 3.61872 8.08608 3.95394 8.03645C4.49958 7.95418 4.84551 7.80138 5.13081 7.51407C5.24517 7.41038 5.33743 7.28039 5.40111 7.13328C5.46478 6.98616 5.4983 6.82549 5.49932 6.6626L5.51121 6.38835L5.37213 6.21335C4.87166 5.57605 0.0310641 1 0.000156548 1C-0.00578721 1 0.158261 1.22593 0.366292 1.50148ZM1.52651 14.3194C1.58105 14.2136 1.59727 14.089 1.57193 13.9707C1.54659 13.8523 1.48156 13.7488 1.38981 13.6808C1.21149 13.5502 0.932138 13.6129 0.932138 13.7813C0.932138 13.8336 0.95829 13.8714 1.01773 13.9041C1.11758 13.9602 1.12472 14.0229 1.04626 14.1522C0.966612 14.2815 0.973744 14.3951 1.06409 14.4735C1.21031 14.5975 1.41715 14.5296 1.52651 14.3194V14.3194ZM5.85476 8.18141C5.59918 8.2663 5.35073 8.56275 5.27227 8.87357C5.22591 9.06293 5.25325 9.39595 5.32339 9.49781C5.43751 9.66367 5.54687 9.70676 5.84525 9.70546C6.42774 9.70154 6.93414 9.4286 6.99358 9.08644C7.04113 8.80696 6.81884 8.4204 6.51214 8.24932C6.30381 8.1564 6.07521 8.13278 5.85476 8.18141V8.18141ZM6.5371 8.76256C6.62626 8.62283 6.58703 8.47264 6.43368 8.37078C6.14363 8.17619 5.7026 8.33682 5.7026 8.63719C5.7026 8.78738 5.93203 8.95062 6.14244 8.95062C6.28271 8.95062 6.47529 8.8592 6.5371 8.76256Z" fill="#1D2826"/>
</svg>
