<svg width="2452" height="1253" viewBox="0 0 2452 1253" fill="none" xmlns="http://www.w3.org/2000/svg">
<path d="M711.796 1176.7C1080.06 1032.75 1091.78 782.066 1298.68 727.878C1442.45 690.227 1774 727.878 1882.31 685.733C2030.01 628.261 2071.65 345.831 2451.63 444.9" stroke="#212B95" stroke-width="1.09561"/>
<path d="M611 1252.3C661.221 1053.94 886.36 837.553 1033.59 813.707C1180.83 789.86 1289.91 846.696 1423.18 807.064C1509.51 781.451 1556.12 657.432 1765.72 572.491C1975.33 487.55 1987.82 698.616 2105.75 598.926C2249.2 489.309 2131.84 396.361 2316.87 378" stroke="#42BBCA" stroke-width="1.09561"/>
<path d="M702.633 1182.45C874.593 1098.98 981.419 989.623 1062.83 907.965C1144.23 826.308 1203.84 762.186 1310 733.952C1383.2 714.51 1495.46 703.235 1618.51 695.003C1741.57 686.77 1842.67 704.936 1902.63 676.717C2049.94 614.505 2077.12 349.3 2439.38 437.694" stroke="#24389A" stroke-width="1.09561"/>
<path d="M693.47 1188.28C853.256 1093.32 971.913 973.259 1059.9 897.382C1147.89 821.506 1212.44 769.48 1321.32 740.106C1395.83 720.047 1501.53 697.498 1633.23 681.594C1764.94 665.691 1857.19 703.147 1922.94 667.78C2069.86 600.828 2082.59 352.848 2427.13 430.567" stroke="#27459F" stroke-width="1.09561"/>
<path d="M684.307 1194.21C831.919 1087.76 962.407 956.994 1056.98 886.899C1151.55 816.804 1221.05 776.873 1332.64 746.36C1408.46 725.683 1507.59 691.86 1647.96 668.286C1788.32 644.711 1871.7 701.458 1943.25 658.944C2089.79 587.251 2088.07 356.497 2414.88 423.54" stroke="#2A52A3" stroke-width="1.09561"/>
<path d="M675.143 1200.26C810.581 1082.33 952.901 940.857 1054.06 876.543C1155.21 812.229 1229.66 784.394 1343.95 752.741C1421.09 731.447 1513.66 686.349 1662.68 655.104C1811.7 623.859 1886.22 699.895 1963.56 650.234C2109.72 573.801 2093.54 360.273 2402.63 416.641" stroke="#2D5FA8" stroke-width="1.09561"/>
<path d="M665.98 1206.48C789.244 1077.06 943.395 924.886 1051.13 866.353C1158.87 807.82 1238.26 792.081 1355.27 759.288C1433.72 737.377 1519.72 681.005 1677.4 642.089C1835.07 603.173 1900.73 698.499 1983.88 641.691C2129.64 560.517 2099.01 364.215 2390.38 409.907" stroke="#306CAD" stroke-width="1.09561"/>
<path d="M656.816 1212.92C767.907 1072.01 933.889 909.138 1048.21 856.386C1162.53 803.634 1246.87 799.991 1366.59 766.058C1446.35 743.53 1525.79 675.883 1692.12 629.296C1858.45 582.71 1915.24 697.326 2004.19 633.371C2149.57 547.456 2104.48 368.38 2378.12 403.396" stroke="#337AB2" stroke-width="1.09561"/>
<path d="M647.653 1219.68C746.57 1067.28 924.383 893.7 1045.29 846.729C1166.19 799.759 1255.48 808.211 1377.91 773.139C1458.98 749.994 1531.85 671.073 1706.84 616.815C1881.83 562.557 1929.76 696.464 2024.5 625.361C2169.49 534.706 2109.95 372.855 2365.87 397.197" stroke="#3687B7" stroke-width="1.09561"/>
<path d="M638.49 1226.89C725.233 1063 914.877 878.718 1042.36 837.528C1169.85 796.338 1264.08 816.887 1389.22 780.674C1471.61 756.912 1537.92 666.717 1721.56 604.788C1905.2 542.86 1944.27 696.056 2044.81 617.807C2189.42 522.411 2115.42 377.786 2353.62 391.452" stroke="#3994BC" stroke-width="1.09561"/>
<path d="M629.327 1234.81C703.896 1059.43 905.372 864.447 1039.44 829.038C1173.51 793.629 1272.69 826.274 1400.54 788.921C1484.25 764.542 1543.99 663.072 1736.28 593.473C1928.58 523.874 1958.79 696.36 2065.13 610.963C2209.35 510.827 2120.9 383.428 2341.37 386.418" stroke="#3CA1C0" stroke-width="1.09561"/>
<path d="M620.163 1243.53C682.558 1056.66 895.865 850.974 1036.52 821.346C1177.17 791.719 1281.3 836.459 1411.86 797.967C1496.88 772.971 1550.05 660.226 1751 582.956C1951.96 505.686 1973.3 697.462 2085.44 604.919C2229.27 500.042 2126.37 389.868 2329.12 382.183" stroke="#3FAEC5" stroke-width="1.09561"/>
<path d="M101.796 799.702C470.063 655.75 481.775 405.066 688.681 350.878C832.447 313.227 1164 350.878 1272.31 308.733C1420.01 251.261 1461.65 -31.1694 1841.63 67.9002" stroke="#212B95" stroke-width="1.09561"/>
<path d="M1.00001 875.299C51.2214 676.939 276.36 460.553 423.593 436.707C570.826 412.86 679.905 469.696 813.178 430.064C899.509 404.451 946.116 280.432 1155.72 195.491C1365.33 110.55 1377.82 321.616 1495.75 221.926C1639.2 112.309 1521.84 19.3607 1706.87 0.999988" stroke="#42BBCA" stroke-width="1.09561"/>
<path d="M92.6331 805.45C264.593 721.984 371.419 612.623 452.826 530.965C534.233 449.308 593.835 385.186 699.999 356.952C773.195 337.51 885.46 326.235 1008.51 318.003C1131.57 309.77 1232.67 327.936 1292.63 299.717C1439.94 237.505 1467.12 -27.7005 1829.38 60.6937" stroke="#24389A" stroke-width="1.09561"/>
<path d="M83.4697 811.278C243.256 716.322 361.913 596.259 449.903 520.382C537.892 444.506 602.442 392.48 711.317 363.106C785.827 343.047 891.525 320.498 1023.23 304.594C1154.94 288.691 1247.19 326.147 1312.94 290.78C1459.86 223.828 1472.59 -24.1517 1817.13 53.567" stroke="#27459F" stroke-width="1.09561"/>
<path d="M74.3064 817.205C221.918 710.761 352.407 579.994 446.979 509.899C541.552 439.804 611.049 399.873 722.635 369.36C798.458 348.683 897.591 314.86 1037.96 291.286C1178.32 267.711 1261.7 324.458 1333.25 281.944C1479.79 210.251 1478.07 -20.5029 1804.88 46.5403" stroke="#2A52A3" stroke-width="1.09561"/>
<path d="M65.1431 823.26C200.581 705.326 342.901 563.857 444.056 499.543C545.211 435.229 619.656 407.394 733.953 375.741C811.089 354.447 903.657 309.349 1052.68 278.104C1201.7 246.859 1276.22 322.895 1353.56 273.234C1499.72 196.801 1483.54 -16.7272 1792.63 39.6405" stroke="#2D5FA8" stroke-width="1.09561"/>
<path d="M55.9797 829.481C179.244 700.057 333.395 547.886 441.133 489.353C548.87 430.82 628.263 415.081 745.271 382.288C823.721 360.377 909.722 304.005 1067.4 265.089C1225.07 226.173 1290.73 321.499 1373.88 264.691C1519.64 183.517 1489.01 -12.7852 1780.38 32.907" stroke="#306CAD" stroke-width="1.09561"/>
<path d="M46.8167 835.924C157.907 695.011 323.889 532.138 438.21 479.386C552.53 426.634 636.87 422.991 756.589 389.058C836.352 366.53 915.788 298.883 1082.12 252.296C1248.45 205.71 1305.24 320.326 1394.19 256.371C1539.57 170.456 1494.48 -8.62042 1768.13 26.3963" stroke="#337AB2" stroke-width="1.09561"/>
<path d="M37.6533 842.679C136.57 690.276 314.383 516.7 435.286 469.729C556.189 422.758 645.477 431.211 767.907 396.138C848.984 372.994 921.854 294.073 1096.84 239.815C1271.83 185.557 1319.76 319.463 1414.5 248.361C1559.49 157.706 1499.95 -4.1447 1755.87 20.1965" stroke="#3687B7" stroke-width="1.09561"/>
<path d="M28.49 849.888C115.233 685.996 304.878 501.718 432.363 460.528C559.848 419.338 654.084 439.887 779.225 403.674C861.615 379.912 927.919 289.717 1111.56 227.788C1295.2 165.86 1334.27 319.056 1434.81 240.807C1579.42 145.411 1505.42 0.786104 1743.62 14.4518" stroke="#3994BC" stroke-width="1.09561"/>
<path d="M19.3267 857.809C93.8957 682.427 295.372 487.446 429.44 452.038C563.508 416.629 662.691 449.274 790.542 411.921C874.246 387.542 933.985 286.072 1126.28 216.473C1318.58 146.873 1348.79 319.36 1455.13 233.963C1599.35 133.827 1510.9 6.42762 1731.37 9.41787" stroke="#3CA1C0" stroke-width="1.09561"/>
<path d="M10.1633 866.528C72.5585 679.657 285.866 473.974 426.516 444.346C567.167 414.719 671.298 459.459 801.86 420.967C886.878 395.971 940.051 283.226 1141 205.956C1341.96 128.686 1363.3 320.462 1475.44 227.919C1619.27 123.042 1516.37 12.8683 1719.12 5.18309" stroke="#3FAEC5" stroke-width="1.09561"/>
</svg>
