<svg width="362" height="116" viewBox="0 0 362 116" fill="none" xmlns="http://www.w3.org/2000/svg">
<path d="M141.725 52.5V70H137.975V52.5H141.725ZM148.325 68.925L148.925 70H141.65V68.925H148.325ZM150.15 64.875L149 70H144.1L145 68.925C145.833 68.925 146.567 68.7667 147.2 68.45C147.833 68.1167 148.375 67.65 148.825 67.05C149.275 66.4333 149.633 65.7083 149.9 64.875H150.15ZM138.05 68.175V70H136.05V69.75C136.05 69.75 136.1 69.75 136.2 69.75C136.317 69.75 136.375 69.75 136.375 69.75C136.808 69.75 137.175 69.6 137.475 69.3C137.792 68.9833 137.958 68.6083 137.975 68.175H138.05ZM138.05 54.325H137.975C137.958 53.8917 137.792 53.525 137.475 53.225C137.175 52.9083 136.808 52.75 136.375 52.75C136.375 52.75 136.317 52.75 136.2 52.75C136.1 52.75 136.05 52.75 136.05 52.75V52.5H138.05V54.325ZM141.65 54.325V52.5H143.65V52.75C143.633 52.75 143.575 52.75 143.475 52.75C143.375 52.75 143.325 52.75 143.325 52.75C142.892 52.75 142.517 52.9083 142.2 53.225C141.9 53.525 141.742 53.8917 141.725 54.325H141.65ZM161.284 52.15C163.284 52.15 165.018 52.525 166.484 53.275C167.968 54.0083 169.109 55.05 169.909 56.4C170.726 57.75 171.134 59.3667 171.134 61.25C171.134 63.1167 170.726 64.7333 169.909 66.1C169.109 67.45 167.968 68.5 166.484 69.25C165.018 69.9833 163.284 70.35 161.284 70.35C159.284 70.35 157.543 69.9833 156.059 69.25C154.593 68.5 153.459 67.45 152.659 66.1C151.859 64.75 151.459 63.1333 151.459 61.25C151.459 59.3833 151.859 57.775 152.659 56.425C153.459 55.0583 154.593 54.0083 156.059 53.275C157.543 52.525 159.284 52.15 161.284 52.15ZM161.284 69.3C162.468 69.3 163.484 68.975 164.334 68.325C165.184 67.6583 165.843 66.725 166.309 65.525C166.776 64.325 167.009 62.9 167.009 61.25C167.009 59.6 166.776 58.175 166.309 56.975C165.843 55.775 165.184 54.85 164.334 54.2C163.484 53.5333 162.468 53.2 161.284 53.2C160.118 53.2 159.101 53.5333 158.234 54.2C157.384 54.85 156.726 55.775 156.259 56.975C155.793 58.175 155.559 59.6 155.559 61.25C155.559 62.9 155.793 64.325 156.259 65.525C156.726 66.725 157.384 67.6583 158.234 68.325C159.101 68.975 160.118 69.3 161.284 69.3ZM181.871 52.575V70H178.121V52.575H181.871ZM187.996 52.475V53.525H171.996V52.475H187.996ZM187.996 53.45V56.4L187.746 56.375V56.1C187.746 55.3167 187.512 54.7 187.046 54.25C186.596 53.7833 185.979 53.5417 185.196 53.525V53.45H187.996ZM187.996 52.025V52.75L184.946 52.475C185.312 52.475 185.696 52.45 186.096 52.4C186.512 52.35 186.896 52.2917 187.246 52.225C187.596 52.1583 187.846 52.0917 187.996 52.025ZM178.196 68.175V70H176.196V69.75C176.196 69.75 176.246 69.75 176.346 69.75C176.462 69.75 176.521 69.75 176.521 69.75C176.954 69.75 177.321 69.6 177.621 69.3C177.937 68.9833 178.104 68.6083 178.121 68.175H178.196ZM181.796 68.175H181.871C181.887 68.6083 182.046 68.9833 182.346 69.3C182.662 69.6 183.037 69.75 183.471 69.75C183.471 69.75 183.521 69.75 183.621 69.75C183.737 69.75 183.796 69.75 183.796 69.75V70H181.796V68.175ZM174.771 53.45V53.525C174.004 53.5417 173.387 53.7833 172.921 54.25C172.471 54.7 172.246 55.3167 172.246 56.1V56.375L171.996 56.4V53.45H174.771ZM171.996 52.025C172.162 52.0917 172.412 52.1583 172.746 52.225C173.096 52.2917 173.479 52.35 173.896 52.4C174.312 52.45 174.696 52.475 175.046 52.475L171.996 52.75V52.025ZM194.745 52.5V63.5C194.745 64.6833 194.937 65.7083 195.32 66.575C195.72 67.4417 196.279 68.1083 196.995 68.575C197.729 69.0417 198.595 69.275 199.595 69.275C200.612 69.275 201.487 69.0583 202.22 68.625C202.97 68.175 203.545 67.5417 203.945 66.725C204.345 65.9083 204.545 64.9417 204.545 63.825V52.5H206.345V63.675C206.345 65.0417 206.054 66.225 205.47 67.225C204.904 68.225 204.079 69 202.995 69.55C201.929 70.0833 200.637 70.35 199.12 70.35C197.354 70.35 195.862 70.0833 194.645 69.55C193.429 69 192.512 68.2333 191.895 67.25C191.295 66.25 190.995 65.0667 190.995 63.7V52.5H194.745ZM191.07 52.5V54H190.995C190.995 53.6333 190.862 53.3333 190.595 53.1C190.345 52.8667 190.037 52.75 189.67 52.75C189.67 52.75 189.604 52.75 189.47 52.75C189.337 52.75 189.27 52.75 189.27 52.75V52.5H191.07ZM196.47 52.5V52.75C196.47 52.75 196.404 52.75 196.27 52.75C196.137 52.75 196.07 52.75 196.07 52.75C195.704 52.75 195.387 52.8667 195.12 53.1C194.87 53.3333 194.745 53.6333 194.745 54H194.695V52.5H196.47ZM204.62 52.5V54H204.545C204.545 53.6333 204.412 53.3333 204.145 53.1C203.895 52.8667 203.587 52.75 203.22 52.75C203.22 52.75 203.154 52.75 203.02 52.75C202.887 52.75 202.82 52.75 202.82 52.75V52.5H204.62ZM208.07 52.5V52.75C208.07 52.75 208.004 52.75 207.87 52.75C207.737 52.75 207.67 52.75 207.67 52.75C207.304 52.75 206.987 52.8667 206.72 53.1C206.47 53.3333 206.345 53.6333 206.345 54H206.295V52.5H208.07ZM215.778 52.15C216.111 52.15 216.519 52.1667 217.003 52.2C217.503 52.2333 218.011 52.2833 218.528 52.35C219.061 52.4 219.519 52.4583 219.903 52.525C220.303 52.575 220.578 52.6333 220.728 52.7L220.428 56.075H220.178C220.178 55.2083 219.853 54.5167 219.203 54C218.569 53.4667 217.719 53.2 216.653 53.2C215.686 53.2 214.903 53.4333 214.303 53.9C213.719 54.3667 213.411 54.9333 213.378 55.6C213.361 56.1 213.519 56.5333 213.853 56.9C214.186 57.2667 214.611 57.6083 215.128 57.925L219.903 61.025C220.669 61.4583 221.244 62.025 221.628 62.725C222.028 63.425 222.203 64.2417 222.153 65.175C222.069 66.8083 221.444 68.0833 220.278 69C219.111 69.9 217.528 70.35 215.528 70.35C214.794 70.35 214.078 70.2833 213.378 70.15C212.694 70.0333 212.086 69.8667 211.553 69.65C211.019 69.4167 210.594 69.1417 210.278 68.825C210.144 68.4583 210.086 68.0167 210.103 67.5C210.119 66.9833 210.194 66.4583 210.328 65.925C210.478 65.3917 210.661 64.95 210.878 64.6H211.103C211.036 65.45 211.186 66.2417 211.553 66.975C211.936 67.6917 212.486 68.2667 213.203 68.7C213.936 69.1167 214.803 69.3167 215.803 69.3C216.903 69.2833 217.753 69.0083 218.353 68.475C218.953 67.925 219.253 67.2667 219.253 66.5C219.253 65.9833 219.094 65.5167 218.778 65.1C218.478 64.6833 217.978 64.2833 217.278 63.9L212.903 61C212.019 60.5 211.378 59.8583 210.978 59.075C210.578 58.2917 210.419 57.4417 210.503 56.525C210.586 55.6583 210.844 54.9 211.278 54.25C211.711 53.5833 212.303 53.0667 213.053 52.7C213.819 52.3333 214.728 52.15 215.778 52.15ZM220.753 52.4L220.703 52.925H217.753V52.4H220.753ZM239.681 52.5C241.647 52.5 243.347 52.8583 244.781 53.575C246.214 54.275 247.314 55.2833 248.081 56.6C248.864 57.9 249.256 59.45 249.256 61.25C249.256 63.05 248.864 64.6083 248.081 65.925C247.314 67.225 246.214 68.2333 244.781 68.95C243.347 69.65 241.647 70 239.681 70H233.731L233.706 68.95C234.189 68.95 234.689 68.95 235.206 68.95C235.739 68.95 236.256 68.95 236.756 68.95C237.256 68.95 237.697 68.95 238.081 68.95C238.481 68.95 238.797 68.95 239.031 68.95C239.264 68.95 239.381 68.95 239.381 68.95C240.581 68.95 241.614 68.6417 242.481 68.025C243.347 67.3917 244.014 66.5 244.481 65.35C244.947 64.2 245.181 62.8333 245.181 61.25C245.181 59.6667 244.947 58.3 244.481 57.15C244.014 56 243.347 55.1167 242.481 54.5C241.614 53.8667 240.581 53.55 239.381 53.55C239.381 53.55 239.256 53.55 239.006 53.55C238.772 53.55 238.447 53.55 238.031 53.55C237.614 53.55 237.147 53.55 236.631 53.55C236.114 53.55 235.581 53.55 235.031 53.55C234.481 53.55 233.956 53.55 233.456 53.55V52.5H239.681ZM236.281 52.5V70H232.531V52.5H236.281ZM232.606 68.175V70H230.606V69.75C230.606 69.75 230.656 69.75 230.756 69.75C230.872 69.75 230.931 69.75 230.931 69.75C231.364 69.75 231.731 69.6 232.031 69.3C232.347 68.9833 232.514 68.6083 232.531 68.175H232.606ZM232.606 54.325H232.531C232.531 53.8917 232.372 53.525 232.056 53.225C231.739 52.9083 231.364 52.75 230.931 52.75C230.931 52.75 230.881 52.75 230.781 52.75C230.681 52.75 230.631 52.75 230.631 52.75L230.606 52.5H232.606V54.325ZM258.303 52L266.478 69.85H261.978L256.778 56.825L258.303 52ZM252.928 68.175C252.795 68.5083 252.77 68.7917 252.853 69.025C252.936 69.2583 253.078 69.4417 253.278 69.575C253.478 69.6917 253.678 69.75 253.878 69.75H254.103V70H248.753V69.75C248.753 69.75 248.795 69.75 248.878 69.75C248.945 69.75 248.978 69.75 248.978 69.75C249.361 69.75 249.753 69.6333 250.153 69.4C250.57 69.15 250.911 68.7417 251.178 68.175H252.928ZM258.303 52L258.403 55.05L252.203 69.925H250.378L256.853 55.275C256.903 55.175 256.986 54.9917 257.103 54.725C257.236 54.4417 257.37 54.125 257.503 53.775C257.653 53.425 257.786 53.0917 257.903 52.775C258.02 52.4417 258.078 52.1833 258.078 52H258.303ZM260.928 64.05V65.1H253.578V64.05H260.928ZM261.303 68.175H265.678C265.961 68.7417 266.303 69.15 266.703 69.4C267.103 69.6333 267.495 69.75 267.878 69.75C267.878 69.75 267.911 69.75 267.978 69.75C268.045 69.75 268.078 69.75 268.078 69.75V70H260.128V69.75H260.353C260.686 69.75 260.978 69.6167 261.228 69.35C261.478 69.0667 261.503 68.675 261.303 68.175ZM277.617 52.15C279.617 52.15 281.351 52.525 282.817 53.275C284.301 54.0083 285.442 55.05 286.242 56.4C287.059 57.75 287.467 59.3667 287.467 61.25C287.467 63.1167 287.059 64.7333 286.242 66.1C285.442 67.45 284.301 68.5 282.817 69.25C281.351 69.9833 279.617 70.35 277.617 70.35C275.617 70.35 273.876 69.9833 272.392 69.25C270.926 68.5 269.792 67.45 268.992 66.1C268.192 64.75 267.792 63.1333 267.792 61.25C267.792 59.3833 268.192 57.775 268.992 56.425C269.792 55.0583 270.926 54.0083 272.392 53.275C273.876 52.525 275.617 52.15 277.617 52.15ZM277.617 69.3C278.801 69.3 279.817 68.975 280.667 68.325C281.517 67.6583 282.176 66.725 282.642 65.525C283.109 64.325 283.342 62.9 283.342 61.25C283.342 59.6 283.109 58.175 282.642 56.975C282.176 55.775 281.517 54.85 280.667 54.2C279.817 53.5333 278.801 53.2 277.617 53.2C276.451 53.2 275.434 53.5333 274.567 54.2C273.717 54.85 273.059 55.775 272.592 56.975C272.126 58.175 271.892 59.6 271.892 61.25C271.892 62.9 272.126 64.325 272.592 65.525C273.059 66.725 273.717 67.6583 274.567 68.325C275.434 68.975 276.451 69.3 277.617 69.3Z" fill="#1D2826"/>
<path d="M108.537 58.2245C108.51 58.7053 108.969 58.5312 109.052 58.6058C108.93 57.7934 108.416 58.2466 108.537 58.2245Z" fill="#1C3631"/>
<path d="M106.84 50.485L107.05 50.5928L106.393 49.5401L106.84 50.485Z" fill="#1C3631"/>
<path d="M105.187 43.4033C104.914 43.8509 105.116 44.4671 105.408 45.1468C105.715 45.821 106.044 46.5753 106.053 47.2384L105.925 47.4844L106.677 47.9182C106.564 47.5369 106.423 47.1307 106.276 46.7217C106.127 46.3128 105.986 45.8956 105.818 45.5005C105.497 44.7075 105.24 43.9642 105.185 43.4005L105.187 43.4033Z" fill="#1C3631"/>
<path d="M105.458 39.1149C105.265 39.4603 104.894 38.4076 105.713 40.0185C105.713 39.9218 105.718 39.8914 105.724 39.8333C105.66 39.6841 105.58 39.4769 105.461 39.1149H105.458Z" fill="#1C3631"/>
<path d="M105.724 39.8361C106.036 40.5656 105.773 39.2614 105.724 39.8361V39.8361Z" fill="#1C3631"/>
<path d="M104.137 36.5426L104.817 37.3798C104.894 37.109 104.546 36.2386 104.809 36.5011C104.225 35.581 104.159 35.8656 104.14 36.5453L104.137 36.5426Z" fill="#1C3631"/>
<path d="M103.2 35.9015C103.316 36.0424 103.432 36.1833 103.537 36.3325C103.568 36.2137 103.537 36.0728 103.2 35.9015Z" fill="#1C3631"/>
<path d="M104.228 37.2637L103.537 36.3325C103.485 36.5232 103.258 36.6447 103.833 36.7691C103.584 36.7829 103.877 36.8907 104.228 37.2637Z" fill="#1C3631"/>
<path d="M104.383 37.8992C104.424 38.1976 104.494 38.5264 104.46 38.6811C104.427 38.8359 104.325 38.7972 103.993 38.3827C104.422 39.2614 104.715 39.5957 104.823 39.4769C104.872 39.4189 104.872 39.2448 104.809 38.9768C104.742 38.7088 104.621 38.3357 104.383 37.8992V37.8992Z" fill="#1C3631"/>
<path d="M104.292 43.2983C104.297 43.558 104.306 43.815 104.297 44.0747L104.726 44.619C104.618 44.4836 104.571 44.1217 104.524 43.8094C104.471 43.4972 104.4 43.2402 104.292 43.2983Z" fill="#1C3631"/>
<path d="M101.392 30.6378C101.215 30.6737 101.202 31.1711 101.061 31.3479C101.257 31.5275 101.437 31.7154 101.619 31.9033C101.53 31.4971 101.21 30.8147 101.392 30.6378Z" fill="#1C3631"/>
<path d="M101.061 31.3479L100.201 30.5411C100.721 31.4142 100.936 31.4999 101.061 31.3479Z" fill="#1C3631"/>
<path d="M102.329 36.1253L102.675 36.4679L103.001 36.8216L103.659 37.54C103.167 36.9514 102.689 36.3657 102.161 35.813L102.329 36.1253V36.1253Z" fill="#1C3631"/>
<path d="M98.9129 26.9739C99.1478 27.0706 99.3773 27.1756 99.6094 27.2779L99.0318 26.9739L98.4375 26.6921L98.9129 26.9739V26.9739Z" fill="#1C3631"/>
<path d="M97.0305 24.7248C97.5972 24.8878 97.0084 23.8682 97.4977 24.1307C96.9227 23.5588 96.2732 23.2134 95.6734 22.9288C96.2151 23.3156 96.6408 23.8793 97.0278 24.7248H97.0305Z" fill="#1C3631"/>
<path d="M94.7032 22.4315C94.9823 22.6111 95.314 22.7603 95.6761 22.9288C95.3831 22.7271 95.068 22.553 94.7032 22.4315Z" fill="#1C3631"/>
<path d="M99.1866 28.886C99.2197 28.7561 99.3386 28.466 99.0539 27.8747L98.9323 28.5157C99.0096 28.629 99.0981 28.7561 99.1866 28.886Z" fill="#1C3631"/>
<path d="M98.9295 28.5379V28.5158C98.6614 28.1124 98.4734 27.8305 98.3932 27.7117C98.4624 27.8167 98.6227 28.0654 98.9295 28.5379Z" fill="#1C3631"/>
<path d="M99.2501 28.9772C99.228 28.944 99.2087 28.9164 99.1866 28.8832C99.1727 28.944 99.1755 28.9744 99.2501 28.9772Z" fill="#1C3631"/>
<path d="M101.329 33.329C100.768 32.8814 99.8472 31.8508 100.157 33.1964C100.671 33.4395 100.488 32.6659 101.329 33.329Z" fill="#1C3631"/>
<path d="M99.0843 29.7646C99.2861 30.11 99.4602 30.472 99.6481 30.8257C99.7394 30.7373 99.7753 30.4554 100.063 30.6627C99.7338 30.3615 99.4215 30.0548 99.0843 29.7646Z" fill="#1C3631"/>
<path d="M98.6227 29.3723L99.0843 29.7646L98.8604 29.3805L98.6227 29.3723Z" fill="#1C3631"/>
<path d="M95.7867 24.2689C95.5379 24.139 95.3168 23.9705 95.1012 23.7743C94.8801 23.5836 94.659 23.3764 94.4268 23.1526C94.6286 23.4372 94.8525 23.708 95.0625 23.987C95.2726 24.2661 95.491 24.5369 95.7149 24.7911C95.889 24.7662 96.287 24.8187 95.7867 24.2661V24.2689Z" fill="#1C3631"/>
<path d="M97.3374 26.3301C97.307 26.308 97.2738 26.2748 97.2434 26.2555C97.2572 26.3356 97.2821 26.3909 97.3374 26.3301Z" fill="#1C3631"/>
<path d="M89.8163 18.7952C89.8273 18.8394 89.8301 18.8836 89.8384 18.9278C89.8633 18.9112 89.8826 18.8946 89.9075 18.8808L89.8163 18.7952V18.7952Z" fill="#1C3631"/>
<path d="M95.7231 24.9375C95.9913 25.3879 96.2815 25.5454 96.5883 25.6753C96.2981 25.4128 96.0051 25.1226 95.7148 24.7911C95.6374 24.8021 95.5988 24.8242 95.7231 24.9348V24.9375Z" fill="#1C3631"/>
<path d="M93.2935 21.3069C93.4234 21.5638 93.5865 21.8374 93.7496 22.1303C93.6777 21.8291 93.4511 21.2848 93.2935 21.3069Z" fill="#1C3631"/>
<path d="M97.2379 26.0372C97.26 26.0538 97.2821 26.0648 97.3014 26.0842C97.2738 25.8852 97.2489 25.935 97.2379 26.0372Z" fill="#1C3631"/>
<path d="M97.2378 26.0372C97.0195 25.8687 96.7984 25.7775 96.5883 25.678C96.8122 25.9018 97.0333 26.1008 97.2461 26.2583C97.2323 26.1864 97.2323 26.1036 97.2406 26.0372H97.2378Z" fill="#1C3631"/>
<path d="M86.4579 19.9971C86.6265 19.8507 87.0245 19.8977 87.4613 20.116C87.6769 20.2265 87.9063 20.3729 88.1108 20.5691C88.3098 20.7708 88.4895 21.0084 88.6249 21.282C89.6698 21.7545 90.0927 20.2127 89.8384 18.9278C89.6864 19.0577 89.5869 19.1682 88.4923 18.646C88.578 18.8698 89.0119 19.3699 89.2607 19.8093C89.5178 20.2403 89.6228 20.5691 89.1253 20.4006C88.4785 19.9806 88.2546 19.765 88.144 19.5578C88.0362 19.3506 88.039 19.1572 87.8151 18.8366C87.8952 19.2483 87.3866 19.0991 86.8393 18.961C86.2948 18.8118 85.6784 18.7206 85.5789 19.1351C85.9963 19.3036 86.3916 19.5081 86.7951 19.7043C86.7371 19.8175 86.2423 19.6822 86.4579 19.9971V19.9971Z" fill="#1C3631"/>
<path d="M91.5189 20.453L91.9115 20.7515C91.5632 20.3038 91.378 19.9142 91.0408 19.171C90.2779 18.7924 90.0457 18.8062 89.9075 18.8808C90.499 19.4279 91.1099 19.9557 91.6848 20.5194L91.5189 20.453Z" fill="#1C3631"/>
<path d="M93.4953 22.2822C92.901 22.3264 91.9059 21.6909 92.0635 22.542C92.3261 22.7768 92.514 22.9233 92.6605 23.02C92.8098 23.1139 92.9203 23.1526 93.0254 23.1747C93.2354 23.2189 93.4096 23.1941 93.7772 23.4317C92.1049 21.8512 94.4268 23.7273 93.4676 22.332C93.8408 22.6055 94.1421 22.8846 94.424 23.1526C94.178 22.81 93.9486 22.4674 93.7496 22.1303C93.7579 22.1524 93.7606 22.1689 93.7661 22.1911L93.7744 22.1966C93.7744 22.1966 93.7689 22.1966 93.7661 22.1993C93.7938 22.3126 93.791 22.3624 93.7357 22.2574C93.7275 22.2574 93.7053 22.238 93.6943 22.2297C93.6362 22.2657 93.5644 22.2739 93.4925 22.2795C93.0972 21.7241 93.5063 22.1164 93.6943 22.2297C93.7164 22.2187 93.744 22.2159 93.7634 22.1993C93.7634 22.1966 93.7634 22.1911 93.7634 22.1883C93.4676 21.9313 93.1553 21.6937 92.8429 21.4588L91.9087 20.7487C92.2155 21.1411 92.6854 21.539 93.4925 22.2795L93.4953 22.2822Z" fill="#1C3631"/>
<path d="M98.6641 32.6963C98.6641 32.6162 98.6945 32.5996 98.7194 32.5775C98.5923 32.4863 98.5287 32.4614 98.6641 32.6963Z" fill="#1C3631"/>
<path d="M98.4126 31.7734C98.5563 31.8729 98.7913 31.8867 99.0345 32.3592C99.1617 32.8206 98.8383 32.478 98.7194 32.5802C98.9986 32.7764 99.6011 33.3511 99.2695 32.3758L99.1285 32.2763C98.783 31.4335 98.6392 30.1128 98.7802 30.2095C98.5701 30.6737 98.443 31.0439 98.4126 31.7762V31.7734Z" fill="#1C3631"/>
<path d="M96.0963 26.9684C95.654 26.5125 95.1731 26.0953 94.7032 25.6697L95.0155 26.6589L95.1731 26.4627C95.7812 27.3442 95.8586 26.985 96.0963 26.9656V26.9684Z" fill="#1C3631"/>
<path d="M89.7997 18.4692L90.3166 18.2509C89.8826 18.179 89.4265 18.1431 88.987 18.0934L89.7969 18.4692H89.7997Z" fill="#1C3631"/>
<path d="M87.7708 16.9494L88.108 16.6565C87.8786 16.5902 87.6382 16.535 87.406 16.4742L87.7708 16.9467V16.9494Z" fill="#1C3631"/>
<path d="M16.5789 82.3242L16.941 82.7027C16.7862 82.5148 16.6729 82.3988 16.5789 82.3242Z" fill="#1C3631"/>
<path d="M14.8375 79.0499L14.6026 79.0637C14.7878 79.1659 14.8983 79.188 14.8375 79.0499Z" fill="#1C3631"/>
<path d="M29.3186 14.4406C28.4037 14.54 27.2566 14.5262 27.6132 14.8799L28.0941 15.1396C28.5364 14.7528 28.9455 14.5566 29.3186 14.4406V14.4406Z" fill="#1C3631"/>
<path d="M8.51884 48.9488C8.57965 48.8853 8.64046 48.8189 8.70127 48.7526C8.58242 48.5316 8.47185 48.3243 8.37234 48.1392C8.41933 48.3851 8.4525 48.6587 8.51884 48.9488Z" fill="#1C3631"/>
<path d="M10.3708 49.8634L9.8898 50.7918C10.0363 50.5873 10.1939 50.2889 10.3708 49.8634Z" fill="#1C3631"/>
<path d="M30.6094 96.5844C30.861 96.5651 31.1125 96.5457 31.3696 96.5126C30.6094 96.0042 30.8085 96.4242 30.6094 96.5844Z" fill="#1C3631"/>
<path d="M64.0301 7.32833C63.3446 7.05202 62.7835 6.90281 62.2859 6.81439C63.1207 7.1957 63.7481 7.69305 64.0301 7.32833Z" fill="#1C3631"/>
<path d="M11.3935 83.515C11.6423 83.7748 11.8026 83.8549 11.8883 83.7941C11.6395 83.5261 11.4571 83.3934 11.3935 83.515Z" fill="#1C3631"/>
<path d="M60.2129 6.64314C60.3372 6.70117 60.4589 6.73432 60.5832 6.78406C61.114 6.7509 61.6502 6.70393 62.2859 6.81445C61.6723 6.53262 60.9398 6.3696 60.2129 6.64314V6.64314Z" fill="#1C3631"/>
<path d="M95.1786 84.5816C95.2256 84.5484 95.2698 84.5014 95.3168 84.4738C95.2726 84.4241 95.2284 84.4849 95.1786 84.5816Z" fill="#1C3631"/>
<path d="M107.49 65.4389C107.49 65.6738 107.443 66.0495 107.404 66.406C107.459 66.2374 107.493 65.9473 107.49 65.4389Z" fill="#1C3631"/>
<path d="M79.1607 11.5006C79.661 11.7079 79.263 11.4868 79.1607 11.5006V11.5006Z" fill="#1C3631"/>
<path d="M80.5925 14.3549C80.4681 14.3521 80.3603 14.3742 80.2968 14.4654C80.388 14.3825 80.4875 14.3521 80.5925 14.3549Z" fill="#1C3631"/>
<path d="M54.9638 9.53607C54.95 9.53607 54.9362 9.53607 54.9196 9.53607C55.0744 9.62725 55.0468 9.60791 54.9638 9.53607Z" fill="#1C3631"/>
<path d="M79.7881 12.0588C79.6361 11.9151 79.4509 11.7631 79.2381 11.6194C79.321 11.7023 79.4869 11.8405 79.7881 12.0588Z" fill="#1C3631"/>
<path d="M79.7937 11.8046C79.9512 11.9069 80.0756 11.9842 80.1917 12.0616C80.2884 12.0201 80.258 11.9483 79.7937 11.8046Z" fill="#1C3631"/>
<path d="M78.4641 11.2133C78.7488 11.3348 79.0004 11.473 79.2381 11.6194C79.1552 11.5476 79.1275 11.5034 79.1607 11.5006C79.0142 11.4426 78.8069 11.3597 78.4669 11.2133H78.4641Z" fill="#1C3631"/>
<path d="M62.9217 105.913C62.9548 105.924 62.9935 105.929 63.0322 105.943C63.4994 105.683 63.2865 105.741 62.9217 105.913Z" fill="#1C3631"/>
<path d="M22.2287 26.6728C22.2398 26.6534 22.2398 26.6368 22.2508 26.6175C22.2315 26.6313 22.2066 26.6451 22.19 26.6589L22.2315 26.6755L22.2287 26.6728Z" fill="#1C3631"/>
<path d="M21.3414 28.2063C21.3774 27.2613 21.7008 26.9684 22.1873 26.6562C21.7174 26.4821 21.2392 26.308 20.7665 26.1478C20.9489 26.8441 21.1397 27.5293 21.3387 28.2035L21.3414 28.2063Z" fill="#1C3631"/>
<path d="M21.9162 89.3949L21.4546 88.2041C22.1982 88.5218 22.6874 88.9086 22.9583 89.0634C23.2374 89.2126 23.2817 89.1435 23.149 88.5218C22.8422 88.7401 22.4939 88.6379 22.1208 88.3754C21.7504 88.1101 21.344 87.6929 20.982 87.2425C20.6088 86.7976 20.2356 86.3555 19.8736 86.0709C19.528 85.7725 19.1881 85.6344 18.8591 85.8167L18.6546 84.985C18.7734 85.1785 18.8674 85.1564 18.9863 85.3498C18.6822 83.6947 17.4329 85.0237 16.5069 83.2001C16.2332 82.5397 16.1945 81.9982 16.5788 82.3242L15.4786 81.1554C15.3764 80.9509 15.404 80.8404 15.4731 80.8321C15.5422 80.8266 15.6611 80.9206 15.7633 81.1223C15.3404 80.4508 14.9645 79.7518 14.5582 79.0665H14.6052C14.2348 78.8676 13.5991 78.3067 13.295 78.0221C13.2397 77.3755 13.5659 78.2376 13.6737 78.0165C13.3835 77.6601 13.0767 77.3092 12.7975 76.9417C12.8776 76.6129 13.1043 76.6737 13.3503 76.9168C13.6074 77.1572 13.8893 77.58 14.0524 78.0082C14.4836 77.1379 14.2873 76.9417 13.9446 76.5963C13.6267 76.2482 13.1485 75.7508 13.0905 74.3665C13.284 74.734 13.5078 75.0877 13.7124 75.4469C13.9695 74.9219 13.9197 74.4798 13.8506 73.9686C13.7787 73.4574 13.6461 72.891 13.682 72.1698C13.6018 72.3633 13.5023 73.1093 13.3254 73.6757C13.1485 74.2394 12.897 74.6152 12.4934 73.999C12.4741 73.579 12.3469 73.0678 11.8218 72.4213C12.3303 72.2555 12.0014 71.5758 11.714 70.6805L12.4133 70.559C12.1728 70.1058 11.9876 69.9152 11.7969 69.777C11.6062 69.6389 11.4127 69.5532 11.1888 69.299C11.0008 68.1744 11.4818 67.8401 11.8936 67.4919C11.7941 66.6077 11.631 66.9476 11.432 67.2598C11.233 67.5693 10.9981 67.8539 10.7438 66.8067C10.7438 66.4226 10.7134 66.0745 10.6581 65.7401C10.6166 65.403 10.553 65.0798 10.4646 64.7482C10.2904 64.085 10.003 63.397 9.74039 62.5046C9.90347 61.4242 10.1854 62.6565 10.3595 62.2586L9.72381 61.3606C9.71828 61.1285 9.89795 61.1949 9.98916 61.228C9.72934 60.4461 9.27603 61.2031 9.04661 59.9432C8.65963 59.7829 8.90564 59.117 9.18757 58.3185C9.33407 57.9178 9.4778 57.484 9.53032 57.053C9.58837 56.6219 9.53861 56.1881 9.35618 55.7875C9.5856 55.4172 9.77356 55.9975 10.0583 55.8953C9.84819 54.8259 9.77909 54.3562 9.67958 53.9362C9.5856 53.5135 9.48886 53.1432 9.20969 52.2121C9.42529 51.7313 9.63812 51.256 9.88965 50.7918C9.17099 51.7948 8.79784 50.3138 8.5159 48.9516C8.1925 49.2998 7.91057 49.6037 7.76407 49.8137L7.75854 48.761C7.75301 48.4073 7.78342 48.0619 7.79447 47.711C7.96308 47.4927 8.1538 47.7497 8.36664 48.1393C8.34176 47.9901 8.31412 47.8491 8.28648 47.7358C8.70662 47.0782 9.0162 47.548 9.28708 48.1337C9.09636 48.3437 8.89458 48.551 8.69557 48.7527C9.02726 49.3329 9.41423 49.8717 9.8399 49.8468C9.78185 49.7059 9.75698 49.449 9.76527 49.1727C9.85648 49.3219 9.94494 49.4213 10.0251 49.3771C10.1135 49.3274 9.98363 49.0925 9.88413 48.7388L10.7548 48.4681L10.4729 48.2968L11.0008 47.1059C11.1694 46.7107 11.385 46.3267 11.5757 45.9426C11.5094 45.4535 11.4154 44.9645 11.327 44.4588C11.2579 43.9615 11.1888 43.4448 11.1473 42.8977C11.1252 42.6241 11.1114 42.3395 11.1086 42.0466C11.1086 41.7538 11.1335 41.4581 11.1639 41.1431C11.1971 40.8309 11.2441 40.5076 11.3076 40.1677C11.3712 39.8306 11.4486 39.4742 11.573 39.1178C11.7969 40.0268 12.3746 39.6345 12.9882 39.9439C12.4907 40.165 12.3635 40.7342 12.2585 41.4001C12.2115 41.7344 12.159 42.0881 12.0982 42.4528C12.0429 42.8175 11.9572 43.185 11.8024 43.5304C12.1286 42.8065 12.3801 43.0828 12.4243 43.3066C12.4824 42.3865 12.6344 41.4885 12.7533 40.5629C13.002 40.6983 13.1513 40.6043 13.295 40.4081C13.4415 40.212 13.6074 39.9218 13.8534 39.651C13.237 39.6676 13.2757 39.1371 13.4885 38.4519C13.541 38.2806 13.6046 38.0982 13.6737 37.9158C13.7511 37.7362 13.8285 37.5539 13.9031 37.3743C14.0524 37.0151 14.1851 36.6697 14.2348 36.3851C14.5941 36.4984 14.8125 36.9073 14.1242 38.054C14.8346 37.5843 14.7572 37.0233 14.6715 36.4376C14.5776 35.8518 14.514 35.266 15.1857 34.8046C15.0281 35.0947 14.8899 35.2218 14.9894 35.4263C15.0364 35.0118 15.3543 34.426 15.6638 34.0143C15.9789 33.6054 16.3079 33.3899 16.3245 33.6579L16.1531 33.937C16.4737 33.4976 16.8579 32.9312 17.2449 32.315C17.6429 31.7072 18.0741 31.0717 18.4307 30.4472C18.7956 29.831 19.1383 29.2674 19.3318 28.7811C19.528 28.2975 19.5999 27.9134 19.4783 27.7034C19.5833 27.7642 20.161 28.6457 20.2329 28.8695C20.2439 27.2227 20.313 25.5123 20.5148 23.8047C20.6807 24.2137 21.3496 24.5038 21.8499 24.9044C22.3502 25.3051 22.6902 25.8135 22.2396 26.612C22.458 26.4656 22.7012 26.3026 22.9583 26.0511C23.2153 25.8024 23.4724 25.4571 23.7737 24.9901C23.4392 25.1448 22.3142 24.7773 22.6128 24.3822C23.4171 24.2385 23.6631 24.1667 23.9312 24.0562C24.0639 24.0009 24.2021 23.9401 24.4122 23.8489C24.6223 23.7633 24.9014 23.65 25.3382 23.5339C24.824 23.7495 24.4177 22.4259 25.0977 21.8927C25.1226 22.122 25.9656 22.7962 25.8219 23.0946L26.2061 21.9396C26.3388 21.5528 26.4908 21.1853 26.6373 20.8013C26.3609 21.3014 27.226 21.6772 27.8037 21.6716C27.6434 21.6412 28 21.3704 28.4367 21.0527C28.8817 20.746 29.429 20.4144 29.6142 20.2017L28.7297 20.4752C29.7414 19.8811 29.9459 19.1655 30.2002 18.483C30.3218 18.1376 30.4462 17.784 30.6673 17.4413C30.8912 17.1015 31.2063 16.7506 31.7398 16.4743C31.6126 16.8445 31.9443 18.1791 33.0472 17.7259C33.0859 17.5215 33.1384 17.1761 33.2296 16.7506C33.3209 16.325 33.4425 15.8084 33.6332 15.2999C33.8212 14.7832 34.0644 14.2444 34.374 13.7416C34.678 13.2304 35.065 12.7911 35.5183 12.454L36.0545 12.6115C36.5106 12.255 36.9639 11.8875 37.4421 11.5615C37.1242 12.1832 36.5161 13.2939 35.8804 14.3688C35.557 14.8965 35.253 15.4768 34.9572 15.9741C34.6642 16.4798 34.385 16.9219 34.1473 17.2728C35.0567 17.1236 34.5647 17.538 35.7035 16.9163C36.2618 17.0131 35.3138 17.6983 34.9876 17.8862L36.3641 17.3059L36.7069 17.1595L37.0579 17.0324L37.7572 16.7782C37.5416 16.466 37.9866 16.0626 38.4482 15.6647C38.9181 15.2917 39.4074 14.9352 39.2388 14.6672C38.2935 15.2889 37.4117 16.0101 36.5272 16.6787C36.3061 16.372 36.5079 15.7034 37.0441 15.0015C37.315 14.6561 37.6577 14.2804 38.0834 13.9847C38.5063 13.6863 38.9955 13.4293 39.5262 13.2553C40.1509 13.3271 39.6036 14.6451 39.7418 14.8578C39.8275 14.6948 40.2532 14.3715 40.7093 14.1505C41.1626 13.9267 41.6269 13.7554 41.7513 13.8106L41.0161 14.4793C41.6269 14.4213 42.0056 14.0317 42.4424 13.6808C42.8763 13.3354 43.3821 13.0646 44.1699 13.2028C44.4187 13.1613 44.8333 13.2774 45.1871 13.3824C45.5409 13.4846 45.8256 13.5399 45.8145 13.316C44.8416 12.6695 43.993 10.1744 44.4104 9.42561C44.5099 9.43114 45.2451 9.46982 46.0274 9.54443C46.2236 9.56377 46.4226 9.58035 46.6161 9.60798C46.8124 9.63837 47.0003 9.67429 47.1745 9.70745C47.5227 9.77653 47.8157 9.85389 47.9788 9.93126C48.4598 10.1827 48.2055 10.6303 47.9484 11.0669C47.6886 11.5035 47.426 11.929 47.8268 12.1473C47.8185 11.9428 48.2248 11.6167 48.399 11.5035C48.949 11.5808 48.2912 12.1611 49.3996 11.8709C49.477 11.0973 51.7269 11.6388 49.8446 11.1719C50.3919 10.995 50.6959 10.995 51.0276 11.0144C51.3593 11.0365 51.7131 11.0614 52.3737 11.0061C52.1415 10.7795 52.3986 10.3457 52.8713 9.9285C53.3439 9.51956 54.0294 9.09404 54.6154 8.98628C54.5546 9.1797 54.8282 9.42285 54.9554 9.53337C55.5497 9.53337 56.0776 9.55548 56.5641 9.58587C57.0533 9.63285 57.5011 9.69916 57.9461 9.75442C58.3884 9.80968 58.8251 9.86494 59.2895 9.92297C59.7511 9.99205 60.2403 10.0528 60.7876 10.0943C60.9783 10.2877 62.0038 10.5972 61.5256 10.879C61.849 10.7823 62.1614 10.5668 62.8331 10.6331C64.0354 11.4427 61.3404 10.5447 62.225 11.4482C62.3549 11.0337 64.0133 11.0365 65.0001 10.9674C64.9559 10.7878 64.7983 10.6662 64.5717 10.5833C64.3422 10.5032 64.0465 10.4562 63.7203 10.4673C63.0708 10.4728 62.33 10.5833 61.8407 10.6607C61.8877 10.1965 62.3521 9.77376 63.1233 9.45324C63.5075 9.29851 63.9691 9.1493 64.4832 9.06641C64.9973 8.98905 65.5667 8.94484 66.1748 8.94484C67.134 8.98905 67.2971 9.21286 67.2749 9.36759C67.2501 9.52785 67.0345 9.66048 67.2058 9.63008C68.0572 9.86771 68.6874 9.93126 69.2043 9.91192C69.7156 9.91468 70.1109 9.83455 70.4868 9.76271C70.8627 9.69087 71.2221 9.63008 71.6533 9.67982C72.0845 9.72955 72.5792 9.92573 73.2343 10.3209C74.1548 11.2603 72.8943 11.4537 73.0021 11.9428C72.2503 11.8102 71.7362 11.5283 71.2746 11.2575C70.8102 11.0006 70.4067 10.7353 69.9064 10.6055L71.0452 11.2216C70.5227 11.2796 69.5194 11.1498 69.0357 10.8348C69.2319 11.0282 69.6825 11.2327 70.2795 11.4454C70.578 11.5532 70.9153 11.661 71.2773 11.777C71.6339 11.9041 72.0154 12.0395 72.4106 12.1804C72.8031 12.3213 73.215 12.4567 73.6185 12.6142C74.0193 12.78 74.4174 12.9513 74.8043 13.1226C75.1885 13.2995 75.57 13.4597 75.9072 13.6587C76.2472 13.8521 76.5623 14.0455 76.8387 14.2389C77.3501 14.25 78.1876 14.4019 77.936 14.0289L77.1262 13.7554C76.6065 12.9955 78.8731 13.8189 77.9803 13.1696C78.5856 13.2442 79.2186 13.3547 79.893 13.5316C80.2275 13.6255 80.5702 13.7416 80.9102 13.8991C81.2419 14.0704 81.5736 14.2804 81.8997 14.5456L81.8279 15.2861C81.8997 15.0982 81.1009 14.4019 80.6006 14.3577C80.971 14.3936 81.4022 14.9076 81.8721 15.358C82.1071 15.5845 82.3531 15.789 82.6046 15.9216C82.8534 16.0626 83.1132 16.1206 83.3868 16.0349C83.1464 15.6978 82.9114 15.3497 82.6543 15.0292C82.9556 15.0982 83.2735 15.1728 83.608 15.2557C83.9424 15.3359 84.2907 15.4243 84.639 15.5293C84.9845 15.6398 85.341 15.7586 85.6644 15.9355C85.9878 16.1123 86.2919 16.3223 86.5655 16.582C86.3969 15.6426 86.2504 16.4466 85.8192 15.1894C85.9353 15.8415 85.1365 15.3165 84.3957 14.8357C84.0226 14.5954 83.6688 14.3633 83.4449 14.3052C83.2182 14.25 83.1408 14.3494 83.3205 14.7556C83.0911 14.0925 82.729 13.7775 82.3227 13.4514C81.9163 13.1254 81.4713 12.7855 81.0069 12.1252C80.9434 12.3434 81.2585 12.7358 80.1888 12.0616C80.1086 12.0948 79.9511 12.1058 79.8543 12.1113C79.8239 12.0892 79.8129 12.0782 79.7852 12.0588C79.8046 12.0782 79.8156 12.0948 79.835 12.1141C79.7714 12.1196 79.7631 12.1224 79.8543 12.1334C80.0782 12.3573 80.2385 12.5728 80.2689 12.7275C79.8737 12.8187 79.249 12.6225 78.6188 12.4291C77.9858 12.244 77.3611 12.0312 77.0073 12.0174C76.3826 11.6195 77.3887 11.9096 77.1206 11.5256L76.5899 11.5035H76.0537C76.1587 11.0116 74.5307 10.0169 76.2693 10.3899L74.8043 9.78758C74.4201 9.48364 73.9198 9.22943 73.4223 9.01668C72.922 8.81221 72.4217 8.65747 72.0098 8.64919C71.316 8.33972 70.0418 8.66024 70.7715 8.46406C70.3597 8.40327 69.9478 8.33143 69.536 8.27893L68.2949 8.14907L68.3004 8.02196C67.1202 7.69039 65.8349 7.70421 64.5495 7.57158C63.2477 7.51079 61.943 7.30909 60.5803 6.7841C60.1657 6.81726 59.7456 6.85041 59.2563 6.85594C58.7698 6.87805 58.2143 6.86699 57.5315 6.78134L57.2689 6.34477C56.7382 6.39174 55.9422 6.31714 55.2152 6.26188C54.491 6.21214 53.8387 6.18727 53.6231 6.44148C53.3218 6.17346 52.8409 6.04912 52.2659 6.0132C51.9785 5.99386 51.6634 5.99662 51.3372 6.01596C51.011 6.04083 50.6711 6.09609 50.3255 6.15135C49.6373 6.27293 48.9269 6.40003 48.2829 6.552C47.6361 6.70397 47.0446 6.82831 46.5691 6.86147L46.6051 7.42514C46.4475 7.45 46.29 7.47764 46.1324 7.50803C45.9776 7.54671 45.8228 7.5854 45.668 7.62961C45.3585 7.71526 45.0461 7.81197 44.731 7.91697C44.4131 8.02196 44.0897 8.13801 43.7498 8.26512C43.4153 8.39774 43.0698 8.558 42.7022 8.71826L42.9288 9.16865C42.3345 9.55548 41.4722 9.67982 40.5185 9.88152C40.0404 9.97271 39.5318 10.0639 39.0149 10.1772C38.5063 10.307 37.9922 10.4728 37.4974 10.6801C37.5637 10.4507 38.0917 10.296 38.4925 10.2601C37.7959 10.2324 37.1408 10.3955 36.5217 10.6524C35.9108 10.926 35.3414 11.3156 34.7858 11.6969C34.2247 12.0671 33.7078 12.5009 33.1661 12.8297C32.6243 13.1641 32.0632 13.4045 31.4634 13.526C31.0488 13.9737 30.6563 14.1284 30.2389 14.2223C30.2859 14.1947 30.3218 14.1615 30.3495 14.1284C30.2942 14.1533 30.2168 14.1975 30.1394 14.2417C29.8713 14.2942 29.5949 14.3494 29.3129 14.4379C29.5838 14.4102 29.8298 14.3633 30.0316 14.3052C29.6501 14.5373 29.1139 14.9711 28.6219 15.4298L28.0912 15.1369C28.0497 15.1728 28.011 15.1949 27.9696 15.2336C27.3062 15.427 27.6683 15.7282 28.1824 15.8719C27.9475 16.1206 27.765 16.3914 27.6434 16.6318C27.1846 16.43 26.8695 16.7423 26.535 17.0628C26.3664 17.2231 26.195 17.3833 25.9932 17.4855C25.7942 17.5933 25.5703 17.643 25.2884 17.574C25.2469 17.889 24.6444 18.472 24.0916 19.0909C23.5636 19.7375 23.0937 20.4199 23.2761 20.8841C23.1794 20.8068 22.9942 20.8897 23.254 20.652C22.6238 21.0361 22.0295 21.4727 21.7393 22.1137L21.0455 21.8402L20.7857 22.7161L20.5618 23.6086C19.6054 24.0147 19.1411 24.1529 19.4341 23.0919C19.1742 23.6555 18.9752 24.0313 18.8177 24.3187C18.6684 24.6116 18.5468 24.8077 18.4362 24.9929C18.2151 25.3659 18.0078 25.703 17.6844 26.706L17.4052 26.3523C16.9768 26.9215 16.7501 28.1621 16.2001 28.2754C15.7965 28.4633 15.3156 28.9634 14.7572 29.6376C14.619 29.8089 14.4725 29.9858 14.3315 30.1792C14.1961 30.3781 14.0551 30.5826 13.9086 30.7953C13.6239 31.2264 13.3227 31.6851 13.0075 32.1575C11.8245 34.1028 10.6138 36.3768 9.45846 38.1092C10.2158 38.007 9.8786 38.3773 9.48057 38.8525C9.09636 39.3333 8.62923 39.9246 9.06595 40.1788C8.69557 40.2893 8.32241 40.7646 8.31965 40.0489C8.25884 40.3087 8.18697 40.5435 8.10958 40.7646C8.03771 40.9856 7.96861 41.1956 7.89122 41.389C7.73919 41.7786 7.57887 42.1212 7.43791 42.4501C7.14768 43.1021 6.99565 43.7211 7.20296 44.5334C6.84363 44.6826 6.89614 43.978 6.66396 44.1328C6.68054 44.3151 6.73583 44.8512 6.50088 45.0142C6.26593 45.1745 6.3378 44.6495 6.30186 44.2875C6.16642 44.8153 6.11667 45.238 6.13325 45.5834C6.16366 45.9315 6.25764 46.194 6.39031 46.404C6.65567 46.8213 7.07857 47.0119 7.49042 47.186C7.16702 47.6585 6.98736 48.0315 6.94313 48.3935C6.91273 48.7582 7.01224 49.1119 7.22783 49.5401C6.87956 49.8496 6.47047 50.416 6.60039 49.1008C6.55616 49.2804 6.46218 49.6451 6.34885 50.0928C6.29634 50.3166 6.23829 50.5625 6.17748 50.8167C6.13049 51.0737 6.08903 51.3362 6.0531 51.5986C5.90936 52.6403 5.86237 53.6102 6.22723 53.682C6.03098 53.8948 6.09732 54.7071 6.16366 54.9033C6.11943 55.315 6.0835 55.6328 6.05586 55.9008C6.02822 56.1716 6.01993 56.3954 6.00611 56.6164C5.98123 57.0613 5.97017 57.5034 5.98399 58.3157L6.11114 57.8681C6.93208 58.5119 6.2991 59.2054 6.43454 60.5068L6.34609 60.4737C6.19959 61.2252 6.1913 61.6839 6.19959 61.9906C6.21065 62.2973 6.25764 62.4548 6.2991 62.6123C6.34333 62.7671 6.38202 62.9218 6.38202 63.2257C6.38202 63.3777 6.37097 63.5656 6.34885 63.8115C6.33503 64.0574 6.31016 64.3586 6.27146 64.7344L6.77729 64.5133C7.36051 64.5824 7.27482 65.2373 7.12556 66.0938C7.00394 66.9448 6.85192 68.0086 7.21954 68.8099C7.27759 68.5889 7.34393 68.3651 7.40474 68.144C7.66456 68.5668 7.43791 69.2686 7.14215 70.0146C6.85192 70.7551 6.48153 71.5426 6.55616 72.0234C6.52023 72.25 6.30463 71.7471 6.16642 71.4763C6.19683 74.0985 6.92378 71.6172 7.58717 73.3663C7.33011 73.8056 6.53681 73.2115 6.84915 74.4494C6.80769 74.7975 7.39092 75.585 7.97414 76.4941C8.28648 76.9417 8.59606 77.4225 8.82824 77.906C8.94433 78.1492 9.03831 78.3923 9.10465 78.6327C9.17928 78.8703 9.22627 79.108 9.2318 79.3401C9.3396 78.8759 9.45293 78.4282 10.0057 79.1245C10.1661 79.4147 10.2739 79.7904 10.3706 80.2021C10.4176 80.4094 10.4646 80.6249 10.5116 80.8432C10.5669 81.0587 10.6221 81.277 10.6857 81.4925C10.94 82.3491 11.2551 83.1752 11.9655 83.4626C11.9793 83.6477 11.9461 83.7389 11.8881 83.7803C12.065 83.971 12.2778 84.2335 12.5072 84.5209C12.7367 84.8082 12.9799 85.126 13.248 85.4133C13.7732 85.9936 14.2956 86.5075 14.6632 86.6208C14.3979 87.0739 14.5637 87.5796 14.901 88.1156C15.2437 88.6461 15.7689 89.2015 16.3217 89.6878C16.869 90.1797 17.3776 90.6522 17.701 91.0445C18.0244 91.4341 18.1294 91.7795 17.806 92.0503C18.1598 92.4288 18.5026 92.8212 18.8674 93.1887L19.9731 94.2829L19.7934 94.3436C19.9565 94.5343 20.1085 94.7028 20.2578 94.8548C20.407 95.0068 20.5563 95.1311 20.6945 95.2444C20.9737 95.471 21.2252 95.6368 21.4574 95.7639C21.9245 96.0153 22.3087 96.1148 22.704 96.1921C22.9721 96.5762 22.6155 96.4767 22.5271 96.5154C23.5083 97.5875 24.0639 98.1788 24.7052 98.5601C25.0203 98.7563 25.3492 98.9165 25.7445 99.0768C26.137 99.2426 26.6179 99.3863 27.2316 99.5631L27.1182 100.154C27.2979 100.185 27.5688 100.395 27.9198 100.713C28.2681 101.03 28.7214 101.417 29.23 101.854C29.4871 102.069 29.7579 102.293 30.0454 102.511C30.3412 102.719 30.648 102.923 30.9686 103.116C31.2892 103.31 31.6182 103.489 31.9554 103.65C32.2898 103.813 32.6492 103.921 33.003 104.017C32.9505 104.059 32.8482 104.128 32.6077 104.092C34.1777 104.556 35.7422 105.719 37.2348 106.54C37.6052 106.744 37.9673 106.932 38.3156 107.087C38.4897 107.164 38.6583 107.236 38.8269 107.294C38.9955 107.347 39.1614 107.388 39.3189 107.421C39.9574 107.546 40.513 107.479 40.9442 107.098L41.4804 107.151L42.0222 107.178L43.0974 107.228C41.8177 106.783 41.9835 106.606 42.3346 106.457C42.6884 106.311 43.2274 106.192 42.7519 105.885C43.266 105.971 43.8686 106.297 44.1948 106.576C44.5237 106.836 44.5652 107.068 43.9267 106.952L43.7581 106.8C43.02 107.72 46.9147 107.944 46.7101 108.59C49.3443 109.096 51.9646 109.496 54.5739 109.762C55.229 109.814 55.8786 109.867 56.5282 109.919C57.1777 109.95 57.8273 109.958 58.4741 109.974C58.7975 109.977 59.1209 109.994 59.4415 109.983C59.7621 109.969 60.0828 109.958 60.4034 109.944C60.724 109.927 61.0419 109.911 61.3626 109.897C61.6804 109.88 61.9983 109.861 62.3134 109.82C62.0895 109.574 61.8711 109.336 61.6528 109.079C62.2332 109.041 62.8109 108.969 63.3914 108.916C63.8696 109.046 64.0935 109.463 62.8358 109.59C63.1924 109.775 63.7093 109.612 64.1294 109.383C64.5523 109.162 64.8702 108.825 64.8757 108.742C66.1057 108.69 65.9178 108.963 65.5032 109.237C65.0885 109.51 64.45 109.787 64.826 109.729L65.8349 109.488L65.5888 109.436C65.9731 109.201 66.1638 108.994 66.4457 108.817C66.5867 108.728 66.7498 108.651 66.9709 108.574C67.1893 108.491 67.4657 108.411 67.8333 108.336C68.798 108.281 68.4248 108.712 68.798 108.656C68.809 108.712 68.9417 108.709 69.3701 108.549C70.0971 108.383 70.8157 108.192 71.5427 108.013L70.5089 107.642C70.9374 107.358 71.4349 107.225 71.6809 107.109C71.9241 106.985 71.9159 106.902 71.3243 106.692C72.1895 107.007 74.1907 106.468 76.0288 105.711C76.4959 105.54 76.9354 105.319 77.3611 105.125C77.784 104.929 78.182 104.744 78.5386 104.581C79.2462 104.241 79.7742 103.976 80.0229 103.954C80.2745 103.694 80.5371 103.462 80.8135 103.249C81.0843 103.025 81.3635 102.813 81.662 102.616C82.2563 102.216 82.9225 101.87 83.6328 101.431C83.2127 101.541 82.6322 101.061 83.8678 100.375C83.9618 100.757 84.1663 100.892 84.4482 100.884C84.7302 100.876 85.095 100.732 85.4765 100.516C85.8635 100.309 86.2864 100.058 86.712 99.8726C86.9249 99.7786 87.1405 99.7013 87.3505 99.6515C87.5551 99.5935 87.7596 99.5659 87.9559 99.5825C87.3284 99.6267 88.1162 98.9525 88.8155 98.3004C89.1721 97.9799 89.4789 97.6317 89.5922 97.4024C89.7055 97.1703 89.6143 97.0432 89.1444 97.1178C90.1257 96.427 89.5563 97.4936 90.4795 97.1565C90.7034 96.8636 90.9577 96.5956 91.212 96.311C91.4663 96.0291 91.7371 95.7556 92.0218 95.4876C92.3065 95.2168 92.6106 94.957 92.9147 94.6863C93.2132 94.41 93.52 94.1336 93.8351 93.8546C94.1474 93.5727 94.4764 93.2992 94.7887 93.0008C95.0955 92.6996 95.4079 92.3957 95.7147 92.0807C96.3421 91.4645 96.9032 90.771 97.4174 90.036C97.2957 89.8757 96.6959 90.1576 96.9364 89.3839C97.5887 89.0993 98.1968 88.7705 98.8326 88.4444C98.9984 88.1267 98.863 87.8338 98.8492 87.5381C98.8409 87.3889 98.863 87.2425 98.968 87.0878C99.0675 86.9303 99.2444 86.7645 99.5595 86.5876C99.3246 86.6512 98.9735 86.7396 99.1753 86.3141C101.472 83.6671 102.962 80.3652 104.162 77.0191C105.372 73.6536 106.309 70.2606 107.758 66.873C107.216 67.7655 107.293 67.1217 107.407 66.3978C107.235 66.8537 106.934 66.3149 106.658 66.3674C106.846 65.9032 107.025 65.4307 107.211 64.9582C107.387 64.4829 107.592 64.0104 107.744 63.5269C107.401 63.223 107.448 62.4327 107.498 61.6729C107.528 61.2916 107.534 60.9185 107.495 60.6201C107.457 60.3217 107.374 60.0979 107.202 60.015L107.305 60.9489C106.906 60.3134 106.445 60.7334 105.931 61.2556C105.403 61.7806 104.836 62.4051 104.314 62.2752C104.524 62.6178 104.524 63.0047 104.427 63.4164C104.319 63.8281 104.093 64.2619 103.888 64.7206C103.783 64.9499 103.684 65.1848 103.598 65.4251C103.515 65.6683 103.443 65.9142 103.385 66.1657C103.28 66.6741 103.291 67.2101 103.526 67.8014C103.23 68.2242 103.261 67.34 102.976 67.5417C103.344 68.1578 103.269 68.821 102.802 69.9511L102.724 69.7908C102.683 69.9981 102.641 70.1998 102.6 70.3932C102.553 70.5866 102.498 70.769 102.448 70.9458C102.343 71.3022 102.241 71.6366 102.133 71.9543C101.931 72.5954 101.674 73.1618 101.409 73.7365C101.273 74.0211 101.138 74.3112 100.997 74.6097C100.859 74.9081 100.682 75.2065 100.516 75.527C100.173 76.1653 99.8194 76.8809 99.3495 77.6988L99.9437 77.6573C99.5429 78.373 99.3246 78.4586 99.0509 78.7488C99.3826 79.9424 100.032 76.6847 100.483 77.8176C100.126 77.9613 99.8 78.3564 99.4877 78.8759C99.1753 79.3953 98.827 80.0115 98.5036 80.6304C98.4207 80.7852 98.3378 80.9371 98.2576 81.0891C98.1719 81.2383 98.0807 81.3792 97.9923 81.5174C97.8154 81.7937 97.6357 82.0507 97.4588 82.2689C97.105 82.7055 96.7567 82.9956 96.3946 82.9846C95.7174 84.0263 97.1078 82.9956 96.4278 84.0428L95.9745 84.1451L96.1569 84.6424C95.9109 84.974 95.6317 85.1591 95.3885 85.2448C95.148 85.3332 94.9435 85.3249 94.8191 85.2558C94.9601 85.1149 95.0789 84.7557 95.1812 84.5734C94.7168 84.8911 94.3188 85.5073 93.9926 86.0792C93.6665 86.6484 93.3735 87.143 93.2187 87.248C93.5145 86.9772 93.8185 86.712 94.1115 86.4329C93.8876 86.7921 93.6361 87.1486 93.3763 87.5105C93.1109 87.867 92.8594 88.2455 92.5553 88.5881C91.9583 89.2817 91.3668 90.0111 90.7117 90.6798C90.391 91.0196 90.0759 91.3623 89.7636 91.7049C89.4374 92.0337 89.1196 92.3625 88.8127 92.6968C88.2129 93.3766 87.5965 94.0038 87.0824 94.6752L87.4335 94.7001C87.2289 94.9515 87.052 95.1587 86.8889 95.3301C86.7203 95.4931 86.5683 95.6257 86.4273 95.7335C86.1482 95.9518 85.916 96.0816 85.6727 96.2087C85.4267 96.3331 85.1835 96.4712 84.8518 96.6674C84.5201 96.8636 84.1193 97.1426 83.5831 97.5903L83.6328 97.4825C83.3288 98.0185 82.7566 98.5159 82.0988 98.9083C82.5327 98.2866 80.6918 99.1431 81.2944 98.375C81.1673 98.4938 81.0539 98.5988 80.9489 98.6983C80.8411 98.7922 80.7444 98.8751 80.6587 98.9497C80.4845 99.1017 80.3519 99.2233 80.2496 99.3255C80.0423 99.53 79.9511 99.6543 79.8903 99.7731C79.8294 99.8947 79.8018 100.011 79.7189 100.207C79.6332 100.4 79.4978 100.679 79.1909 101.086L78.6243 100.917C78.4336 101.224 78.3451 101.428 78.1572 101.646C77.9664 101.862 77.679 102.113 77.0515 102.445C77.9526 101.652 75.9735 102.246 76.9465 101.298C76.1891 101.395 75.5949 101.602 75.0946 101.854C74.5887 102.091 74.1686 102.354 73.7899 102.6C73.4085 102.837 73.0768 103.069 72.7174 103.152C72.3609 103.241 71.996 103.224 71.5786 103.02C71.1281 103.771 71.7694 103.719 72.4576 103.536C73.1486 103.368 73.8452 102.992 73.5384 103.252C73.8977 103.31 73.7153 103.608 73.3228 103.926C72.9247 104.227 72.3084 104.526 71.8495 104.622C71.3934 104.766 70.9014 104.553 70.2436 104.36C69.9147 104.269 69.5498 104.189 69.1269 104.172C68.9141 104.164 68.6902 104.172 68.4469 104.202C68.2009 104.222 67.9383 104.26 67.6564 104.329C67.883 104.282 67.8775 104.197 68.1042 104.15C67.6453 104.106 67.2556 104.296 66.8327 104.473C66.6226 104.562 66.4015 104.644 66.1638 104.691C65.9233 104.727 65.6662 104.727 65.3815 104.658C64.9144 105.437 64.0133 104.863 63.9801 105.758L66.0698 105.18C65.4921 105.399 64.9642 105.813 64.3091 106.156C63.6567 106.496 62.8635 106.706 61.8214 106.595C61.9624 106.399 62.5345 106.092 62.927 105.913C62.6175 105.822 62.341 105.899 62.0619 105.979C61.7827 106.056 61.498 106.139 61.1801 106.023C61.2022 105.799 61.3764 105.675 61.639 105.57C61.9016 105.468 62.2581 105.404 62.6479 105.343C63.0376 105.283 63.466 105.227 63.8668 105.128C64.2648 105.012 64.6408 104.863 64.9282 104.642C64.5882 104.509 64.0216 104.788 63.5849 104.932C63.1482 105.073 62.8607 105.125 63.1178 104.614C62.7418 105.269 62.1614 105.305 61.509 105.313C60.8484 105.294 60.1215 105.236 59.3614 105.755L59.436 105.225C59.1955 105.335 58.6924 105.595 58.2308 105.589L59.0269 104.89C58.4105 105.194 57.7941 105.084 57.1915 104.94C56.589 104.81 56.0057 104.578 55.4004 104.727C56.6581 104.755 56.799 104.91 56.7603 105.114C56.7216 105.324 56.4922 105.587 57.0368 105.763C56.6415 105.868 56.3153 105.893 56.0389 105.902C55.7653 105.904 55.5441 105.877 55.3562 105.827C54.983 105.725 54.7508 105.534 54.5104 105.33C54.2699 105.131 54.0211 104.89 53.6203 104.711C53.2168 104.528 52.6584 104.415 51.7905 104.396C52.2604 104.374 53.5236 104.846 52.769 105.037C52.4401 104.954 52.0614 104.863 51.7214 104.719C51.3814 104.575 51.0774 104.418 50.8949 104.255C48.598 104.075 51.1769 104.835 50.1569 105.031C49.4604 104.313 48.9932 105.114 47.9291 105.139L48.0203 104.614C47.7024 104.515 47.4481 104.454 47.2463 104.423C47.0446 104.385 46.8925 104.376 46.7737 104.39C46.5332 104.418 46.4254 104.534 46.3259 104.65C46.1269 104.879 45.9583 105.109 44.8222 104.633L45.9914 104.144C45.5741 104.108 45.1484 104.092 44.731 104.039L45.129 103.52C44.4242 103.561 43.9764 103.514 43.5507 103.401C43.3379 103.343 43.1334 103.268 42.904 103.174C42.6745 103.081 42.4285 102.945 42.13 102.801C42.3069 103.257 41.6656 103.666 40.5241 103.299C39.8717 102.724 41.1156 102.995 39.5262 102.453C39.764 102.368 40.0127 102.265 40.267 102.274C40.3942 102.276 40.5213 102.312 40.6485 102.387C40.7784 102.456 40.9083 102.569 41.0382 102.743C41.1681 102.603 41.4998 102.547 41.6269 102.409C40.9304 101.818 39.6479 101.583 39.0867 101.373C39.2941 101.475 39.5373 101.602 39.6396 101.724C39.225 101.691 38.802 101.663 38.3819 101.622L37.1298 101.461C36.8644 101.121 37.2099 101.102 37.5444 101.08C37.3094 101.005 37.0911 100.989 36.8451 100.961C36.5991 100.931 36.3227 100.895 35.9937 100.746C36.3503 100.439 36.5023 100.036 37.5002 100.254C36.74 100.105 36.0048 99.8892 35.253 99.6875C35.2281 99.5686 35.0291 99.3227 34.8798 99.1044C34.7278 98.8917 34.6393 98.6844 34.8024 98.69C34.327 98.2645 33.5613 98.0766 32.7487 97.8307C32.3507 97.6953 31.9416 97.5488 31.5546 97.3609C31.1704 97.173 30.7972 96.9548 30.5098 96.637C30.3909 96.6563 30.203 96.6204 29.8768 96.4657C29.57 96.217 29.288 95.9545 29.0089 95.6893C28.7408 95.413 28.4782 95.1311 28.1962 94.8631C27.9143 94.5951 27.6075 94.3436 27.2647 94.106C26.9303 93.8573 26.5516 93.6335 26.101 93.4401C26.0098 93.0091 25.9048 92.6029 25.8329 92.1663C25.2525 91.7353 25.3382 92.1553 25.3354 92.5089C25.3299 92.8626 25.2331 93.1472 24.2408 92.4039C23.5222 91.89 23.5194 91.6607 23.6659 91.4866C23.8096 91.3125 24.0916 91.1992 23.9616 90.9064C23.5304 90.735 22.9113 90.5168 22.3142 90.1382C21.7255 89.7541 21.1948 89.1767 20.9128 88.3754C21.3689 88.6793 21.5514 89.0634 21.9162 89.3977V89.3949ZM12.4934 74.0377C12.604 74.1869 12.7947 74.3969 12.9329 74.6124C13.0822 74.8252 13.1762 75.0435 13.0767 75.2175C12.7173 75.1402 12.5764 74.9993 12.5183 74.8058C12.4658 74.6069 12.5072 74.3499 12.4934 74.0377ZM10.1384 46.4704C10.2352 46.7743 10.0666 47.1556 9.76251 47.5701C9.79844 47.2274 9.89795 46.8517 10.1384 46.4704ZM73.5494 9.67705C73.5301 9.67982 73.519 9.68258 73.5024 9.68811C72.7423 9.21286 73.0104 9.38969 73.5494 9.67705ZM75.1664 10.5115C75.3627 10.5087 75.3765 10.4341 75.3323 10.3374C75.1664 10.4176 74.7877 10.2739 74.3704 10.0749C74.445 10.249 74.6247 10.4259 75.1664 10.5115ZM68.9527 108.43L68.5796 108.372C69.3093 108.046 69.1269 108.231 68.9527 108.43Z" fill="#1C3631"/>
<path d="M10.1579 49.7501C10.0529 49.833 9.94785 49.8413 9.84558 49.8468C9.90916 50.0015 10.0114 50.0236 10.1579 49.7501Z" fill="#1C3631"/>
<path d="M30.4685 96.5955C30.4823 96.6093 30.4961 96.6176 30.5099 96.6314C30.5514 96.6231 30.5846 96.6038 30.6094 96.5844L30.4685 96.5955Z" fill="#1C3631"/>
<path d="M48.5235 12.3102C48.178 12.2936 47.9735 12.2301 47.8297 12.1555C47.8353 12.2881 48.0094 12.3682 48.5235 12.3102Z" fill="#1C3631"/>
<path d="M84.1803 13.9708C83.8292 13.794 83.4616 13.6448 83.1023 13.4901C83.6054 13.7525 83.7242 13.946 83.9177 14.1753C83.9619 14.0565 83.8679 13.7802 84.1803 13.9708V13.9708Z" fill="#1C3631"/>
<path d="M90.0291 22.5447C90.1894 22.6083 90.2806 22.774 90.441 22.8348L90.5792 22.6248C90.0678 22.1606 89.5869 21.9783 90.0291 22.5447Z" fill="#1C3631"/>
<path d="M84.1333 16.0432C84.0504 16.2559 84.1775 16.4245 84.4125 16.5875C84.5313 16.6676 84.6778 16.7477 84.8381 16.8279C84.9957 16.9135 85.1643 17.0075 85.3384 17.1042C85.2997 17.0793 85.261 17.0544 85.2251 17.024C85.4988 16.8334 85.4324 16.6593 85.1975 16.4908C84.9598 16.325 84.5424 16.1896 84.1333 16.0459V16.0432Z" fill="#1C3631"/>
<path d="M85.496 17.1981C85.7061 17.3225 85.9161 17.4579 86.0986 17.6126C86.3224 17.4634 85.8857 17.3971 85.496 17.1981Z" fill="#1C3631"/>
<path d="M77.3972 11.1055C77.7013 11.3708 77.8505 10.68 77.9749 10.9369C78.29 10.7656 77.6266 10.6551 77.1484 10.6662C76.9107 10.6662 76.7145 10.7159 76.709 10.785C76.7062 10.8513 76.8859 10.9535 77.3972 11.1027V11.1055Z" fill="#1C3631"/>
<path d="M83.8541 17.6208L83.926 17.0102L83.3179 17.1483L83.8541 17.6208Z" fill="#1C3631"/>
<path d="M78.7682 14.214L79.802 14.9158C79.8296 14.8246 79.9954 14.8495 80.1862 14.902C79.5145 14.5372 78.8152 14.0565 78.7682 14.2167V14.214Z" fill="#1C3631"/>
<path d="M80.1889 14.902C80.5372 15.0982 80.8661 15.286 81.1038 15.3137C80.9131 15.2142 80.504 14.9876 80.1889 14.902Z" fill="#1C3631"/>
<path d="M82.3505 16.8555C82.2675 16.7588 82.1874 16.6565 82.1045 16.5626L81.372 16.0956C81.6981 16.3498 82.0381 16.5819 82.3505 16.8555V16.8555Z" fill="#1C3631"/>
<path d="M66.1833 9.82899L64.8206 9.74609C64.6548 9.90912 64.9975 10.0887 65.5033 10.1025C65.8433 10.0279 66.3547 10.0445 66.1833 9.82899V9.82899Z" fill="#1C3631"/>
<path d="M69.7683 12.2411C69.456 12.0339 69.467 11.9068 69.3178 11.6747L69.1022 12.3268L69.7683 12.2411Z" fill="#1C3631"/>
<path d="M66.0036 11.4979C65.8322 11.6609 64.0411 11.7023 65.6719 11.951C65.7549 11.8709 66.1252 11.846 66.3325 11.8018C66.4348 11.7825 66.4984 11.7548 66.4625 11.7079C66.4265 11.6581 66.2966 11.5863 66.0064 11.4979H66.0036Z" fill="#1C3631"/>
<path d="M46.174 10.8513L46.503 10.7657L46.221 9.677L46.174 10.8513Z" fill="#1C3631"/>
<path d="M31.3751 19.9391C32.782 19.3617 31.3005 19.1544 32.63 18.7179C32.7157 18.5189 32.4338 18.588 32.1684 18.6902C31.9003 18.7869 31.6349 18.8864 31.7261 18.6902C31.1015 19.4252 30.615 19.5468 31.3723 19.9419L31.3751 19.9391Z" fill="#1C3631"/>
<path d="M31.7289 18.6875C31.8284 18.5714 31.9334 18.4388 32.0357 18.2868C31.8477 18.4913 31.7703 18.6046 31.7289 18.6875Z" fill="#1C3631"/>
<path d="M108.471 61.5789C108.584 61.2252 108.656 60.866 108.75 60.5096L108.355 61.192C108.402 61.3219 108.432 61.4518 108.474 61.5816L108.471 61.5789Z" fill="#1C3631"/>
<path d="M107.705 59.4927L108.43 59.2523L107.797 58.6058C107.822 58.8462 107.874 59.3131 107.705 59.4927Z" fill="#1C3631"/>
<path d="M13.0658 71.0618L12.8806 71.0397C12.7396 71.2331 12.7893 71.4514 12.8806 71.8879L13.0658 71.0618V71.0618Z" fill="#1C3631"/>
<path d="M17.8117 82.99L17.7039 82.7939L17.3805 83.4929L17.8117 82.99Z" fill="#1C3631"/>
<path d="M25.2112 90.8344C25.0647 90.6714 24.8657 90.536 24.6805 90.384C24.4953 90.2321 24.3101 90.0801 24.1691 89.9116C24.8961 90.525 24.733 91.4893 25.2084 90.8344H25.2112Z" fill="#1C3631"/>
<path d="M40.5676 50.7423C39.7367 45.2907 39.1828 41.4014 37.0363 37.6736C40.6072 37.0111 45.1541 39.5391 44.6661 39.1337C42.9482 37.7098 40.5281 36.7177 38.3915 36.6386C37.6793 36.6123 36.3472 36.6979 35.5163 36.9781C35.5163 36.9781 36.6209 38.9195 36.9176 39.5721C39.4301 45.0929 39.0146 51.6059 42.1569 56.9388C42.48 57.486 40.9237 53.0726 40.5676 50.7423V50.7423Z" fill="#1D2826"/>
<path d="M36.001 61.9751C36.001 61.9751 34.5535 60.5414 32.9742 58.6758C32.3774 57.9738 30.554 55.5841 30.2441 55.2249C28.9944 53.7746 27.8437 52.9902 26.2149 52.1068C28.8592 49.4766 32.0345 49.1965 31.4014 49.1932C29.8781 49.18 28.4372 49.5458 27.1513 50.2545C26.5743 50.5742 25.1631 51.5861 24.3915 52.6045C24.3915 52.6045 26.8809 53.1649 29.9704 56.3126C30.4683 56.8201 32.3246 59.0021 32.773 59.4405C33.7523 60.393 34.847 61.2203 35.9977 61.9784L36.001 61.9751Z" fill="#1D2826"/>
<path d="M51.1352 51.6652C51.333 46.6157 52.985 41.8563 56.4042 37.5615C59.8234 41.8595 61.4753 46.619 61.6731 51.6652C61.7951 54.8063 60.7763 59.991 60.9939 59.3944C61.9798 56.7147 62.4974 53.3725 62.4315 51.0192C62.2732 45.4324 60.1795 39.994 56.4042 35.6828C52.6289 39.994 50.5351 45.4324 50.3769 51.0192C50.3109 53.3758 50.8286 56.7147 51.8144 59.3944C52.0321 59.991 51.0132 54.8063 51.1352 51.6652Z" fill="#1D2826"/>
<path d="M75.7687 37.6736C73.6222 41.4047 73.0683 45.2907 72.2374 50.7423C71.8813 53.0726 70.325 57.4827 70.6482 56.9388C73.7937 51.6059 73.375 45.0929 75.8874 39.5721C76.1842 38.9162 77.2887 36.9781 77.2887 36.9781C76.4578 36.6979 75.1225 36.6123 74.4136 36.6386C72.277 36.7177 69.8601 37.7098 68.139 39.1337C67.651 39.5391 72.1978 37.0111 75.7687 37.6736V37.6736Z" fill="#1D2826"/>
<path d="M85.6505 50.2545C84.3613 49.5458 82.9237 49.18 81.4004 49.1932C80.7673 49.1997 83.9425 49.4799 86.5869 52.1068C84.9581 52.9902 83.8074 53.7746 82.5577 55.2249C82.2478 55.5841 80.4244 57.9705 79.8276 58.6758C78.2483 60.5414 76.8008 61.9751 76.8008 61.9751C77.9515 61.217 79.0462 60.3897 80.0255 59.4372C80.4739 59.0021 82.3302 56.8169 82.8281 56.3093C85.9176 53.1616 88.407 52.6012 88.407 52.6012C87.6354 51.5861 86.2275 50.5709 85.6472 50.2512L85.6505 50.2545Z" fill="#1D2826"/>
<path d="M56.4009 81.837C53.707 79.032 53.0047 77.9444 53.229 78.4882C53.9543 80.2483 55.016 81.9292 56.4009 83.3301C57.7857 81.9292 58.8474 80.2483 59.5728 78.4882C59.797 77.9444 59.0914 79.032 56.4009 81.837V81.837Z" fill="#1D2826"/>
<path d="M89.594 55.6632C90.4381 55.2084 93 54.2229 93 54.2229C92.6142 53.0858 91.7569 51.3422 91.0711 50.4852C88.0871 46.7673 82.6335 45.5807 77.8856 46.1279C78.3768 43.2109 79.0495 40.1159 81.0839 38.2207C81.6806 37.6637 83.87 36.1673 83.7876 36.0882C83.016 35.3301 81.7268 34.6379 81.2289 34.3973C74.8917 31.3122 67.8323 34.2127 62.9096 38.8799C60.9642 35.2774 58.5606 31.8956 56.4009 28.3986C54.2379 31.8956 51.8342 35.2807 49.8922 38.8799C44.9661 34.2127 37.9068 31.3122 31.5729 34.3973C31.0783 34.6379 29.7858 35.3301 29.0142 36.0882C28.9318 36.1706 31.1244 37.667 31.7179 38.2207C33.7523 40.1192 34.4282 43.2109 34.9162 46.1279C30.1682 45.5807 24.7146 46.7706 21.7307 50.4852C21.0415 51.3422 20.1876 53.0858 19.8018 54.2229C19.8018 54.2229 22.3637 55.2084 23.2078 55.6632C25.4071 56.8498 27.2304 58.6461 28.9812 60.571C25.8555 61.5071 23.2771 63.8242 22.0307 66.8104C21.5262 68.02 21.2954 69.3022 21.1569 70.113C21.1569 70.113 24.441 70.1427 25.4104 70.2415C28.3119 70.5316 30.9101 71.5962 33.5973 73.1552C34.1612 73.4815 34.7283 73.7881 35.302 74.0781C34.0326 75.2416 33.1555 76.6952 32.7533 78.3399C32.6115 78.9233 32.4005 80.3999 32.3675 81.804C32.3675 81.804 34.5667 81.3821 35.3877 81.3294C38.2266 81.1382 40.9567 81.7974 43.855 81.3063C46.0015 80.9437 47.9501 80.0274 49.6185 78.709C49.6845 80.1263 50.6901 81.6326 51.1418 82.3709C52.5959 84.7572 54.6764 86.9985 56.4009 88.9728C58.1253 86.9985 60.2026 84.7572 61.66 82.3709C62.1117 81.6326 63.1173 80.1296 63.1833 78.709C64.8517 80.0274 66.8003 80.9437 68.9468 81.3063C71.8451 81.7974 74.5751 81.1382 77.4141 81.3294C78.2318 81.3854 80.4343 81.804 80.4343 81.804C80.4046 80.4032 80.1936 78.9233 80.0485 78.3399C79.6463 76.6952 78.7692 75.2416 77.4998 74.0781C78.0702 73.7881 78.6406 73.4815 79.2044 73.1552C81.895 71.5962 84.4899 70.5316 87.3947 70.2415C88.3641 70.146 91.6481 70.113 91.6481 70.113C91.5064 69.3022 91.2788 68.02 90.7744 66.8104C89.528 63.8275 86.9463 61.5104 83.8238 60.571C85.5747 58.6461 87.4013 56.8465 89.5973 55.6632H89.594ZM81.4103 36.1673C75.8644 39.5391 76.4051 48.4812 74.6411 54.0152C72.2737 61.4412 66.3981 67.0411 58.8969 68.699C65.0495 63.2441 68.0104 54.5789 65.9595 46.4179C65.4155 44.2491 64.5978 42.2089 63.6218 40.2412C68.3368 35.607 75.2544 32.5779 81.4103 36.164V36.1673ZM56.4009 31.1211C58.9628 35.106 61.6534 39.0381 63.424 43.4449C67.1103 52.6177 64.2746 63.0826 56.4009 68.821C48.5238 63.0859 45.6915 52.6177 49.3778 43.4449C51.1484 39.0381 53.839 35.1093 56.4009 31.1211V31.1211ZM31.3915 36.1673C37.5474 32.5812 44.465 35.6103 49.18 40.2445C48.204 42.2122 47.3863 44.2524 46.8423 46.4212C44.7914 54.5822 47.7523 63.2441 53.9049 68.7023C46.4004 67.0411 40.5281 61.4445 38.1607 54.0185C36.3967 48.4845 36.9374 39.5424 31.3915 36.1706V36.1673ZM21.6911 53.4187C23.7584 48.3395 30.1682 46.8925 35.1635 47.6341C35.2558 48.2076 35.7438 50.6731 35.9054 51.3652C36.667 54.6118 37.7452 57.7991 39.595 60.5974C42.6416 65.2052 47.2808 68.4221 52.5168 69.8559C46.196 70.7261 39.5917 68.9759 34.7052 64.7339C33.4589 63.6528 31.4772 61.6422 30.4089 60.2513C27.903 57.4134 25.3741 54.6283 21.6911 53.4187V53.4187ZM47.8809 78.1322C45.9949 79.3781 43.789 80.067 41.4414 79.9978C38.8069 79.922 36.5088 79.5726 34.0062 79.9879C34.115 77.9246 35.0745 76.0294 36.7396 74.7769C36.7429 74.7736 36.7462 74.7703 36.7528 74.767C38.5827 75.5646 40.4819 76.1381 42.5394 76.3754C45.1673 76.6787 47.8743 76.4414 50.3208 75.5844C49.8724 76.5205 48.5865 77.6708 47.8842 78.1355L47.8809 78.1322ZM38.2794 73.8474C35.5427 72.8256 33.2445 70.9733 30.5408 69.8922C28.1075 68.9165 25.5488 68.5672 22.9506 68.7089C23.864 65.2514 26.5875 62.6113 30.0891 61.807C32.1565 64.134 34.2106 66.494 36.7627 68.0563C42.1371 71.349 48.6656 72.3378 54.7688 70.9502C50.8253 75.5218 43.6868 75.8613 38.2794 73.8441V73.8474ZM60.0278 81.9424C58.9035 83.5904 57.6802 85.1626 56.4009 86.6887C55.1216 85.1626 53.8983 83.5871 52.774 81.9424C51.9958 80.8053 51.1748 79.4276 51.2276 77.9641C51.2737 76.6259 51.8112 75.6437 52.7278 74.6879C53.3576 74.032 55.4381 72.3147 56.4042 71.2205C57.3703 72.3147 59.4508 74.032 60.0806 74.6879C60.9972 75.6437 61.5314 76.6259 61.5808 77.9641C61.6336 79.4276 60.8093 80.8053 60.0344 81.9424H60.0278ZM78.7956 79.9846C76.293 79.5693 73.9948 79.9187 71.3604 79.9945C69.0094 80.0604 66.8069 79.3748 64.9209 78.1289C64.2186 77.6642 62.9327 76.5139 62.4843 75.5778C64.9341 76.4348 67.6378 76.6721 70.2657 76.3689C72.3199 76.1315 74.2223 75.558 76.0523 74.7604C76.0556 74.7637 76.0589 74.767 76.0655 74.7703C77.7306 76.0261 78.6901 77.918 78.7989 79.9813L78.7956 79.9846ZM89.8479 68.7056C87.2497 68.5606 84.691 68.9133 82.2577 69.8889C79.5539 70.97 77.2558 72.8256 74.5191 73.8441C69.1117 75.8613 61.9765 75.5218 58.0297 70.9502C64.1329 72.3378 70.6614 71.3457 76.0358 68.0563C78.5879 66.494 80.642 64.134 82.7094 61.807C86.2077 62.6113 88.9345 65.2514 89.8479 68.7089V68.7056ZM82.3896 60.248C81.3213 61.6389 79.3396 63.6495 78.0933 64.7306C73.2068 68.9726 66.6025 70.7228 60.2817 69.8526C65.5144 68.4189 70.1569 65.2019 73.2035 60.5941C75.0532 57.7958 76.1281 54.6085 76.8931 51.3619C77.0547 50.6698 77.5426 48.2044 77.635 47.6308C82.6302 46.8859 89.04 48.3362 91.1074 53.4154C87.4244 54.6283 84.8921 57.4101 82.3896 60.248Z" fill="#1D2826"/>
</svg>
