<svg width="273" height="45" viewBox="0 0 273 45" fill="none" xmlns="http://www.w3.org/2000/svg">
<g clip-path="url(#clip0_18_15)">
<path d="M0.104546 44.3147V0.678364H10.6514V18.1926H27.846V0.678364H38.3717V44.3147H27.846V26.7791H10.6514V44.3147H0.104546ZM92.331 44.3147V0.678364H110.357C113.624 0.678364 116.443 1.26785 118.815 2.44682C121.202 3.61159 123.041 5.28774 124.334 7.47524C125.626 9.64853 126.273 12.2266 126.273 15.2096C126.273 18.2352 125.612 20.8062 124.291 22.9226C122.97 25.025 121.095 26.63 118.666 27.7381C116.237 28.8318 113.361 29.3786 110.037 29.3786H98.6379V21.069H108.077C109.668 21.069 110.996 20.863 112.061 20.4511C113.141 20.025 113.958 19.3858 114.511 18.5335C115.065 17.667 115.342 16.559 115.342 15.2096C115.342 13.8602 115.065 12.7451 114.511 11.8645C113.958 10.9695 113.141 10.3019 112.061 9.86161C110.982 9.40707 109.654 9.17978 108.077 9.17978H102.878V44.3147H92.331ZM116.898 24.3715L127.764 44.3147H116.259L105.605 24.3715H116.898ZM142.604 0.678364V44.3147H132.058V0.678364H142.604ZM149.076 44.3147V38.3062L170.277 9.24369H149.098V0.678364H183.615V6.6869L162.415 35.7494H183.594V44.3147H149.076ZM229.201 22.4965C229.201 27.2976 228.277 31.3673 226.431 34.7053C224.584 38.0435 222.084 40.579 218.931 42.3119C215.792 44.0447 212.269 44.9114 208.363 44.9114C204.442 44.9114 200.912 44.0376 197.773 42.2906C194.634 40.5434 192.141 38.0079 190.294 34.684C188.462 31.3461 187.546 27.2835 187.546 22.4965C187.546 17.6954 188.462 13.6258 190.294 10.2877C192.141 6.94968 194.634 4.41417 197.773 2.68121C200.912 0.94825 204.442 0.0817719 208.363 0.0817719C212.269 0.0817719 215.792 0.94825 218.931 2.68121C222.084 4.41417 224.584 6.94968 226.431 10.2877C228.277 13.6258 229.201 17.6954 229.201 22.4965ZM218.419 22.4965C218.419 19.6556 218.015 17.2551 217.205 15.2948C216.41 13.3346 215.259 11.8502 213.753 10.8417C212.262 9.83319 210.465 9.32892 208.363 9.32892C206.275 9.32892 204.478 9.83319 202.972 10.8417C201.466 11.8502 200.309 13.3346 199.499 15.2948C198.704 17.2551 198.306 19.6556 198.306 22.4965C198.306 25.3375 198.704 27.7381 199.499 29.6982C200.309 31.6585 201.466 33.1429 202.972 34.1514C204.478 35.1599 206.275 35.6642 208.363 35.6642C210.465 35.6642 212.262 35.1599 213.753 34.1514C215.259 33.1429 216.41 31.6585 217.205 29.6982C218.015 27.7381 218.419 25.3375 218.419 22.4965ZM272.497 0.678364V44.3147H263.547L246.182 19.1301H245.906V44.3147H235.359V0.678364H244.434L261.608 25.8204H261.971V0.678364H272.497Z" fill="white"/>
<path d="M87.1159 16.6466C85.8403 11.8867 83.03 7.68072 79.1206 4.68088C75.211 1.68104 70.4211 0.0550232 65.4932 0.0550232C60.5655 0.0550232 55.7754 1.68104 51.8659 4.68088C47.9565 7.68072 45.1461 11.8867 43.8707 16.6466L65.4932 22.4403L87.1159 16.6466Z" fill="#11A4FF"/>
<path d="M87.1708 28.2892C85.8955 33.049 83.0851 37.255 79.1755 40.2549C75.2662 43.2547 70.4761 44.8808 65.5483 44.8808C60.6204 44.8808 55.8304 43.2547 51.921 40.2549C48.0115 37.255 45.2011 33.049 43.9257 28.2892L52.6709 25.946C53.4304 28.7807 55.1042 31.2856 57.4325 33.0722C59.7609 34.8588 62.6136 35.8271 65.5483 35.8271C68.4831 35.8271 71.3358 34.8588 73.6641 33.0722C75.9925 31.2856 77.6661 28.7807 78.4257 25.946L87.1708 28.2892Z" fill="#11A4FF"/>
</g>
<defs>
<clipPath id="clip0_18_15">
<rect width="272.513" height="45" fill="white"/>
</clipPath>
</defs>
</svg>
