<svg width="191" height="78" viewBox="0 0 191 78" fill="none" xmlns="http://www.w3.org/2000/svg">
<path d="M111.563 32.7095H81.7737V36.2141H111.563V32.7095Z" fill="#DAB863"/>
<path d="M88.1988 39.7187H81.7737V75.9327H88.1988V73.0122C90.7298 73.0122 96.3761 72.8954 98.7125 72.4281C101.049 71.9609 104.359 69.5076 105.722 68.3395V75.9327H111.563V39.7187H105.722V41.471C105.722 43.2232 105.488 48.7138 104.553 56.6575C103.619 64.6012 97.9337 66.5872 95.2079 66.5872H88.1988V39.7187Z" fill="#DAB863"/>
<path d="M126.165 34.4618H119.74V77.1009H126.165V59.578L133.758 54.9052L136.679 59.578C138.236 62.4985 141.235 68.9235 140.768 71.2599C140.3 73.5963 138.626 76.1274 137.847 77.1009H146.024C146.414 76.5168 147.309 74.7645 147.777 72.4281C148.244 70.0917 146.803 65.6137 146.024 63.6667L140.183 51.4006L149.529 46.1437L146.024 40.3028L126.165 51.4006V34.4618Z" fill="#DAB863"/>
<path d="M162.963 50.8165L151.865 74.1804L157.706 77.1009L168.804 53.737L162.963 50.8165Z" fill="#DAB863"/>
<path d="M175.229 61.9144H167.636V68.3395H175.229V61.9144Z" fill="#DAB863"/>
<path d="M167.636 39.7187H160.043V46.1437H170.557L185.159 77.1009L191 74.1804L177.566 46.1437H184.575V39.1346H174.645L171.725 33.2936L165.3 36.2141L167.636 39.7187Z" fill="#DAB863"/>
<path d="M0 3.50459V15.7706H4.08869V8.17738H14.6024C14.6024 9.54027 14.3688 12.967 13.4343 15.7706C12.4997 18.5743 7.20387 20.8328 4.67278 21.6116H0V26.2844H2.92049C4.47808 26.0897 8.41101 25.233 11.682 23.3639C14.6024 21.0275 17.9123 15.9653 18.6911 12.8502V3.50459H0Z" fill="#DAB863"/>
<path d="M36.2142 4.08869H24.5322V8.17738H26.8686V11.682H23.364V16.3547H26.8686V22.7798C26.8686 25.1162 29.9838 26.4791 31.5414 26.8685H43.8074V22.7798H33.2937C31.8918 22.7798 31.152 21.2222 30.9573 20.4434V16.3547H38.5506V11.682H30.9573V8.17738H37.9665L40.3029 12.2661L44.3915 10.5138L39.1347 7.62939e-06L35.046 2.3364L36.2142 4.08869Z" fill="#DAB863"/>
<path d="M57.8258 4.08869H51.9848V8.17738H57.8258V20.4434C57.8258 21.8453 57.047 22.5851 56.6576 22.7798H48.4802V26.8685C50.8166 26.8685 56.0735 26.7517 58.4099 26.2844C60.7463 25.8171 61.7198 23.3639 61.9145 22.1957V8.17738H67.7555V4.08869H61.9145V7.62939e-06H57.8258V4.08869Z" fill="#DAB863"/>
<path d="M80.6056 4.08869H74.7646V8.17738H80.6056V18.107C80.6056 21.8453 79.4374 22.7798 78.8533 22.7798H73.0123V26.8685H92.8717V22.7798H82.942C83.1367 22.5851 83.6429 21.9621 84.1102 21.0275C84.5775 20.093 84.6943 18.3017 84.6943 17.5229V8.17738H91.1194V4.08869H84.6943V7.62939e-06H80.6056V4.08869Z" fill="#DAB863"/>
<path d="M105.138 3.50459H98.1285V8.17738H105.722V18.107C105.722 24.1817 111.173 26.4791 113.899 26.8685L115.067 23.3639C114.873 23.1692 114.016 22.663 112.147 22.1957C110.278 21.7284 109.811 18.8858 109.811 17.5229V8.17738H116.82V3.50459H109.811V7.62939e-06H105.138V3.50459Z" fill="#DAB863"/>
<path d="M126.749 10.5138L120.324 25.1162L124.413 26.8685L130.838 12.8502L126.749 10.5138Z" fill="#DAB863"/>
<path d="M130.254 21.6116V18.107H134.343V21.6116H130.254Z" fill="#DAB863"/>
<path d="M131.422 7.59328H124.997V3.50459H129.67L128.502 1.7523L132.006 7.62939e-06L133.759 3.50459H139.599V7.59328H135.511L144.272 25.1162L140.768 27.4526L131.422 7.59328Z" fill="#DAB863"/>
<path d="M145.44 8.17738V3.50459H148.361V7.62939e-06H152.45V4.08869H165.3C165.689 5.25689 166.468 8.06056 166.468 9.92967C166.468 11.7988 162.574 15.7706 160.627 17.5229L167.636 24.5321L164.716 26.8685L157.707 19.8593L155.37 20.4434L154.202 17.5229C154.397 17.3282 155.136 16.822 156.538 16.3547C157.94 15.8875 161.406 10.3191 162.963 7.59328L152.45 8.17738V21.6116L150.113 26.2844H146.025L148.361 21.0275V8.17738H145.44Z" fill="#DAB863"/>
<path d="M175.814 4.08869H171.725V26.8685H175.814V25.1162H180.486C181.888 25.1162 184.964 23.1692 186.327 22.1957V26.8685H191V4.08869H186.327V14.6025C186.327 18.3407 183.212 20.054 181.655 20.4434H175.814V4.08869Z" fill="#DAB863"/>
<path d="M11.682 39.1346H0V45.5596H11.682V58.4098C11.682 64.8349 12.7384 66.6643 15.1865 70.0917C17.6347 73.5192 22.001 75.5433 24.5321 76.5168L25.7003 69.5076C23.948 68.9236 22.1957 68.3395 20.4434 67.1713C18.7047 66.0121 18.107 60.1621 18.107 57.2416V45.5596H29.789V39.1346H18.107V33.2936H11.682V39.1346Z" fill="#DAB863"/>
<path d="M62.4985 39.7187H37.9664V46.1437H41.471V56.0734C41.471 59.3443 46.5332 60.5515 49.0643 60.7462H65.419V65.419C65.419 68.2226 63.8614 69.313 63.0826 69.5076H45.5597C43.6906 69.5076 43.6127 66.7819 43.8074 65.419H37.3823C37.3823 66.7819 37.616 70.0917 38.5505 72.4281C39.4851 74.7645 43.2233 75.3486 44.9756 75.3486C51.206 75.5433 64.2508 75.8159 66.5872 75.3486C68.9236 74.8814 71.0653 70.4811 71.8441 68.3395V60.7462H73.5964V54.3211C65.2243 54.3211 48.3634 54.2043 47.8961 53.737C47.4288 53.2697 47.7014 48.4801 47.8961 46.1437H64.8349L68.3395 52.5688L74.1805 49.6483L66.0031 33.2936L60.1621 36.2141L62.4985 39.7187Z" fill="#DAB863"/>
</svg>
