<svg width="432" height="412" viewBox="0 0 432 412" fill="none" xmlns="http://www.w3.org/2000/svg">
<circle cx="226.145" cy="206.65" r="205.35" fill="#F1DFC3"/>
<circle cx="205.35" cy="205.35" r="205.35" fill="#E5B595"/>
<circle cx="204.7" cy="206" r="160.511" fill="#D47757"/>
<path d="M337.822 206.591C337.749 207.856 338.957 207.398 339.175 207.594C338.855 205.456 337.502 206.649 337.822 206.591Z" fill="white"/>
<path d="M333.356 186.226L333.909 186.509L332.178 183.739L333.356 186.226Z" fill="white"/>
<path d="M329.007 167.591C328.287 168.769 328.818 170.39 329.589 172.179C330.396 173.953 331.262 175.938 331.283 177.683L330.949 178.33L332.927 179.471C332.629 178.468 332.258 177.399 331.873 176.323C331.48 175.247 331.109 174.149 330.665 173.11C329.821 171.023 329.145 169.067 329 167.584L329.007 167.591Z" fill="white"/>
<path d="M329.72 156.307C329.211 157.216 328.236 154.446 330.389 158.685C330.389 158.43 330.403 158.35 330.418 158.198C330.251 157.805 330.04 157.26 329.727 156.307H329.72Z" fill="white"/>
<path d="M330.418 158.205C330.549 156.693 331.24 160.124 330.418 158.205Z" fill="white"/>
<path d="M326.243 149.538L328.032 151.741C328.236 151.029 327.32 148.739 328.01 149.429C326.476 147.008 326.301 147.757 326.25 149.546L326.243 149.538Z" fill="white"/>
<path d="M323.777 147.852C324.083 148.222 324.388 148.593 324.665 148.986C324.745 148.673 324.665 148.302 323.777 147.852Z" fill="white"/>
<path d="M326.483 151.436L324.665 148.986C324.527 149.487 323.93 149.807 325.443 150.135C324.788 150.171 325.559 150.454 326.483 151.436Z" fill="white"/>
<path d="M326.89 153.108C326.999 153.893 327.181 154.759 327.094 155.166C327.007 155.573 326.738 155.471 325.865 154.381C326.992 156.693 327.763 157.572 328.047 157.26C328.178 157.107 328.178 156.649 328.01 155.944C327.836 155.238 327.516 154.257 326.89 153.108Z" fill="white"/>
<path d="M326.65 167.315C326.665 167.998 326.687 168.675 326.665 169.358L327.792 170.79C327.509 170.434 327.385 169.482 327.261 168.66C327.123 167.838 326.934 167.162 326.65 167.315Z" fill="white"/>
<path d="M319.021 134.001C318.555 134.096 318.519 135.404 318.148 135.87C318.664 136.342 319.137 136.837 319.617 137.331C319.384 136.262 318.541 134.466 319.021 134.001Z" fill="white"/>
<path d="M318.148 135.87L315.886 133.747C317.253 136.044 317.821 136.27 318.148 135.87Z" fill="white"/>
<path d="M321.486 148.44L322.396 149.342L323.254 150.273L324.985 152.163C323.69 150.614 322.432 149.073 321.043 147.619L321.486 148.44Z" fill="white"/>
<path d="M312.497 124.36C313.115 124.615 313.719 124.891 314.33 125.16L312.809 124.36L311.246 123.619L312.497 124.36Z" fill="white"/>
<path d="M307.544 118.442C309.035 118.871 307.485 116.188 308.773 116.879C307.26 115.374 305.551 114.465 303.972 113.716C305.398 114.734 306.518 116.217 307.536 118.442H307.544Z" fill="white"/>
<path d="M301.419 112.407C302.154 112.88 303.027 113.273 303.98 113.716C303.209 113.185 302.38 112.727 301.419 112.407Z" fill="white"/>
<path d="M313.217 129.392C313.304 129.05 313.617 128.286 312.868 126.73L312.548 128.417C312.751 128.715 312.984 129.05 313.217 129.392Z" fill="white"/>
<path d="M312.54 128.475V128.417C311.835 127.356 311.34 126.614 311.129 126.302C311.311 126.578 311.733 127.232 312.54 128.475Z" fill="white"/>
<path d="M313.384 129.631C313.326 129.544 313.275 129.471 313.217 129.384C313.18 129.544 313.188 129.624 313.384 129.631Z" fill="white"/>
<path d="M318.853 141.083C317.377 139.905 314.955 137.193 315.77 140.734C317.122 141.373 316.642 139.338 318.853 141.083Z" fill="white"/>
<path d="M312.948 131.704C313.479 132.612 313.937 133.565 314.431 134.495C314.671 134.263 314.766 133.521 315.522 134.067C314.657 133.274 313.835 132.467 312.948 131.704Z" fill="white"/>
<path d="M311.733 130.671L312.948 131.704L312.358 130.693L311.733 130.671Z" fill="white"/>
<path d="M304.271 117.242C303.616 116.901 303.034 116.457 302.467 115.941C301.885 115.439 301.303 114.894 300.692 114.305C301.223 115.054 301.812 115.766 302.365 116.501C302.918 117.235 303.492 117.948 304.082 118.616C304.54 118.551 305.587 118.689 304.271 117.235V117.242Z" fill="white"/>
<path d="M308.351 122.666C308.271 122.608 308.184 122.521 308.104 122.47C308.14 122.681 308.205 122.826 308.351 122.666Z" fill="white"/>
<path d="M288.56 102.839C288.59 102.956 288.597 103.072 288.619 103.188C288.684 103.145 288.735 103.101 288.8 103.065L288.56 102.839Z" fill="white"/>
<path d="M304.103 119.002C304.809 120.187 305.573 120.601 306.38 120.943C305.616 120.252 304.845 119.489 304.082 118.616C303.878 118.645 303.776 118.704 304.103 118.994V119.002Z" fill="white"/>
<path d="M297.71 109.448C298.052 110.124 298.481 110.844 298.91 111.615C298.721 110.822 298.125 109.39 297.71 109.448Z" fill="white"/>
<path d="M308.089 121.895C308.147 121.939 308.205 121.968 308.256 122.019C308.184 121.496 308.118 121.626 308.089 121.895Z" fill="white"/>
<path d="M308.089 121.895C307.514 121.452 306.933 121.212 306.38 120.95C306.969 121.539 307.551 122.063 308.111 122.477C308.074 122.288 308.075 122.07 308.096 121.896L308.089 121.895Z" fill="white"/>
<path d="M279.723 106.002C280.167 105.617 281.214 105.74 282.364 106.315C282.931 106.605 283.535 106.991 284.073 107.507C284.597 108.038 285.069 108.663 285.426 109.383C288.175 110.626 289.288 106.569 288.619 103.188C288.219 103.53 287.957 103.821 285.077 102.447C285.302 103.036 286.444 104.352 287.099 105.508C287.775 106.642 288.051 107.507 286.742 107.064C285.04 105.958 284.451 105.391 284.16 104.846C283.876 104.301 283.884 103.792 283.295 102.948C283.506 104.032 282.167 103.639 280.727 103.276C279.294 102.883 277.672 102.643 277.411 103.734C278.509 104.177 279.549 104.715 280.611 105.231C280.458 105.529 279.156 105.173 279.723 106.002Z" fill="white"/>
<path d="M293.041 107.202L294.074 107.987C293.157 106.809 292.67 105.784 291.782 103.828C289.775 102.832 289.164 102.868 288.8 103.065C290.357 104.504 291.964 105.893 293.477 107.376L293.041 107.202Z" fill="white"/>
<path d="M298.241 112.015C296.677 112.131 294.059 110.459 294.474 112.698C295.165 113.316 295.659 113.702 296.045 113.956C296.437 114.203 296.728 114.305 297.005 114.363C297.557 114.48 298.016 114.414 298.983 115.039C294.583 110.881 300.692 115.817 298.168 112.146C299.15 112.865 299.943 113.6 300.685 114.305C300.038 113.404 299.434 112.502 298.91 111.615C298.932 111.673 298.939 111.717 298.954 111.775L298.976 111.789C298.976 111.789 298.961 111.789 298.954 111.797C299.027 112.095 299.019 112.226 298.874 111.949C298.852 111.949 298.794 111.898 298.765 111.877C298.612 111.971 298.423 111.993 298.234 112.008C297.194 110.546 298.27 111.579 298.765 111.877C298.823 111.848 298.896 111.84 298.947 111.797C298.947 111.789 298.947 111.775 298.947 111.768C298.168 111.091 297.346 110.466 296.525 109.848L294.066 107.98C294.874 109.012 296.11 110.059 298.234 112.008L298.241 112.015Z" fill="white"/>
<path d="M311.842 139.418C311.842 139.207 311.922 139.163 311.988 139.105C311.653 138.865 311.486 138.8 311.842 139.418Z" fill="white"/>
<path d="M311.18 136.989C311.558 137.251 312.177 137.287 312.817 138.531C313.151 139.745 312.3 138.843 311.988 139.112C312.722 139.628 314.308 141.141 313.435 138.574L313.064 138.312C312.155 136.095 311.777 132.62 312.148 132.874C311.595 134.096 311.26 135.07 311.18 136.996V136.989Z" fill="white"/>
<path d="M305.085 124.346C303.921 123.146 302.656 122.048 301.419 120.928L302.241 123.531L302.656 123.015C304.256 125.334 304.46 124.389 305.085 124.338V124.346Z" fill="white"/>
<path d="M288.517 101.981L289.877 101.407C288.735 101.218 287.535 101.123 286.378 100.993L288.51 101.981H288.517Z" fill="white"/>
<path d="M283.178 97.9825L284.066 97.2118C283.462 97.0373 282.829 96.8919 282.218 96.7319L283.178 97.9752V97.9825Z" fill="white"/>
<path d="M95.8489 270.005L96.8017 271.001C96.3944 270.507 96.0962 270.201 95.8489 270.005Z" fill="white"/>
<path d="M91.2667 261.389L90.6485 261.425C91.1358 261.694 91.4268 261.753 91.2667 261.389Z" fill="white"/>
<path d="M129.371 91.3808C126.964 91.6426 123.945 91.6062 124.884 92.5369L126.149 93.2203C127.313 92.2024 128.389 91.6862 129.371 91.3808Z" fill="white"/>
<path d="M74.6402 182.183C74.8002 182.016 74.9602 181.842 75.1202 181.667C74.8075 181.085 74.5165 180.54 74.2547 180.053C74.3783 180.7 74.4656 181.42 74.6402 182.183Z" fill="white"/>
<path d="M79.5132 184.59L78.2477 187.033C78.6331 186.495 79.0477 185.71 79.5132 184.59Z" fill="white"/>
<path d="M132.768 307.528C133.43 307.477 134.092 307.427 134.768 307.339C132.768 306.001 133.292 307.107 132.768 307.528Z" fill="white"/>
<path d="M220.708 72.6663C218.905 71.9392 217.428 71.5466 216.119 71.3139C218.316 72.3173 219.967 73.626 220.708 72.6663Z" fill="white"/>
<path d="M82.2043 273.138C82.8589 273.822 83.2808 274.033 83.5062 273.873C82.8517 273.167 82.3716 272.818 82.2043 273.138Z" fill="white"/>
<path d="M210.664 70.8632C210.991 71.0159 211.311 71.1031 211.639 71.234C213.035 71.1468 214.446 71.0231 216.119 71.3139C214.504 70.5723 212.577 70.1434 210.664 70.8632Z" fill="white"/>
<path d="M302.671 275.945C302.794 275.858 302.911 275.734 303.034 275.661C302.918 275.53 302.801 275.69 302.671 275.945Z" fill="white"/>
<path d="M335.065 225.574C335.065 226.192 334.942 227.181 334.84 228.119C334.985 227.675 335.073 226.912 335.065 225.574Z" fill="white"/>
<path d="M260.522 83.6449C260.791 83.6086 261.839 84.1902 260.522 83.6449Z" fill="white"/>
<path d="M264.29 91.1554C263.962 91.1481 263.679 91.2063 263.511 91.4462C263.751 91.2281 264.013 91.1481 264.29 91.1554Z" fill="white"/>
<path d="M196.852 78.4755C196.816 78.4755 196.78 78.4755 196.736 78.4755C197.143 78.7154 197.071 78.6646 196.852 78.4755Z" fill="white"/>
<path d="M262.173 85.1135C261.773 84.7354 261.286 84.3355 260.726 83.9575C260.944 84.1756 261.38 84.5391 262.173 85.1135Z" fill="white"/>
<path d="M262.188 84.4447C262.602 84.7137 262.93 84.9173 263.235 85.1209C263.49 85.0118 263.41 84.8228 262.188 84.4447Z" fill="white"/>
<path d="M258.689 82.8888C259.438 83.2087 260.1 83.5721 260.726 83.9575C260.508 83.7684 260.435 83.6522 260.522 83.6449C260.137 83.4923 259.591 83.2741 258.697 82.8888H258.689Z" fill="white"/>
<path d="M217.792 332.074C217.879 332.103 217.981 332.118 218.083 332.154C219.312 331.47 218.752 331.623 217.792 332.074Z" fill="white"/>
<path d="M110.715 123.568C110.744 123.517 110.744 123.473 110.774 123.422C110.723 123.459 110.657 123.495 110.614 123.531L110.723 123.575L110.715 123.568Z" fill="white"/>
<path d="M108.381 127.603C108.475 125.116 109.326 124.346 110.606 123.524C109.37 123.066 108.112 122.608 106.868 122.186C107.348 124.019 107.85 125.822 108.373 127.596L108.381 127.603Z" fill="white"/>
<path d="M109.893 288.61L108.678 285.477C110.635 286.313 111.922 287.331 112.635 287.738C113.37 288.131 113.486 287.949 113.137 286.313C112.33 286.887 111.413 286.618 110.431 285.928C109.457 285.23 108.388 284.132 107.435 282.947C106.453 281.776 105.471 280.613 104.518 279.864C103.609 279.079 102.714 278.715 101.849 279.195L101.311 277.007C101.623 277.515 101.871 277.457 102.183 277.966C101.383 273.611 98.0959 277.108 95.6594 272.31C94.9393 270.572 94.8379 269.147 95.8489 270.005L92.9537 266.929C92.6846 266.391 92.7574 266.101 92.9392 266.079C93.121 266.064 93.4338 266.311 93.7029 266.842C92.5901 265.075 91.6009 263.236 90.5318 261.433H90.6554C89.6808 260.909 88.0079 259.434 87.2079 258.685C87.0624 256.983 87.9207 259.252 88.2043 258.67C87.4406 257.732 86.6333 256.809 85.8987 255.842C86.1096 254.977 86.706 255.137 87.3534 255.776C88.0298 256.409 88.7716 257.521 89.2008 258.648C90.3354 256.358 89.819 255.842 88.9171 254.933C88.0807 254.017 86.8224 252.708 86.6697 249.066C87.1788 250.033 87.7679 250.963 88.3061 251.908C88.9826 250.527 88.8516 249.364 88.6698 248.019C88.4807 246.674 88.1316 245.183 88.2261 243.286C88.0152 243.794 87.7534 245.758 87.2879 247.248C86.8224 248.731 86.1605 249.72 85.0986 248.099C85.0477 246.994 84.7132 245.648 83.3313 243.947C84.6695 243.511 83.804 241.722 83.0476 239.367L84.8877 239.047C84.255 237.854 83.7676 237.353 83.2658 236.989C82.7639 236.626 82.2548 236.4 81.6657 235.731C81.1711 232.772 82.4366 231.892 83.5204 230.976C83.2585 228.65 82.8294 229.544 82.3057 230.366C81.7821 231.18 81.1638 231.929 80.4947 229.173C80.4947 228.163 80.4147 227.247 80.2692 226.367C80.1601 225.48 79.9928 224.629 79.7601 223.757C79.3019 222.012 78.5455 220.201 77.8545 217.853C78.2836 215.01 79.0255 218.253 79.4837 217.206L77.8109 214.843C77.7963 214.232 78.2691 214.407 78.5091 214.494C77.8254 212.436 76.6326 214.429 76.0289 211.113C75.0107 210.691 75.658 208.939 76.3999 206.838C76.7853 205.784 77.1636 204.642 77.3017 203.508C77.4545 202.374 77.3236 201.232 76.8435 200.178C77.4472 199.204 77.9418 200.731 78.6909 200.462C78.1382 197.648 77.9563 196.412 77.6945 195.307C77.4472 194.194 77.1926 193.22 76.458 190.77C77.0254 189.505 77.5858 188.254 78.2477 187.033C76.3566 189.672 75.3743 185.775 74.6325 182.191C73.7815 183.107 73.0396 183.907 72.6541 184.459L72.6396 181.689C72.6251 180.758 72.7051 179.85 72.7342 178.926C73.1778 178.352 73.6797 179.028 74.2397 180.053C74.1743 179.661 74.1015 179.29 74.0288 178.992C75.1343 177.261 75.9489 178.497 76.6617 180.039C76.1598 180.591 75.6289 181.136 75.1052 181.667C75.978 183.194 76.9963 184.612 78.1163 184.546C77.9636 184.176 77.8981 183.499 77.92 182.772C78.16 183.165 78.3927 183.427 78.6037 183.31C78.8364 183.18 78.4946 182.562 78.2327 181.631L80.5238 180.918L79.7819 180.468L81.1711 177.334C81.6148 176.294 82.1821 175.284 82.6839 174.273C82.5094 172.986 82.2621 171.699 82.0293 170.369C81.8475 169.06 81.6657 167.7 81.5566 166.261C81.4984 165.541 81.462 164.792 81.4548 164.022C81.4548 163.251 81.5202 162.473 81.6002 161.644C81.6875 160.822 81.8111 159.972 81.9784 159.077C82.1457 158.19 82.3494 157.253 82.6767 156.315C83.2658 158.707 84.7859 157.674 86.4006 158.489C85.0914 159.07 84.7568 160.568 84.4804 162.32C84.3568 163.2 84.2186 164.131 84.0586 165.09C83.9131 166.05 83.6876 167.017 83.2803 167.926C84.1386 166.021 84.8004 166.748 84.9168 167.337C85.0696 164.916 85.4696 162.553 85.7823 160.117C86.4369 160.473 86.8297 160.226 87.2079 159.71C87.5934 159.194 88.0298 158.43 88.6771 157.718C87.0551 157.762 87.157 156.366 87.717 154.562C87.8552 154.112 88.0225 153.632 88.2043 153.152C88.408 152.679 88.6116 152.2 88.808 151.727C89.2008 150.782 89.5499 149.873 89.6808 149.124C90.6263 149.422 91.2009 150.498 89.3899 153.515C91.2591 152.279 91.0554 150.804 90.83 149.262C90.5827 147.721 90.4154 146.179 92.1828 144.965C91.7682 145.729 91.4045 146.063 91.6664 146.601C91.79 145.511 92.6264 143.969 93.441 142.886C94.2702 141.81 95.1357 141.243 95.1793 141.948L94.7284 142.682C95.5721 141.526 96.5831 140.036 97.6013 138.414C98.6487 136.815 99.7833 135.143 100.722 133.5C101.682 131.878 102.583 130.395 103.093 129.115C103.609 127.843 103.798 126.832 103.478 126.28C103.754 126.44 105.275 128.759 105.464 129.348C105.493 125.015 105.675 120.514 106.206 116.021C106.642 117.097 108.402 117.86 109.719 118.915C111.035 119.969 111.93 121.307 110.744 123.408C111.319 123.023 111.959 122.594 112.635 121.932C113.312 121.278 113.988 120.369 114.781 119.14C113.901 119.547 110.94 118.58 111.726 117.541C113.842 117.163 114.49 116.973 115.195 116.683C115.544 116.537 115.908 116.377 116.461 116.137C117.014 115.912 117.748 115.614 118.897 115.309C117.545 115.876 116.475 112.393 118.265 110.99C118.33 111.593 120.548 113.367 120.17 114.152L121.181 111.113C121.53 110.095 121.93 109.128 122.316 108.118C121.588 109.434 123.865 110.423 125.385 110.408C124.963 110.328 125.901 109.616 127.051 108.78C128.222 107.972 129.662 107.1 130.149 106.54L127.822 107.26C130.484 105.697 131.022 103.814 131.691 102.018C132.011 101.109 132.338 100.178 132.92 99.2768C133.509 98.3826 134.338 97.4592 135.742 96.7321C135.408 97.7064 136.28 101.218 139.182 100.026C139.284 99.4877 139.422 98.5789 139.662 97.4592C139.902 96.3395 140.222 94.9799 140.724 93.6421C141.219 92.2825 141.859 90.8648 142.674 89.5415C143.474 88.1965 144.492 87.0404 145.685 86.1534L147.096 86.5678C148.296 85.6299 149.489 84.6629 150.747 83.805C149.91 85.4409 148.31 88.3637 146.637 91.1919C145.786 92.5806 144.986 94.1074 144.208 95.4162C143.437 96.7467 142.703 97.91 142.077 98.8333C144.47 98.4407 143.175 99.5313 146.172 97.8954C147.641 98.1499 145.146 99.953 144.288 100.447L147.91 98.9206L148.812 98.5352L149.736 98.2008L151.576 97.5319C151.009 96.7103 152.18 95.6488 153.394 94.6018C154.631 93.6203 155.918 92.6824 155.474 91.9772C152.987 93.613 150.667 95.5107 148.339 97.2702C147.758 96.4631 148.288 94.7036 149.699 92.8569C150.412 91.9481 151.314 90.9593 152.434 90.1813C153.547 89.3961 154.834 88.7199 156.231 88.2619C157.875 88.4509 156.435 91.919 156.798 92.4788C157.024 92.0499 158.144 91.1992 159.344 90.6176C160.537 90.0286 161.759 89.5779 162.086 89.7233L160.151 91.4828C161.759 91.3301 162.755 90.3049 163.904 89.3816C165.046 88.4727 166.377 87.7602 168.45 88.1237C169.104 88.0147 170.195 88.3201 171.126 88.5963C172.057 88.8653 172.807 89.0108 172.777 88.4218C170.217 86.7205 167.984 80.1552 169.083 78.1848C169.344 78.1994 171.279 78.3012 173.337 78.4975C173.854 78.5484 174.378 78.592 174.887 78.6647C175.403 78.7447 175.898 78.8392 176.356 78.9264C177.272 79.1082 178.043 79.3118 178.472 79.5154C179.738 80.177 179.069 81.3548 178.392 82.5036C177.709 83.6523 177.018 84.772 178.072 85.3464C178.051 84.8084 179.12 83.9504 179.578 83.6523C181.025 83.8559 179.294 85.3827 182.211 84.6193C182.414 82.5836 188.335 84.0086 183.382 82.7799C184.822 82.3145 185.622 82.3145 186.495 82.3654C187.368 82.4236 188.299 82.489 190.037 82.3436C189.426 81.7474 190.102 80.606 191.346 79.5081C192.59 78.432 194.393 77.3124 195.935 77.0288C195.775 77.5378 196.495 78.1776 196.83 78.4684C198.394 78.4684 199.783 78.5266 201.063 78.6065C202.35 78.7301 203.529 78.9046 204.7 79.05C205.863 79.1955 207.013 79.3409 208.234 79.4936C209.449 79.6753 210.736 79.8353 212.177 79.9443C212.678 80.4533 215.377 81.2676 214.119 82.0092C214.969 81.7547 215.791 81.1876 217.559 81.3621C220.723 83.4924 213.631 81.1294 215.959 83.5069C216.3 82.4163 220.664 82.4236 223.261 82.2418C223.145 81.7692 222.73 81.4493 222.134 81.2312C221.53 81.0204 220.752 80.8968 219.893 80.9259C218.184 80.9404 216.235 81.2312 214.948 81.4348C215.071 80.2133 216.293 79.1009 218.322 78.2575C219.333 77.8504 220.548 77.4578 221.901 77.2397C223.254 77.0361 224.752 76.9198 226.352 76.9198C228.876 77.0361 229.305 77.625 229.247 78.0322C229.181 78.4539 228.614 78.8028 229.065 78.7229C231.305 79.3481 232.963 79.5154 234.324 79.4645C235.669 79.4717 236.709 79.2609 237.698 79.0719C238.687 78.8828 239.633 78.7229 240.768 78.8537C241.902 78.9846 243.204 79.5008 244.928 80.5405C247.35 83.0125 244.033 83.5215 244.317 84.8084C242.339 84.4594 240.986 83.7178 239.771 83.0052C238.549 82.3291 237.487 81.6311 236.171 81.2894L239.168 82.9107C237.793 83.0634 235.153 82.7217 233.88 81.8928C234.396 82.4018 235.582 82.9398 237.153 83.4996C237.938 83.7832 238.826 84.0668 239.778 84.3721C240.717 84.7066 241.72 85.0628 242.76 85.4336C243.793 85.8044 244.877 86.1607 245.939 86.5751C246.994 87.0113 248.041 87.4621 249.059 87.9129C250.07 88.3782 251.074 88.7999 251.961 89.3234C252.856 89.8323 253.685 90.3413 254.412 90.8502C255.758 90.8793 257.962 91.2792 257.3 90.2977L255.169 89.5779C253.801 87.5785 259.765 89.7451 257.416 88.0365C259.009 88.2328 260.674 88.5236 262.449 88.9889C263.329 89.2361 264.231 89.5415 265.126 89.9559C265.998 90.4067 266.871 90.9593 267.729 91.6573L267.54 93.6058C267.729 93.1114 265.628 91.2792 264.311 91.1629C265.286 91.2574 266.42 92.6097 267.657 93.7948C268.275 94.391 268.922 94.929 269.584 95.278C270.239 95.6488 270.922 95.8015 271.642 95.5761C271.01 94.6891 270.391 93.773 269.715 92.9296C270.508 93.1114 271.344 93.3077 272.224 93.5258C273.104 93.7366 274.021 93.9693 274.937 94.2456C275.846 94.5364 276.785 94.849 277.636 95.3144C278.487 95.7797 279.287 96.3322 280.007 97.0157C279.563 94.5437 279.178 96.6594 278.043 93.3513C278.348 95.0672 276.246 93.6858 274.297 92.4207C273.315 91.7881 272.384 91.1774 271.795 91.0247C271.199 90.8793 270.995 91.141 271.468 92.2098C270.864 90.4649 269.911 89.636 268.842 88.7781C267.773 87.9202 266.602 87.0259 265.38 85.2882C265.213 85.8626 266.042 86.895 263.227 85.121C263.016 85.2082 262.602 85.2373 262.347 85.2519C262.267 85.1937 262.238 85.1646 262.165 85.1137C262.216 85.1646 262.245 85.2082 262.296 85.2591C262.129 85.2737 262.107 85.2809 262.347 85.31C262.936 85.8989 263.358 86.4661 263.438 86.8732C262.398 87.1131 260.754 86.5969 259.096 86.088C257.431 85.6008 255.787 85.041 254.856 85.0047C253.212 83.9577 255.86 84.7211 255.154 83.7105L253.758 83.6523H252.347C252.623 82.3582 248.339 79.7408 252.914 80.7223L249.059 79.1373C248.048 78.3375 246.732 77.6686 245.422 77.1088C244.106 76.5708 242.79 76.1636 241.706 76.1418C239.88 75.3275 236.527 76.1709 238.447 75.6547C237.364 75.4947 236.28 75.3057 235.196 75.1675L231.931 74.8258L231.945 74.4914C228.84 73.6189 225.457 73.6553 222.075 73.3063C218.65 73.1463 215.217 72.6156 211.631 71.2342C210.54 71.3214 209.435 71.4086 208.147 71.4232C206.867 71.4814 205.405 71.4523 203.609 71.2269L202.918 70.0781C201.521 70.2017 199.427 70.0054 197.514 69.86C195.608 69.7291 193.892 69.6637 193.324 70.3326C192.532 69.6274 191.266 69.3002 189.753 69.2057C188.997 69.1548 188.168 69.162 187.309 69.2129C186.451 69.2784 185.557 69.4238 184.647 69.5692C182.836 69.8891 180.967 70.2235 179.272 70.6234C177.571 71.0233 176.014 71.3505 174.763 71.4377L174.858 72.9209C174.443 72.9864 174.028 73.0591 173.614 73.1391C173.207 73.2408 172.799 73.3426 172.392 73.459C171.577 73.6843 170.755 73.9388 169.926 74.2151C169.09 74.4914 168.239 74.7967 167.344 75.1312C166.464 75.4802 165.555 75.9019 164.588 76.3236L165.184 77.5087C163.62 78.5266 161.351 78.8537 158.842 79.3845C157.584 79.6244 156.245 79.8643 154.885 80.1624C153.547 80.5042 152.194 80.9404 150.892 81.4857C151.067 80.8822 152.456 80.4751 153.511 80.3806C151.678 80.3079 149.954 80.7368 148.325 81.413C146.717 82.1328 145.219 83.1579 143.757 84.1613C142.281 85.1355 140.921 86.277 139.495 87.1422C138.07 88.022 136.593 88.6545 135.015 88.9744C133.924 90.1522 132.891 90.5594 131.793 90.8066C131.916 90.7339 132.011 90.6466 132.084 90.5594C131.938 90.6248 131.735 90.7412 131.531 90.8575C130.825 90.9956 130.098 91.141 129.356 91.3737C130.069 91.301 130.716 91.1774 131.247 91.0247C130.244 91.6354 128.833 92.7769 127.538 93.9838L126.141 93.2132C126.032 93.3077 125.931 93.3658 125.821 93.4676C124.076 93.9766 125.029 94.7691 126.382 95.1471C125.763 95.8015 125.283 96.514 124.963 97.1466C123.756 96.6158 122.927 97.4374 122.047 98.2808C121.603 98.7025 121.152 99.1242 120.621 99.3932C120.097 99.6767 119.508 99.8076 118.766 99.6258C118.657 100.455 117.072 101.989 115.617 103.617C114.228 105.319 112.991 107.115 113.472 108.336C113.217 108.132 112.73 108.351 113.413 107.725C111.755 108.736 110.191 109.885 109.428 111.571L107.602 110.852L106.918 113.156L106.329 115.505C103.813 116.574 102.591 116.937 103.362 114.145C102.678 115.628 102.154 116.617 101.74 117.373C101.347 118.144 101.027 118.66 100.736 119.147C100.154 120.129 99.6087 121.016 98.7578 123.655L98.0232 122.725C96.8958 124.222 96.2994 127.487 94.8521 127.785C93.7902 128.279 92.5246 129.595 91.0554 131.369C90.6918 131.82 90.3063 132.285 89.9353 132.794C89.579 133.318 89.208 133.856 88.8225 134.416C88.0734 135.55 87.2806 136.757 86.4515 138C83.3385 143.119 80.1528 149.102 77.1126 153.661C79.1055 153.392 78.2182 154.366 77.1708 155.617C76.1598 156.882 74.9307 158.438 76.0798 159.107C75.1052 159.397 74.1233 160.648 74.1161 158.765C73.9561 159.448 73.767 160.066 73.5633 160.648C73.3742 161.23 73.1924 161.782 72.9887 162.291C72.5887 163.316 72.1668 164.218 71.7959 165.083C71.0322 166.799 70.6322 168.427 71.1777 170.565C70.2322 170.958 70.3704 169.104 69.7594 169.511C69.803 169.991 69.9485 171.401 69.3303 171.83C68.7121 172.252 68.9012 170.87 68.8066 169.918C68.4502 171.307 68.3193 172.419 68.3629 173.328C68.4429 174.244 68.6902 174.935 69.0394 175.487C69.7376 176.585 70.8504 177.087 71.9341 177.545C71.0831 178.788 70.6104 179.77 70.494 180.722C70.414 181.682 70.6758 182.612 71.2431 183.739C70.3267 184.554 69.2503 186.044 69.5921 182.583C69.4757 183.056 69.2285 184.016 68.9303 185.193C68.7921 185.782 68.6393 186.429 68.4793 187.098C68.3557 187.775 68.2466 188.465 68.152 189.156C67.7738 191.897 67.6502 194.449 68.6102 194.638C68.0938 195.198 68.2684 197.335 68.4429 197.852C68.3266 198.935 68.232 199.771 68.1593 200.476C68.0866 201.189 68.0647 201.778 68.0284 202.359C67.9629 203.53 67.9338 204.693 67.9702 206.831L68.3048 205.653C70.4649 207.347 68.7993 209.172 69.1557 212.596L68.923 212.509C68.5375 214.487 68.5157 215.694 68.5375 216.501C68.5666 217.308 68.6902 217.722 68.7993 218.137C68.9157 218.544 69.0175 218.951 69.0175 219.751C69.0175 220.15 68.9884 220.645 68.9303 221.292C68.8939 221.939 68.8284 222.732 68.7266 223.72L70.0576 223.139C71.5923 223.32 71.3668 225.044 70.974 227.297C70.654 229.537 70.254 232.336 71.2213 234.444C71.3741 233.863 71.5486 233.274 71.7086 232.692C72.3923 233.805 71.7959 235.651 71.0177 237.614C70.254 239.563 69.2794 241.635 69.4757 242.9C69.3812 243.496 68.8139 242.173 68.4502 241.461C68.5302 248.36 70.4431 241.831 72.1887 246.434C71.5123 247.59 69.4248 246.027 70.2467 249.284C70.1376 250.2 71.6723 252.272 73.2069 254.664C74.0288 255.842 74.8434 257.107 75.4543 258.379C75.7598 259.019 76.0071 259.659 76.1817 260.291C76.378 260.917 76.5017 261.542 76.5162 262.153C76.7999 260.931 77.0981 259.753 78.5527 261.586C78.9746 262.349 79.2582 263.338 79.5128 264.421C79.6365 264.966 79.7601 265.534 79.8837 266.108C80.0292 266.675 80.1747 267.249 80.342 267.817C81.0111 270.07 81.8402 272.244 83.7095 273C83.7458 273.488 83.6585 273.728 83.5058 273.837C83.9713 274.338 84.5313 275.029 85.135 275.785C85.7387 276.541 86.3787 277.377 87.0842 278.133C88.4662 279.66 89.8408 281.013 90.8081 281.311C90.1099 282.503 90.5463 283.834 91.4336 285.244C92.3355 286.64 93.7174 288.101 95.1721 289.381C96.6122 290.675 97.9504 291.919 98.8014 292.951C99.6524 293.976 99.9288 294.885 99.0778 295.597C100.009 296.594 100.911 297.626 101.871 298.593L104.78 301.472L104.307 301.632C104.736 302.134 105.136 302.577 105.529 302.977C105.922 303.377 106.315 303.704 106.678 304.002C107.413 304.598 108.075 305.035 108.686 305.369C109.915 306.031 110.926 306.293 111.966 306.496C112.671 307.507 111.733 307.245 111.5 307.347C114.082 310.168 115.544 311.724 117.232 312.727C118.061 313.243 118.926 313.665 119.967 314.087C120.999 314.523 122.265 314.901 123.88 315.366L123.581 316.922C124.054 317.002 124.767 317.555 125.691 318.391C126.607 319.227 127.8 320.245 129.138 321.394C129.814 321.961 130.527 322.55 131.284 323.124C132.062 323.669 132.869 324.207 133.713 324.716C134.557 325.225 135.422 325.698 136.309 326.119C137.19 326.548 138.135 326.832 139.066 327.086C138.928 327.195 138.659 327.377 138.026 327.283C142.157 328.504 146.274 331.565 150.201 333.724C151.176 334.262 152.129 334.757 153.045 335.164C153.503 335.368 153.947 335.557 154.391 335.709C154.834 335.847 155.271 335.957 155.685 336.044C157.365 336.371 158.827 336.196 159.962 335.193L161.373 335.331L162.799 335.404L165.628 335.535C162.26 334.364 162.697 333.899 163.62 333.506C164.551 333.121 165.97 332.808 164.719 332.001C166.072 332.227 167.657 333.085 168.515 333.819C169.381 334.502 169.49 335.113 167.81 334.808L167.366 334.408C165.424 336.829 175.672 337.418 175.134 339.119C182.065 340.45 188.96 341.504 195.826 342.202C197.55 342.34 199.259 342.478 200.968 342.616C202.678 342.696 204.387 342.718 206.089 342.762C206.94 342.769 207.791 342.813 208.634 342.784C209.478 342.747 210.322 342.718 211.166 342.682C212.009 342.638 212.846 342.595 213.689 342.558C214.526 342.515 215.362 342.464 216.191 342.355C215.602 341.708 215.028 341.082 214.453 340.406C215.98 340.304 217.501 340.115 219.028 339.977C220.286 340.319 220.875 341.417 217.566 341.751C218.504 342.238 219.864 341.809 220.97 341.206C222.083 340.624 222.919 339.737 222.934 339.519C226.17 339.381 225.676 340.101 224.585 340.821C223.494 341.54 221.814 342.267 222.803 342.115L225.457 341.482L224.81 341.344C225.821 340.726 226.323 340.181 227.065 339.715C227.436 339.483 227.865 339.279 228.447 339.076C229.021 338.857 229.749 338.647 230.716 338.45C233.254 338.305 232.272 339.439 233.254 339.294C233.283 339.439 233.633 339.432 234.76 339.01C236.673 338.574 238.564 338.072 240.477 337.6L237.757 336.625C238.884 335.877 240.193 335.528 240.84 335.222C241.48 334.895 241.459 334.677 239.902 334.124C242.179 334.953 247.444 333.535 252.281 331.543C253.51 331.092 254.667 330.511 255.787 330.002C256.9 329.486 257.947 328.999 258.885 328.57C260.747 327.675 262.136 326.977 262.791 326.919C263.453 326.236 264.144 325.625 264.871 325.065C265.584 324.476 266.318 323.916 267.104 323.4C268.668 322.346 270.421 321.437 272.29 320.281C271.184 320.572 269.657 319.307 272.908 317.504C273.155 318.507 273.694 318.863 274.435 318.842C275.177 318.82 276.137 318.442 277.141 317.875C278.159 317.329 279.272 316.668 280.392 316.18C280.952 315.933 281.52 315.73 282.072 315.599C282.611 315.446 283.149 315.373 283.665 315.417C282.014 315.533 284.087 313.759 285.927 312.044C286.865 311.2 287.673 310.284 287.971 309.681C288.269 309.07 288.029 308.735 286.793 308.932C289.375 307.114 287.876 309.921 290.306 309.034C290.895 308.263 291.564 307.558 292.233 306.809C292.902 306.067 293.615 305.347 294.364 304.642C295.113 303.93 295.913 303.246 296.713 302.534C297.499 301.807 298.306 301.079 299.135 300.345C299.957 299.604 300.823 298.884 301.645 298.099C302.452 297.306 303.274 296.506 304.081 295.677C305.732 294.056 307.209 292.231 308.561 290.297C308.241 289.876 306.663 290.617 307.296 288.581C309.012 287.832 310.612 286.967 312.285 286.109C312.722 285.273 312.365 284.503 312.329 283.725C312.307 283.332 312.365 282.947 312.642 282.539C312.904 282.125 313.369 281.689 314.198 281.223C313.58 281.391 312.656 281.623 313.187 280.504C319.231 273.538 323.152 264.85 326.308 256.045C329.494 247.19 331.959 238.262 335.771 229.348C334.345 231.696 334.549 230.002 334.847 228.097C334.396 229.297 333.603 227.879 332.876 228.017C333.37 226.796 333.843 225.553 334.33 224.309C334.796 223.059 335.334 221.815 335.734 220.543C334.832 219.743 334.956 217.664 335.087 215.665C335.167 214.661 335.181 213.68 335.08 212.894C334.978 212.109 334.76 211.52 334.309 211.302L334.578 213.76C333.53 212.087 332.316 213.193 330.963 214.567C329.574 215.948 328.083 217.591 326.708 217.25C327.261 218.151 327.261 219.169 327.006 220.252C326.723 221.336 326.126 222.477 325.588 223.684C325.312 224.287 325.05 224.905 324.824 225.538C324.606 226.178 324.417 226.825 324.264 227.487C323.988 228.824 324.017 230.235 324.635 231.791C323.857 232.903 323.937 230.577 323.188 231.107C324.155 232.729 323.959 234.474 322.73 237.447L322.526 237.026C322.417 237.571 322.308 238.102 322.199 238.611C322.075 239.119 321.93 239.599 321.799 240.065C321.522 241.003 321.253 241.882 320.97 242.718C320.439 244.405 319.762 245.896 319.064 247.408C318.708 248.157 318.351 248.92 317.98 249.705C317.617 250.491 317.151 251.276 316.715 252.119C315.813 253.799 314.882 255.682 313.645 257.834L315.209 257.725C314.155 259.608 313.58 259.833 312.86 260.597C313.733 263.738 315.442 255.166 316.627 258.147C315.689 258.525 314.831 259.564 314.009 260.931C313.187 262.298 312.271 263.919 311.42 265.548C311.202 265.955 310.983 266.355 310.772 266.755C310.547 267.148 310.307 267.518 310.074 267.882C309.609 268.609 309.136 269.285 308.671 269.86C307.74 271.008 306.823 271.772 305.87 271.743C304.088 274.484 307.747 271.772 305.958 274.527L304.765 274.796L305.245 276.105C304.597 276.977 303.863 277.465 303.223 277.69C302.59 277.923 302.052 277.901 301.725 277.719C302.095 277.348 302.408 276.403 302.677 275.923C301.455 276.759 300.408 278.381 299.55 279.886C298.692 281.383 297.921 282.685 297.513 282.961C298.292 282.249 299.092 281.551 299.863 280.816C299.273 281.762 298.612 282.699 297.928 283.652C297.23 284.59 296.568 285.586 295.768 286.487C294.197 288.312 292.64 290.232 290.917 291.991C290.073 292.886 289.244 293.787 288.422 294.689C287.564 295.554 286.727 296.419 285.92 297.299C284.342 299.087 282.72 300.738 281.367 302.505L282.29 302.57C281.752 303.232 281.287 303.777 280.858 304.228C280.414 304.657 280.014 305.006 279.643 305.289C278.908 305.864 278.297 306.205 277.657 306.54C277.01 306.867 276.37 307.23 275.497 307.747C274.625 308.263 273.57 308.997 272.159 310.175L272.29 309.891C271.49 311.302 269.984 312.611 268.253 313.643C269.395 312.007 264.551 314.261 266.137 312.24C265.802 312.552 265.504 312.829 265.227 313.091C264.944 313.338 264.689 313.556 264.464 313.752C264.006 314.152 263.656 314.472 263.387 314.741C262.842 315.279 262.602 315.606 262.442 315.919C262.282 316.239 262.209 316.544 261.991 317.06C261.765 317.569 261.409 318.304 260.602 319.372L259.111 318.929C258.609 319.736 258.376 320.274 257.882 320.848C257.38 321.415 256.623 322.077 254.972 322.949C257.343 320.863 252.136 322.426 254.696 319.932C252.703 320.187 251.139 320.732 249.823 321.394C248.492 322.019 247.386 322.709 246.39 323.357C245.386 323.982 244.513 324.593 243.568 324.811C242.63 325.043 241.67 325 240.571 324.462C239.386 326.439 241.073 326.301 242.884 325.821C244.702 325.378 246.535 324.389 245.728 325.072C246.673 325.225 246.193 326.01 245.161 326.846C244.113 327.639 242.491 328.424 241.284 328.679C240.084 329.057 238.789 328.497 237.058 327.988C236.193 327.748 235.233 327.537 234.12 327.494C233.56 327.472 232.971 327.494 232.331 327.574C231.683 327.624 230.992 327.726 230.251 327.908C230.847 327.784 230.832 327.559 231.429 327.435C230.221 327.319 229.196 327.821 228.083 328.286C227.53 328.519 226.948 328.737 226.323 328.86C225.69 328.955 225.014 328.955 224.265 328.773C223.035 330.823 220.664 329.311 220.577 331.667L226.076 330.147C224.556 330.722 223.166 331.812 221.443 332.714C219.726 333.608 217.639 334.161 214.897 333.87C215.268 333.354 216.773 332.547 217.806 332.074C216.991 331.834 216.264 332.038 215.529 332.249C214.795 332.452 214.046 332.67 213.209 332.365C213.268 331.776 213.726 331.449 214.417 331.172C215.108 330.903 216.046 330.736 217.071 330.576C218.097 330.416 219.224 330.271 220.279 330.009C221.326 329.704 222.315 329.311 223.072 328.73C222.177 328.381 220.686 329.115 219.537 329.493C218.388 329.864 217.631 330.002 218.308 328.657C217.319 330.38 215.791 330.474 214.075 330.496C212.337 330.445 210.424 330.293 208.424 331.66L208.62 330.264C207.987 330.554 206.663 331.238 205.449 331.223L207.543 329.384C205.922 330.184 204.3 329.893 202.714 329.515C201.129 329.173 199.594 328.562 198.001 328.955C201.31 329.028 201.681 329.435 201.579 329.973C201.478 330.525 200.874 331.216 202.307 331.681C201.267 331.958 200.408 332.023 199.681 332.045C198.961 332.052 198.379 331.98 197.885 331.849C196.903 331.58 196.292 331.078 195.659 330.54C195.026 330.016 194.372 329.384 193.317 328.911C192.255 328.431 190.786 328.133 188.502 328.082C189.739 328.024 193.062 329.268 191.077 329.769C190.211 329.551 189.215 329.311 188.32 328.933C187.426 328.555 186.626 328.141 186.146 327.712C180.102 327.239 186.888 329.238 184.204 329.755C182.371 327.864 181.142 329.973 178.341 330.038L178.581 328.657C177.745 328.395 177.076 328.235 176.545 328.155C176.014 328.053 175.614 328.032 175.301 328.068C174.668 328.141 174.385 328.446 174.123 328.751C173.599 329.355 173.156 329.958 170.166 328.708L173.243 327.421C172.145 327.326 171.025 327.283 169.926 327.145L170.974 325.778C169.119 325.887 167.941 325.763 166.821 325.465C166.261 325.312 165.722 325.116 165.119 324.869C164.515 324.622 163.868 324.265 163.082 323.887C163.548 325.087 161.86 326.163 158.856 325.196C157.14 323.684 160.413 324.396 156.231 322.971C156.856 322.746 157.511 322.477 158.18 322.499C158.515 322.506 158.849 322.6 159.184 322.797C159.526 322.979 159.867 323.277 160.209 323.735C160.551 323.364 161.424 323.218 161.759 322.855C159.926 321.299 156.551 320.681 155.074 320.128C155.62 320.397 156.26 320.732 156.529 321.052C155.438 320.965 154.325 320.892 153.22 320.783L149.925 320.361C149.227 319.467 150.136 319.416 151.016 319.358C150.398 319.161 149.823 319.118 149.176 319.045C148.529 318.965 147.801 318.871 146.936 318.478C147.874 317.671 148.274 316.609 150.9 317.184C148.899 316.791 146.965 316.224 144.986 315.693C144.921 315.381 144.397 314.734 144.005 314.159C143.605 313.599 143.372 313.054 143.801 313.069C142.55 311.949 140.535 311.455 138.397 310.808C137.35 310.451 136.273 310.066 135.255 309.572C134.244 309.077 133.262 308.503 132.506 307.667C132.193 307.718 131.698 307.623 130.84 307.216C130.033 306.562 129.291 305.871 128.556 305.173C127.851 304.446 127.16 303.704 126.418 302.999C125.676 302.294 124.869 301.632 123.967 301.007C123.087 300.352 122.09 299.763 120.905 299.255C120.665 298.12 120.388 297.052 120.199 295.903C118.672 294.769 118.897 295.874 118.89 296.804C118.876 297.735 118.621 298.484 116.01 296.528C114.119 295.176 114.112 294.572 114.497 294.114C114.875 293.656 115.617 293.358 115.275 292.587C114.141 292.137 112.511 291.562 110.94 290.566C109.391 289.556 107.995 288.036 107.253 285.928C108.453 286.727 108.933 287.738 109.893 288.618V288.61ZM85.0986 248.2C85.3896 248.593 85.8914 249.146 86.2551 249.713C86.6478 250.273 86.8951 250.847 86.6333 251.305C85.6878 251.101 85.3168 250.731 85.1641 250.222C85.0259 249.698 85.135 249.022 85.0986 248.2ZM78.9019 175.662C79.1564 176.461 78.7128 177.465 77.9127 178.555C78.0072 177.654 78.2691 176.665 78.9019 175.662ZM245.757 78.8465C245.706 78.8537 245.677 78.861 245.633 78.8755C243.633 77.625 244.339 78.0903 245.757 78.8465ZM250.012 81.0422C250.528 81.0349 250.565 80.8386 250.448 80.5841C250.012 80.795 249.015 80.4169 247.917 79.8934C248.114 80.3515 248.586 80.8168 250.012 81.0422ZM233.662 338.698L232.68 338.545C234.6 337.687 234.12 338.174 233.662 338.698Z" fill="white"/>
<path d="M78.9532 184.292C78.6768 184.51 78.4004 184.532 78.1313 184.546C78.2986 184.953 78.5677 185.012 78.9532 184.292Z" fill="white"/>
<path d="M132.397 307.557C132.433 307.594 132.47 307.616 132.506 307.652C132.615 307.63 132.702 307.579 132.768 307.528L132.397 307.557Z" fill="white"/>
<path d="M179.906 85.7751C178.997 85.7315 178.458 85.5643 178.08 85.368C178.095 85.717 178.553 85.9278 179.906 85.7751Z" fill="white"/>
<path d="M273.73 90.1448C272.807 89.6795 271.839 89.2869 270.894 88.8797C272.218 89.5705 272.53 90.0794 273.039 90.6829C273.156 90.3702 272.908 89.6432 273.73 90.1448Z" fill="white"/>
<path d="M289.12 112.706C289.542 112.873 289.782 113.309 290.204 113.469L290.568 112.916C289.222 111.695 287.957 111.215 289.12 112.706Z" fill="white"/>
<path d="M273.607 95.5977C273.388 96.1575 273.723 96.6011 274.341 97.03C274.654 97.2409 275.04 97.4517 275.461 97.6626C275.876 97.8879 276.32 98.1351 276.778 98.3896C276.676 98.3242 276.574 98.2587 276.48 98.1788C277.2 97.6771 277.025 97.2191 276.407 96.7755C275.781 96.3393 274.683 95.9831 273.607 95.605V95.5977Z" fill="white"/>
<path d="M277.192 98.6369C277.745 98.9641 278.298 99.3203 278.778 99.7275C279.367 99.3349 278.218 99.1604 277.192 98.6369Z" fill="white"/>
<path d="M255.882 82.6052C256.682 83.3032 257.075 81.4855 257.402 82.1617C258.231 81.7109 256.486 81.4201 255.227 81.4492C254.602 81.4492 254.085 81.58 254.071 81.7618C254.064 81.9363 254.536 82.2053 255.882 82.5979V82.6052Z" fill="white"/>
<path d="M272.872 99.7492L273.061 98.1424L271.461 98.506L272.872 99.7492Z" fill="white"/>
<path d="M259.489 90.7846L262.21 92.6313C262.282 92.3914 262.719 92.4568 263.22 92.595C261.453 91.6353 259.613 90.3702 259.489 90.7919V90.7846Z" fill="white"/>
<path d="M263.228 92.595C264.144 93.1112 265.01 93.6056 265.635 93.6783C265.133 93.4165 264.057 92.8203 263.228 92.595Z" fill="white"/>
<path d="M268.915 97.7354C268.697 97.4809 268.486 97.2119 268.268 96.9647L266.341 95.7359C267.199 96.4048 268.094 97.0156 268.915 97.7354Z" fill="white"/>
<path d="M226.374 79.2463L222.789 79.0281C222.352 79.4571 223.254 79.9297 224.585 79.9661C225.48 79.7697 226.825 79.8134 226.374 79.2463Z" fill="white"/>
<path d="M235.808 85.5934C234.986 85.0481 235.015 84.7136 234.622 84.1029L234.055 85.8188L235.808 85.5934Z" fill="white"/>
<path d="M225.902 83.6377C225.451 84.0666 220.738 84.1757 225.029 84.8301C225.247 84.6192 226.222 84.5538 226.767 84.4374C227.036 84.3865 227.203 84.3138 227.109 84.1902C227.014 84.0594 226.672 83.8703 225.909 83.6377H225.902Z" fill="white"/>
<path d="M173.723 81.9363L174.589 81.7109L173.847 78.8463L173.723 81.9363Z" fill="white"/>
<path d="M134.783 105.849C138.485 104.33 134.586 103.785 138.085 102.636C138.31 102.112 137.568 102.294 136.87 102.563C136.164 102.818 135.466 103.079 135.706 102.563C134.062 104.497 132.782 104.817 134.775 105.857L134.783 105.849Z" fill="white"/>
<path d="M135.713 102.556C135.975 102.25 136.252 101.901 136.521 101.502C136.026 102.04 135.823 102.338 135.713 102.556Z" fill="white"/>
<path d="M337.648 215.417C337.946 214.487 338.135 213.541 338.382 212.603L337.342 214.399C337.466 214.741 337.546 215.083 337.655 215.424L337.648 215.417Z" fill="white"/>
<path d="M335.633 209.928L337.538 209.295L335.873 207.594C335.938 208.227 336.076 209.455 335.633 209.928Z" fill="white"/>
<path d="M86.6046 240.37L86.1173 240.312C85.7464 240.821 85.8773 241.395 86.1173 242.544L86.6046 240.37Z" fill="white"/>
<path d="M99.0928 271.757L98.8091 271.241L97.9581 273.08L99.0928 271.757Z" fill="white"/>
<path d="M118.563 292.398C118.178 291.969 117.654 291.613 117.167 291.213C116.679 290.813 116.192 290.413 115.821 289.97C117.734 291.584 117.305 294.121 118.556 292.398H118.563Z" fill="white"/>
<path d="M158.971 186.903C156.785 172.558 155.327 162.324 149.679 152.515C159.075 150.771 171.04 157.423 169.756 156.357C165.235 152.61 158.867 149.999 153.245 149.791C151.371 149.722 147.866 149.947 145.679 150.685C145.679 150.685 148.586 155.793 149.367 157.51C155.978 172.037 154.885 189.175 163.153 203.208C164.003 204.647 159.908 193.034 158.971 186.903Z" fill="white"/>
<path d="M146.955 216.46C146.955 216.46 143.146 212.687 138.99 207.778C137.42 205.931 132.622 199.643 131.806 198.698C128.518 194.882 125.49 192.818 121.204 190.493C128.162 183.572 136.518 182.835 134.852 182.826C130.843 182.792 127.052 183.754 123.668 185.619C122.15 186.46 118.437 189.123 116.406 191.803C116.406 191.803 122.957 193.277 131.086 201.56C132.396 202.895 137.281 208.637 138.461 209.79C141.038 212.297 143.918 214.474 146.946 216.469L146.955 216.46Z" fill="white"/>
<path d="M186.778 189.331C187.298 176.044 191.645 163.52 200.642 152.22C209.639 163.529 213.986 176.053 214.507 189.331C214.828 197.596 212.147 211.239 212.719 209.669C215.313 202.618 216.676 193.824 216.502 187.631C216.086 172.931 210.576 158.62 200.642 147.276C190.708 158.62 185.199 172.931 184.782 187.631C184.609 193.832 185.971 202.618 188.565 209.669C189.138 211.239 186.457 197.596 186.778 189.331Z" fill="white"/>
<path d="M251.597 152.515C245.949 162.332 244.491 172.558 242.305 186.903C241.368 193.034 237.273 204.639 238.123 203.208C246.4 189.175 245.298 172.037 251.909 157.51C252.69 155.784 255.596 150.685 255.596 150.685C253.41 149.947 249.896 149.722 248.031 149.791C242.409 149.999 236.049 152.61 231.52 156.357C230.236 157.423 242.201 150.771 251.597 152.515Z" fill="white"/>
<path d="M277.599 185.619C274.207 183.754 270.424 182.792 266.416 182.826C264.75 182.844 273.105 183.581 280.063 190.493C275.777 192.818 272.749 194.882 269.461 198.698C268.645 199.643 263.847 205.922 262.277 207.778C258.121 212.687 254.312 216.46 254.312 216.46C257.34 214.465 260.221 212.288 262.798 209.782C263.978 208.637 268.862 202.887 270.172 201.551C278.302 193.269 284.852 191.794 284.852 191.794C282.822 189.123 279.117 186.452 277.59 185.61L277.599 185.619Z" fill="white"/>
<path d="M200.634 268.723C193.545 261.342 191.697 258.48 192.287 259.911C194.196 264.542 196.99 268.966 200.634 272.652C204.278 268.966 207.071 264.542 208.98 259.911C209.57 258.48 207.713 261.342 200.634 268.723Z" fill="white"/>
<path d="M287.976 199.851C290.197 198.654 296.938 196.061 296.938 196.061C295.923 193.069 293.667 188.481 291.862 186.226C284.011 176.443 269.66 173.321 257.167 174.76C258.46 167.085 260.229 158.941 265.583 153.954C267.153 152.488 272.914 148.551 272.697 148.343C270.667 146.348 267.274 144.527 265.964 143.894C249.289 135.776 230.714 143.408 217.76 155.689C212.641 146.209 206.316 137.311 200.634 128.109C194.942 137.311 188.617 146.218 183.507 155.689C170.545 143.408 151.97 135.776 135.303 143.894C134.001 144.527 130.6 146.348 128.57 148.343C128.353 148.56 134.123 152.497 135.685 153.954C141.038 158.95 142.816 167.085 144.1 174.76C131.607 173.321 117.257 176.452 109.405 186.226C107.592 188.481 105.344 193.069 104.329 196.061C104.329 196.061 111.071 198.654 113.292 199.851C119.079 202.973 123.877 207.7 128.484 212.765C120.259 215.228 113.474 221.325 110.194 229.183C108.867 232.366 108.26 235.74 107.895 237.873C107.895 237.873 116.537 237.951 119.087 238.212C126.722 238.975 133.559 241.776 140.63 245.878C142.114 246.737 143.606 247.544 145.116 248.307C141.775 251.368 139.467 255.193 138.409 259.521C138.036 261.056 137.481 264.941 137.394 268.636C137.394 268.636 143.181 267.526 145.341 267.387C152.811 266.884 159.995 268.619 167.621 267.326C173.269 266.372 178.397 263.961 182.787 260.492C182.961 264.222 185.607 268.185 186.795 270.128C190.621 276.407 196.096 282.305 200.634 287.5C205.171 282.305 210.637 276.407 214.472 270.128C215.661 268.185 218.307 264.23 218.48 260.492C222.87 263.961 227.998 266.372 233.646 267.326C241.272 268.619 248.456 266.884 255.926 267.387C258.078 267.535 263.873 268.636 263.873 268.636C263.795 264.95 263.24 261.056 262.858 259.521C261.8 255.193 259.492 251.368 256.152 248.307C257.653 247.544 259.154 246.737 260.637 245.878C267.717 241.776 274.545 238.975 282.189 238.212C284.739 237.96 293.381 237.873 293.381 237.873C293.008 235.74 292.409 232.366 291.082 229.183C287.802 221.334 281.009 215.237 272.792 212.765C277.399 207.7 282.206 202.965 287.984 199.851H287.976ZM266.442 148.551C251.848 157.423 253.271 180.953 248.63 195.515C242.4 215.055 226.939 229.79 207.201 234.153C223.391 219.799 231.182 196.998 225.786 175.524C224.354 169.817 222.202 164.448 219.634 159.271C232.041 147.077 250.243 139.106 266.442 148.542V148.551ZM200.634 135.273C207.375 145.758 214.455 156.105 219.114 167.701C228.813 191.837 221.352 219.374 200.634 234.474C179.907 219.383 172.454 191.837 182.154 167.701C186.813 156.105 193.892 145.767 200.634 135.273ZM134.826 148.551C151.024 139.115 169.226 147.085 181.633 159.279C179.065 164.457 176.913 169.826 175.482 175.532C170.085 197.007 177.876 219.799 194.066 234.161C174.319 229.79 158.867 215.064 152.638 195.523C147.996 180.962 149.419 157.432 134.826 148.56V148.551ZM109.301 193.945C114.741 180.58 131.607 176.773 144.751 178.724C144.994 180.233 146.278 186.72 146.703 188.542C148.707 197.085 151.544 205.471 156.412 212.835C164.428 224.959 176.636 233.424 190.413 237.197C173.781 239.486 156.403 234.881 143.545 223.719C140.266 220.874 135.051 215.584 132.24 211.924C125.646 204.457 118.992 197.128 109.301 193.945ZM178.215 258.974C173.252 262.253 167.448 264.065 161.27 263.883C154.338 263.684 148.291 262.765 141.706 263.857C141.992 258.428 144.517 253.441 148.898 250.145C148.907 250.137 148.916 250.128 148.933 250.119C153.748 252.218 158.746 253.727 164.159 254.352C171.074 255.15 178.197 254.525 184.635 252.27C183.455 254.733 180.071 257.76 178.223 258.983L178.215 258.974ZM152.95 247.7C145.749 245.011 139.702 240.137 132.587 237.292C126.184 234.725 119.452 233.806 112.615 234.179C115.018 225.081 122.185 218.134 131.399 216.018C136.839 222.141 142.244 228.35 148.959 232.461C163.101 241.126 180.28 243.728 196.339 240.076C185.962 252.106 167.179 252.999 152.95 247.691V247.7ZM210.177 269C207.219 273.337 204 277.474 200.634 281.489C197.267 277.474 194.049 273.328 191.09 269C189.042 266.008 186.882 262.383 187.021 258.532C187.142 255.011 188.557 252.426 190.969 249.911C192.626 248.185 198.1 243.667 200.642 240.787C203.184 243.667 208.659 248.185 210.316 249.911C212.728 252.426 214.134 255.011 214.264 258.532C214.403 262.383 212.234 266.008 210.195 269H210.177ZM259.561 263.849C252.976 262.756 246.929 263.675 239.997 263.875C233.811 264.048 228.015 262.244 223.053 258.966C221.205 257.743 217.821 254.716 216.641 252.253C223.087 254.508 230.202 255.132 237.116 254.334C242.522 253.71 247.528 252.201 252.343 250.102C252.352 250.111 252.36 250.119 252.378 250.128C256.759 253.432 259.284 258.411 259.57 263.84L259.561 263.849ZM288.644 234.17C281.807 233.788 275.074 234.716 268.671 237.284C261.557 240.128 255.51 245.011 248.309 247.691C234.08 252.999 215.305 252.106 204.92 240.076C220.979 243.728 238.158 241.117 252.3 232.461C259.015 228.35 264.42 222.141 269.86 216.018C279.065 218.134 286.24 225.081 288.644 234.179V234.17ZM269.018 211.915C266.207 215.575 260.993 220.866 257.713 223.71C244.856 234.872 227.477 239.478 210.845 237.188C224.614 233.415 236.83 224.951 244.847 212.826C249.714 205.463 252.543 197.076 254.555 188.533C254.98 186.712 256.265 180.224 256.507 178.715C269.652 176.755 286.518 180.571 291.958 193.936C282.267 197.128 275.603 204.448 269.018 211.915Z" fill="white"/>
</svg>
