<svg width="263" height="94" viewBox="0 0 263 94" fill="none" xmlns="http://www.w3.org/2000/svg">
<path d="M147.563 0H117.774V3.50459H147.563V0Z" fill="#DAB863"/>
<path d="M124.199 7.00917H117.774V43.2232H124.199V40.3028C126.73 40.3028 132.376 40.1859 134.713 39.7187C137.049 39.2514 140.359 36.7982 141.722 35.63V43.2232H147.563V7.00917H141.722V8.76147C141.722 10.5138 141.488 16.0043 140.553 23.948C139.619 31.8917 133.934 33.8777 131.208 33.8777H124.199V7.00917Z" fill="#DAB863"/>
<path d="M162.165 1.75229H155.74V44.3914H162.165V26.8685L169.758 22.1957L172.679 26.8685C174.236 29.789 177.235 36.2141 176.768 38.5505C176.3 40.8869 174.626 43.4179 173.847 44.3914H182.024C182.414 43.8073 183.309 42.055 183.777 39.7187C184.244 37.3823 182.803 32.9042 182.024 30.9572L176.183 18.6911L185.529 13.4343L182.024 7.59327L162.165 18.6911V1.75229Z" fill="#DAB863"/>
<path d="M198.963 18.107L187.865 41.471L193.706 44.3914L204.804 21.0275L198.963 18.107Z" fill="#DAB863"/>
<path d="M211.229 29.2049H203.636V35.63H211.229V29.2049Z" fill="#DAB863"/>
<path d="M203.636 7.00918H196.043V13.4343H206.557L221.159 44.3914L227 41.471L213.566 13.4343H220.575V6.42509H210.645L207.725 0.584106L201.3 3.5046L203.636 7.00918Z" fill="#DAB863"/>
<path d="M47.682 6.42509H36V12.8502H47.682V25.7003C47.682 32.1254 48.7384 33.9548 51.1865 37.3823C53.6347 40.8097 58.001 42.8339 60.5321 43.8074L61.7003 36.7982C59.948 36.2141 58.1957 35.63 56.4434 34.4618C54.7047 33.3026 54.107 27.4526 54.107 24.5321V12.8502H65.789V6.42509H54.107V0.584106H47.682V6.42509Z" fill="#DAB863"/>
<path d="M98.4985 7.00918H73.9664V13.4343H77.471V23.3639C77.471 26.6349 82.5332 27.842 85.0643 28.0367H101.419V32.7095C101.419 35.5132 99.8614 36.6035 99.0826 36.7982H81.5597C79.6906 36.7982 79.6127 34.0724 79.8074 32.7095H73.3823C73.3823 34.0724 73.616 37.3823 74.5505 39.7187C75.4851 42.0551 79.2233 42.6392 80.9756 42.6392C87.206 42.8339 100.718 43.6599 103 42.2905C105.5 40.7905 106.659 38.7905 107.5 35.7905C108.341 32.7905 107.844 28.0367 107.844 28.0367H109.596V21.6116C101.224 21.6116 84.3634 21.4948 83.8961 21.0275C83.4288 20.5603 83.7014 15.7707 83.8961 13.4343H100.835L104.34 19.8593L110.18 16.9388L102.003 0.584106L96.1621 3.5046L98.4985 7.00918Z" fill="#DAB863"/>
<path d="M99.098 51H106V90H99.098V86.8548C96.3791 86.8548 90.3137 86.729 87.8039 86.2258C85.2941 85.7226 81.7386 83.0806 80.2745 81.8226V90H74V51H80.2745V52.8871C80.2745 54.7742 80.5255 60.6871 81.5294 69.2419C82.5333 77.7968 88.6405 79.9355 91.5686 79.9355H99.098V51Z" fill="#DAB863"/>
<path d="M184.098 51H191V90H184.098V86.8548C181.379 86.8548 175.314 86.729 172.804 86.2258C170.294 85.7226 166.739 83.0806 165.275 81.8226V90H159V51H165.275V52.8871C165.275 54.7742 165.525 60.6871 166.529 69.2419C167.533 77.7968 173.641 79.9355 176.569 79.9355H184.098V51Z" fill="#DAB863"/>
<path d="M125.098 65.5229L114 88.8868L119.841 91.8073L130.939 68.4434L125.098 65.5229Z" fill="#DAB863"/>
<path d="M137.364 76.6208H129.771V83.0459H137.364V76.6208Z" fill="#DAB863"/>
<path d="M129.771 54.4251H122.177V60.8502H132.691L147.294 91.8073L153.135 88.8868L139.7 60.8502H146.709V53.841H136.78L133.859 48L127.434 50.9205L129.771 54.4251Z" fill="#DAB863"/>
<path d="M248.837 54.3394H229.894V60.9694H233.683V66.6522H228V74.2293H233.683V84.6478C233.683 88.4364 238.734 90.6464 241.26 91.2778H261.15V84.6478H244.101C241.828 84.6478 240.628 82.1221 240.313 80.8593V74.2293H252.626V66.6522H240.313V60.9694H251.678L255.467 67.5994L262.097 64.7579L253.573 47.7095L246.943 51.498L248.837 54.3394Z" fill="#DAB863"/>
<path d="M53.6 48H46.625V54.2H38.1V60.4H46.625V79C46.625 82.72 43.525 83.65 41.975 83.65H35V89.85H66V83.65H50.5C50.7583 83.1333 51.43 81.945 52.05 81.325C52.825 79.775 53.6 76.4167 53.6 74.35V60.4H62.9V54.2H53.6V48Z" fill="#DAB863"/>
<path d="M12 94L6.5 91C6.5 91 9.92352 85.3059 11.5 79C15.25 64 10.5 57 10.5 57L4.5 64L0 61L16 44L21 47L18 50L33 48.5L32 56.5L18.5 57L19 67.5H20.5C21.7 67.5 27 64.8333 29.5 63.5L30.5 69C30.5 69 22 73.3333 19.5 73C19.5 73.6667 19.4735 77.0973 18 82.5C16.5 88 14.3333 92.6667 12 94Z" fill="#DAB863"/>
<path d="M222.305 50.5V64.7578H217.172V56.2031H200.633V87H218.883V79.5859V73.5L222.305 71.5V81.8672V92.7031H195.5V50.5H222.305Z" fill="#DAB863"/>
</svg>
