<svg width="30" height="30" viewBox="0 0 30 30" fill="none" xmlns="http://www.w3.org/2000/svg">
<path fill-rule="evenodd" clip-rule="evenodd" d="M0 15C0 6.71573 6.71573 0 15 0C23.2843 0 30 6.71573 30 15C30 23.2843 23.2843 30 15 30C6.71573 30 0 23.2843 0 15ZM20.7188 10.7812C21.375 10.6875 21.9375 10.5938 22.5 10.3125C22.125 10.9687 21.5625 11.5313 20.9062 11.9062C21.0938 16.3125 17.9063 21.0938 12.1875 21.0938C10.5 21.0938 8.90625 20.5312 7.5 19.6875C9.09375 19.875 10.7812 19.4062 11.9062 18.5625C10.5 18.5625 9.375 17.625 9 16.4062C9.46875 16.5 9.9375 16.4062 10.4063 16.3125C9 15.9375 7.96875 14.625 7.96875 13.2188C8.4375 13.4063 8.90625 13.5938 9.375 13.5938C8.0625 12.6562 7.59375 10.875 8.4375 9.46875C10.0312 11.3438 12.2813 12.5625 14.8125 12.6562C14.3438 10.7812 15.8437 8.90625 17.8125 8.90625C18.6562 8.90625 19.5 9.28125 20.0625 9.84375C20.8125 9.65625 21.4687 9.46875 22.0312 9.09375C21.8437 9.84375 21.375 10.4063 20.7188 10.7812Z" fill="url(#paint0_linear_134_91)"/>
<defs>
<linearGradient id="paint0_linear_134_91" x1="2.5" y1="2.5" x2="27.5" y2="36" gradientUnits="userSpaceOnUse">
<stop stop-color="#48D4D4"/>
<stop offset="1" stop-color="#202693"/>
</linearGradient>
</defs>
</svg>
