<svg width="1004" height="1000" viewBox="0 0 1004 1000" fill="none" xmlns="http://www.w3.org/2000/svg">
<path d="M568.805 181.065C470.269 208.205 337.661 314.328 510.376 398.406C683.091 482.485 472.601 627.337 441.822 632.782C411.042 638.228 351.719 706.764 377.419 791.612C397.979 859.49 446.43 898.403 468.085 909.374" stroke="#32FEFB" stroke-width="2" stroke-linejoin="round" stroke-dasharray="1 14"/>
<path d="M568.805 91.0647C470.269 118.205 337.661 224.328 510.376 308.406C683.091 392.485 472.601 537.337 441.822 542.782C411.042 548.228 351.719 616.764 377.419 701.612C397.979 769.49 446.43 808.403 468.085 819.374" stroke="#32FEFB" stroke-width="2" stroke-linejoin="round" stroke-dasharray="1 14"/>
<path d="M568.805 10.0647C470.269 37.2055 337.661 143.328 510.376 227.406C683.091 311.485 472.601 456.337 441.822 461.782C411.042 467.228 351.719 535.764 377.419 620.612C397.979 688.49 446.43 727.403 468.085 738.374" stroke="#32FEFB" stroke-width="2" stroke-linejoin="round" stroke-dasharray="1 14"/>
<path d="M569.297 270.565C470.761 297.705 338.153 403.827 510.869 487.906C683.584 571.985 473.093 716.837 442.314 722.282C411.534 727.728 352.211 796.264 377.911 881.112C398.471 948.99 446.922 987.903 468.577 998.874" stroke="#32FEFB" stroke-width="2" stroke-linejoin="round" stroke-dasharray="1 14"/>
<path d="M569.297 180.565C470.761 207.705 338.153 313.827 510.869 397.906C683.584 481.985 473.093 626.837 442.314 632.282C411.534 637.728 352.211 706.264 377.911 791.112C398.471 858.99 446.922 897.903 468.577 908.874" stroke="#32FEFB" stroke-width="2" stroke-linejoin="round" stroke-dasharray="1 14"/>
<path d="M569.297 99.5646C470.761 126.705 338.153 232.827 510.869 316.906C683.584 400.985 473.093 545.837 442.314 551.282C411.534 556.728 352.211 625.264 377.911 710.112C398.471 777.99 446.922 816.903 468.577 827.874" stroke="#32FEFB" stroke-width="2" stroke-linejoin="round" stroke-dasharray="1 14"/>
<path d="M568.849 189.201C470.312 216.342 337.705 322.464 510.42 406.543C683.135 490.621 472.644 635.473 441.865 640.919C411.086 646.364 351.762 714.9 377.462 799.748C398.022 867.627 446.473 906.539 468.129 917.511" stroke="#32FEFB" stroke-width="2" stroke-linejoin="round" stroke-dasharray="1 14"/>
<path d="M568.849 99.2012C470.312 126.342 337.705 232.464 510.42 316.543C683.135 400.621 472.644 545.473 441.865 550.919C411.086 556.364 351.762 624.9 377.462 709.748C398.022 777.627 446.473 816.539 468.129 827.511" stroke="#32FEFB" stroke-width="2" stroke-linejoin="round" stroke-dasharray="1 14"/>
<path d="M568.849 18.2012C470.312 45.342 337.705 151.464 510.42 235.543C683.135 319.621 472.644 464.473 441.865 469.919C411.086 475.364 351.762 543.9 377.462 628.748C398.022 696.627 446.473 735.539 468.129 746.511" stroke="#32FEFB" stroke-width="2" stroke-linejoin="round" stroke-dasharray="1 14"/>
<path d="M568.894 197.337C470.358 224.478 337.75 330.6 510.465 414.679C683.18 498.758 472.69 643.61 441.911 649.055C411.131 654.501 351.807 723.037 377.507 807.885C398.067 875.763 446.519 914.676 468.174 925.647" stroke="#32FEFB" stroke-width="2" stroke-linejoin="round" stroke-dasharray="1 14"/>
<path d="M568.894 107.337C470.358 134.478 337.75 240.6 510.465 324.679C683.18 408.758 472.69 553.61 441.911 559.055C411.131 564.501 351.807 633.037 377.507 717.885C398.067 785.763 446.519 824.676 468.174 835.647" stroke="#32FEFB" stroke-width="2" stroke-linejoin="round" stroke-dasharray="1 14"/>
<path d="M568.894 26.3374C470.358 53.4782 337.75 159.6 510.465 243.679C683.18 327.758 472.69 472.61 441.911 478.055C411.131 483.501 351.807 552.037 377.507 636.885C398.067 704.763 446.519 743.676 468.174 754.647" stroke="#32FEFB" stroke-width="2" stroke-linejoin="round" stroke-dasharray="1 14"/>
<path d="M568.939 205.474C470.403 232.615 337.796 338.737 510.511 422.815C683.226 506.894 472.735 651.746 441.956 657.192C411.177 662.637 351.853 731.173 377.553 816.021C398.113 883.9 446.564 922.812 468.219 933.784" stroke="#32FEFB" stroke-width="2" stroke-linejoin="round" stroke-dasharray="1 14"/>
<path d="M568.939 115.474C470.403 142.615 337.796 248.737 510.511 332.815C683.226 416.894 472.735 561.746 441.956 567.192C411.177 572.637 351.853 641.173 377.553 726.021C398.113 793.9 446.564 832.812 468.219 843.784" stroke="#32FEFB" stroke-width="2" stroke-linejoin="round" stroke-dasharray="1 14"/>
<path d="M568.939 34.4739C470.403 61.6147 337.796 167.737 510.511 251.815C683.226 335.894 472.735 480.746 441.956 486.192C411.177 491.637 351.853 560.173 377.553 645.021C398.113 712.9 446.564 751.812 468.219 762.784" stroke="#32FEFB" stroke-width="2" stroke-linejoin="round" stroke-dasharray="1 14"/>
<path d="M568.983 213.61C470.447 240.751 337.839 346.873 510.555 430.952C683.27 515.03 472.779 659.882 442 665.328C411.221 670.773 351.897 739.309 377.597 824.157C398.157 892.036 446.608 930.948 468.263 941.92" stroke="#32FEFB" stroke-width="2" stroke-linejoin="round" stroke-dasharray="1 14"/>
<path d="M568.983 123.61C470.447 150.751 337.839 256.873 510.555 340.952C683.27 425.03 472.779 569.882 442 575.328C411.221 580.773 351.897 649.309 377.597 734.157C398.157 802.036 446.608 840.948 468.263 851.92" stroke="#32FEFB" stroke-width="2" stroke-linejoin="round" stroke-dasharray="1 14"/>
<path d="M568.983 42.6101C470.447 69.7509 337.839 175.873 510.555 259.952C683.27 344.03 472.779 488.882 442 494.328C411.221 499.773 351.897 568.309 377.597 653.157C398.157 721.036 446.608 759.948 468.263 770.92" stroke="#32FEFB" stroke-width="2" stroke-linejoin="round" stroke-dasharray="1 14"/>
<path d="M569.029 221.747C470.492 248.887 337.885 355.009 510.6 439.088C683.315 523.167 472.825 668.019 442.045 673.464C411.266 678.91 351.942 747.446 377.642 832.294C398.202 900.172 446.653 939.085 468.309 950.056" stroke="#32FEFB" stroke-width="2" stroke-linejoin="round" stroke-dasharray="1 14"/>
<path d="M569.029 131.747C470.492 158.887 337.885 265.009 510.6 349.088C683.315 433.167 472.825 578.019 442.045 583.464C411.266 588.91 351.942 657.446 377.642 742.294C398.202 810.172 446.653 849.085 468.309 860.056" stroke="#32FEFB" stroke-width="2" stroke-linejoin="round" stroke-dasharray="1 14"/>
<path d="M569.029 50.7466C470.492 77.8874 337.885 184.009 510.6 268.088C683.315 352.167 472.825 497.019 442.045 502.464C411.266 507.91 351.942 576.446 377.642 661.294C398.202 729.172 446.653 768.085 468.309 779.056" stroke="#32FEFB" stroke-width="2" stroke-linejoin="round" stroke-dasharray="1 14"/>
<path d="M569.074 229.883C470.538 257.024 337.93 363.146 510.645 447.224C683.36 531.303 472.87 676.155 442.091 681.601C411.311 687.046 351.988 755.582 377.688 840.43C398.248 908.308 446.699 947.221 468.354 958.192" stroke="#32FEFB" stroke-width="2" stroke-linejoin="round" stroke-dasharray="1 14"/>
<path d="M569.074 139.883C470.538 167.024 337.93 273.146 510.645 357.224C683.36 441.303 472.87 586.155 442.091 591.601C411.311 597.046 351.988 665.582 377.688 750.43C398.248 818.308 446.699 857.221 468.354 868.192" stroke="#32FEFB" stroke-width="2" stroke-linejoin="round" stroke-dasharray="1 14"/>
<path d="M569.074 58.8828C470.538 86.0236 337.93 192.146 510.645 276.224C683.36 360.303 472.87 505.155 442.091 510.601C411.311 516.046 351.988 584.582 377.688 669.43C398.248 737.308 446.699 776.221 468.354 787.192" stroke="#32FEFB" stroke-width="2" stroke-linejoin="round" stroke-dasharray="1 14"/>
<path d="M569.118 238.019C470.581 265.16 337.974 371.282 510.689 455.361C683.404 539.44 472.914 684.292 442.134 689.737C411.355 695.182 352.031 763.718 377.731 848.566C398.291 916.445 446.742 955.357 468.398 966.329" stroke="#32FEFB" stroke-width="2" stroke-linejoin="round" stroke-dasharray="1 14"/>
<path d="M569.118 148.019C470.581 175.16 337.974 281.282 510.689 365.361C683.404 449.44 472.914 594.292 442.134 599.737C411.355 605.182 352.031 673.718 377.731 758.566C398.291 826.445 446.742 865.357 468.398 876.329" stroke="#32FEFB" stroke-width="2" stroke-linejoin="round" stroke-dasharray="1 14"/>
<path d="M569.118 67.0193C470.581 94.1601 337.974 200.282 510.689 284.361C683.404 368.44 472.914 513.292 442.134 518.737C411.355 524.182 352.031 592.718 377.731 677.566C398.291 745.445 446.742 784.357 468.398 795.329" stroke="#32FEFB" stroke-width="2" stroke-linejoin="round" stroke-dasharray="1 14"/>
<path d="M569.163 246.156C470.627 273.297 338.019 379.419 510.734 463.497C683.449 547.576 472.959 692.428 442.18 697.873C411.4 703.319 352.077 771.855 377.776 856.703C398.336 924.581 446.788 963.494 468.443 974.465" stroke="#32FEFB" stroke-width="2" stroke-linejoin="round" stroke-dasharray="1 14"/>
<path d="M569.163 156.156C470.627 183.297 338.019 289.419 510.734 373.497C683.449 457.576 472.959 602.428 442.18 607.873C411.4 613.319 352.077 681.855 377.776 766.703C398.336 834.581 446.788 873.494 468.443 884.465" stroke="#32FEFB" stroke-width="2" stroke-linejoin="round" stroke-dasharray="1 14"/>
<path d="M569.163 75.1558C470.627 102.297 338.019 208.419 510.734 292.497C683.449 376.576 472.959 521.428 442.18 526.873C411.4 532.319 352.077 600.855 377.776 685.703C398.336 753.581 446.788 792.494 468.443 803.465" stroke="#32FEFB" stroke-width="2" stroke-linejoin="round" stroke-dasharray="1 14"/>
<path d="M569.208 254.292C470.672 281.433 338.065 387.555 510.78 471.633C683.495 555.712 473.004 700.564 442.225 706.01C411.446 711.455 352.122 779.991 377.822 864.839C398.382 932.717 446.833 971.63 468.489 982.602" stroke="#32FEFB" stroke-width="2" stroke-linejoin="round" stroke-dasharray="1 14"/>
<path d="M569.208 164.292C470.672 191.433 338.065 297.555 510.78 381.633C683.495 465.712 473.004 610.564 442.225 616.01C411.446 621.455 352.122 689.991 377.822 774.839C398.382 842.717 446.833 881.63 468.489 892.602" stroke="#32FEFB" stroke-width="2" stroke-linejoin="round" stroke-dasharray="1 14"/>
<path d="M569.208 83.2919C470.672 110.433 338.065 216.555 510.78 300.633C683.495 384.712 473.004 529.564 442.225 535.01C411.446 540.455 352.122 608.991 377.822 693.839C398.382 761.717 446.833 800.63 468.489 811.602" stroke="#32FEFB" stroke-width="2" stroke-linejoin="round" stroke-dasharray="1 14"/>
<path d="M569.252 262.428C470.716 289.569 338.108 395.691 510.823 479.77C683.538 563.849 473.048 708.701 442.268 714.146C411.489 719.592 352.165 788.128 377.865 872.976C398.425 940.854 446.876 979.767 468.532 990.738" stroke="#32FEFB" stroke-width="2" stroke-linejoin="round" stroke-dasharray="1 14"/>
<path d="M569.252 172.428C470.716 199.569 338.108 305.691 510.823 389.77C683.538 473.849 473.048 618.701 442.268 624.146C411.489 629.592 352.165 698.128 377.865 782.976C398.425 850.854 446.876 889.767 468.532 900.738" stroke="#32FEFB" stroke-width="2" stroke-linejoin="round" stroke-dasharray="1 14"/>
<path d="M569.252 91.4284C470.716 118.569 338.108 224.691 510.823 308.77C683.538 392.849 473.048 537.701 442.268 543.146C411.489 548.592 352.165 617.128 377.865 701.976C398.425 769.854 446.876 808.767 468.532 819.738" stroke="#32FEFB" stroke-width="2" stroke-linejoin="round" stroke-dasharray="1 14"/>
</svg>
